<?xml version="1.0" encoding="utf-8"?>
<!-- Generator: Adobe Illustrator 15.1.0, SVG Export Plug-In . SVG Version: 6.00 Build 0)  -->
<!DOCTYPE svg PUBLIC "-//W3C//DTD SVG 1.1//EN" "http://www.w3.org/Graphics/SVG/1.1/DTD/svg11.dtd">
<svg version="1.1" id="Layer_1" xmlns="http://www.w3.org/2000/svg" xmlns:xlink="http://www.w3.org/1999/xlink" x="0px" y="0px"
	 width="695px" height="210px" viewBox="0 0 695 210" enable-background="new 0 0 695 210" xml:space="preserve">
<path fill="#1A1A1A" d="M682.969,21.839c20.788,9.841,5.982,74.47,0,101.281C677.436,96.544,661.219,31.679,682.969,21.839z"/>
<path fill="#1A1A1A" d="M693.651,144.253c7.283,20.212-17.027,26.407-22.98,10.808C667.575,139.018,685.19,133.68,693.651,144.253z"
	/>
<g id="XMLID_2_">
	<g>
		<path fill="#CFC6BE" d="M655.613,111.807c-0.056,0-0.108,0-0.163,0c0-0.326,0-0.654,0-0.981c0-0.655,0-1.31,0-1.964
			C655.832,109.516,655.505,110.881,655.613,111.807z"/>
		<path fill="#817E7E" d="M655.45,111.807c0.055,0,0.107,0,0.163,0c-0.108,2.127,0.219,4.69-0.163,6.547c0-0.055,0-0.109,0-0.164
			C655.45,116.063,655.45,113.934,655.45,111.807z"/>
		<path fill="#2B2929" d="M655.45,118.189c0,0.055,0,0.109,0,0.164c-11.237,0-22.477,0-33.712,0
			c-0.375,0.443-0.057,1.574-0.164,2.291c-0.375-0.498-0.055-1.691-0.163-2.455C632.758,118.189,644.104,118.189,655.45,118.189z"/>
		<path d="M655.45,111.807c0,2.127,0,4.256,0,6.383c-11.347,0-22.692,0-34.039,0c0.107,0.764-0.212,1.957,0.163,2.455
			c0.107,1.199-0.218,2.837,0.164,3.764c0.348,7.842,2.135,14.23,5.563,18.982c0.586,0.724,1.24,1.379,1.964,1.965
			c1.875,1.344,3.988,2.447,6.873,2.781c0.825,0.271,2.782,0.271,3.602,0c4.232-0.513,7.133-2.358,9.817-4.418
			c0.995-0.858,1.924-1.787,2.782-2.781c0.13-0.525,0.593-0.717,0.818-1.146c0.511-0.203,0.318-0.537,0.489,0
			c0.097,0.309,0.163,0.643,0.204,1.003c0,0.007,0,0.007,0,0.007c0,0.709-0.041,1.5-0.041,1.938c0,0.442,0,0.906,0,1.384
			c-0.073,1.063-0.163,2.162-0.163,3.198c0,2.721,0,5.332,0,7.526c-0.226,0.483-0.758,0.662-0.98,1.146
			c-4.337,3.52-9.028,6.684-16.528,7.036c-0.928,0-1.854,0-2.781,0c-20.185-1.313-26.237-20.92-27.655-40.912
			c0-0.545,0-1.091,0-1.637c-0.104-0.554,0.211-1.521-0.164-1.802c0-0.381,0-0.764,0-1.146c0-2.019,0-4.036,0-6.056
			c0-0.438,0-0.872,0-1.311c0.375-0.279,0.062-1.248,0.164-1.8c0.225-9.73,1.875-19.181,5.398-26.838
			c3.334-7.242,8.209-14.408,18.165-15.056c1.092,0,2.184,0,3.272,0c17.845,1.657,21.138,21.104,22.584,39.112
			c-0.048,1.193,0.293,2.006,0.163,3.273c0.103,0.607-0.211,1.63,0.164,1.964C655.45,111.153,655.45,111.48,655.45,111.807z
			 M639.412,106.243c0.273-0.498,0.273-2.121,0-2.619c-0.108-1.309,0.219-3.055-0.163-4.091c-0.58-7.93-1.507-15.512-6.71-18.819
			c-9.9-1.555-10.018,9.362-10.965,17.837c-0.375,0.655-0.056,2.019-0.163,2.946c-0.375,0.709-0.057,2.127-0.164,3.109
			c0,0.545,0,1.091,0,1.637C627.303,106.243,633.357,106.243,639.412,106.243z"/>
		<path fill="#2B2929" d="M655.45,108.862c0,0.655,0,1.31,0,1.964c-0.375-0.334-0.063-1.357-0.164-1.964
			C655.341,108.862,655.395,108.862,655.45,108.862z"/>
		<path fill="#817E7E" d="M655.45,108.862c-0.057,0-0.109,0-0.164,0c0.13-1.269-0.211-2.08-0.163-3.272
			C655.818,106.094,655.279,107.832,655.45,108.862z"/>
		<path d="M653.854,140.801c0.108,0.969,0.041,2.121-0.041,3.32c0-0.479,0-0.939,0-1.384
			C653.813,142.301,653.854,141.51,653.854,140.801z"/>
		<path fill="#817E7E" d="M653.159,139.791c0.593-1.186,0.702-0.197,0.695,1.003c-0.041-0.36-0.109-0.694-0.205-1.003
			C653.479,139.253,653.67,139.588,653.159,139.791z"/>
		<path fill="#817E7E" d="M653.813,144.121c0,3.717,0,8.34,0,11.055c-0.425,0.176-0.784,0.416-0.981,0.817c-0.055,0-0.109,0-0.164,0
			c0.225-0.483,0.757-0.662,0.981-1.146c0-2.195,0-4.809,0-7.527C653.649,146.283,653.738,145.186,653.813,144.121z"/>
		<path fill="#2B2929" d="M651.85,141.264c0.221-0.056,0.261-0.287,0.491-0.326c-0.857,0.994-1.787,1.923-2.782,2.781
			c0.034-0.129,0.164-0.164,0.164-0.328C650.5,142.751,651.209,142.042,651.85,141.264z"/>
		<path fill="#CFC6BE" d="M651.85,141.264c-0.641,0.776-1.35,1.485-2.127,2.127C650.363,142.614,651.072,141.905,651.85,141.264z"/>
		<path fill="#2B2929" d="M636.14,148.137c1.2,0,2.4,0,3.602,0C638.922,148.41,636.965,148.41,636.14,148.137z"/>
		<path fill="#2B2929" d="M639.412,103.625c0.273,0.498,0.273,2.121,0,2.619c0-0.055,0-0.109,0-0.164
			C639.412,105.262,639.412,104.443,639.412,103.625z"/>
		<path fill="#817E7E" d="M639.412,106.079c0,0.056,0,0.109,0,0.164c-6.055,0-12.109,0-18.165,0c0-0.546,0-1.091,0-1.637
			c0.055,0,0.109,0,0.164,0c0,0.491,0,0.981,0,1.473c5.946,0,11.892,0,17.838,0C639.304,106.079,639.357,106.079,639.412,106.079z"
			/>
		<path fill="#CFC6BE" d="M639.412,103.625c0,0.818,0,1.637,0,2.455c-0.055,0-0.108,0-0.163,0c0-2.182,0-4.364,0-6.546
			C639.631,100.57,639.304,102.316,639.412,103.625z"/>
		<path fill="#2B2929" d="M633.357,163.029c0.928,0,1.854,0,2.78,0C635.587,163.303,633.91,163.303,633.357,163.029z"/>
		<path fill="#2B2929" d="M632.539,66.477c-1.091,0-2.182,0-3.272,0C629.982,66.204,631.83,66.204,632.539,66.477z"/>
		<path fill="#2B2929" d="M629.267,145.191c0,0.055,0,0.109,0,0.164c-0.724-0.586-1.378-1.241-1.964-1.965
			c0.138,0.035,0.163,0.164,0.327,0.164C628.107,144.169,628.652,144.715,629.267,145.191z"/>
		<path fill="#CFC6BE" d="M627.63,143.555c0.613,0.478,1.159,1.021,1.637,1.637C628.652,144.715,628.107,144.169,627.63,143.555z"/>
		<path fill="#CFC6BE" d="M621.738,118.354c0,2.019,0,4.037,0,6.055c-0.382-0.927-0.057-2.563-0.164-3.764
			C621.684,119.93,621.363,118.797,621.738,118.354z"/>
		<path fill="#CFC6BE" d="M621.574,98.552c-0.108,1.91,0.219,4.255-0.163,5.892c0-0.982,0-1.964,0-2.946
			C621.52,100.57,621.199,99.206,621.574,98.552z"/>
		<path fill="#2B2929" d="M621.411,104.443c0,0.055,0,0.109,0,0.164c-0.055,0-0.109,0-0.164,0c0.109-0.982-0.211-2.4,0.164-3.109
			C621.411,102.479,621.411,103.461,621.411,104.443z"/>
		<path fill="#817E7E" d="M605.701,120.48c0,0.546,0,1.092,0,1.637c-0.375-0.225-0.063-1.139-0.164-1.637
			C605.592,120.48,605.646,120.48,605.701,120.48z"/>
		<path fill="#2B2929" d="M605.701,108.371c-0.104,0.553,0.211,1.521-0.164,1.801c0-0.601,0-1.201,0-1.801
			C605.592,108.371,605.646,108.371,605.701,108.371z"/>
		<path fill="#2B2929" d="M605.537,118.68c0.375,0.278,0.062,1.248,0.164,1.801c-0.055,0-0.109,0-0.164,0
			C605.537,119.881,605.537,119.281,605.537,118.68z"/>
		<path fill="#CFC6BE" d="M605.537,118.68c0,0.602,0,1.201,0,1.801c-0.375-0.654-0.055-2.018-0.164-2.945c0.055,0,0.109,0,0.164,0
			C605.537,117.917,605.537,118.299,605.537,118.68z"/>
		<path fill="#817E7E" d="M605.537,111.48c0,2.019,0,4.035,0,6.055c-0.055,0-0.109,0-0.164,0c0-2.02,0-4.036,0-6.055
			C605.428,111.48,605.482,111.48,605.537,111.48z"/>
		<path fill="#CFC6BE" d="M605.537,110.172c0,0.437,0,0.872,0,1.31c-0.055,0-0.109,0-0.164,0c0.109-0.982-0.211-2.4,0.164-3.109
			C605.537,108.971,605.537,109.571,605.537,110.172z"/>
		<path fill="#2B2929" d="M586.718,22.291c0,46.095,0,92.189,0,138.284c-0.055,0-0.107,0-0.164,0c0-42.617,0-89.864,0-133.865
			c0-1.534,0.15-4.077,0-4.254c-0.066-0.082-0.204-0.144-0.409-0.191C586.343,22.271,586.526,22.278,586.718,22.291z"/>
		<path fill="#CFC6BE" d="M586.554,160.575c0.057,0,0.109,0,0.164,0c-5.455,0.272-12.056,0.272-17.511,0c0.055,0,0.109,0,0.164,0
			C575.099,160.575,580.826,160.575,586.554,160.575z"/>
		<path d="M586.554,22.455c0.15,0.177,0,2.72,0,4.254c0,44.001,0,91.248,0,133.865c-5.728,0-11.455,0-17.183,0
			c0-1.855,0-3.71,0-5.564c0-1.035,0-2.071,0-3.107c0.382-1.582,0.055-3.873,0.163-5.729c0-2.129,0-4.256,0-6.384
			c0-0.545,0-1.091,0-1.636c0.382-1.854,0.055-4.419,0.164-6.546c0-2.347,0-4.691,0-7.037c0.382-2.399,0.055-5.511,0.163-8.183
			c0-1.854,0-3.709,0-5.564c0.382-3.109,0.055-6.928,0.164-10.31c0-1.309,0-2.618,0-3.927c0.382-3.164,0.055-7.037,0.164-10.474
			c0-1.855,0-3.709,0-5.564c0-0.273,0-0.545,0-0.818c0.382-2.346,0.054-5.4,0.163-8.019c0-1.636,0-3.273,0-4.909
			c0-1.255,0-2.509,0-3.764c0.219-0.552,0.407-2.482-0.163-2.782c-1.323,1.575-1.78,3.696-2.455,5.564
			c-4.712,13.126-10.446,26.477-15.222,39.767c-1.109-0.198-3.073,0.465-3.437-0.484v-0.006
			c-5.68-14.885-11.455-29.675-17.021-44.676c0-0.164-0.129-0.198-0.162-0.327c-1.099,0.457-0.654,2.318-0.654,3.764
			c0,1.562-0.122,3.328,0.164,4.418c0,2.127,0,4.255,0,6.382c0.107,2.346-0.22,5.128,0.164,7.201c0,0.272,0,0.545,0,0.818
			c0,2.182,0,4.364,0,6.546c0.106,2.073-0.221,4.582,0.163,6.382c0,1.036,0,2.073,0,3.109c0,1.636,0,3.273,0,4.909
			c0.107,1.8-0.22,4.037,0.163,5.564c-0.104,0.935,0.063,2.536,0,3.928c0,1.636,0,3.272,0,4.909c0.107,2.617-0.22,5.673,0.162,8.019
			c0,0.272,0,0.546,0,0.818c0,1.854,0,3.709,0,5.563c0.109,3.383-0.218,7.199,0.164,10.311c0,1.363,0,2.729,0,4.091
			c0.109,3.382-0.219,7.201,0.163,10.312c0,1.146,0,2.291,0,3.438c-5.728,0-11.455,0-17.183,0
			c0.109-46.04-0.219-92.517,0.163-138.284c4.965,0.109,10.365-0.218,15.056,0.164c6.751,16.814,13.639,33.493,20.293,50.404
			c2.087-3.996,3.587-8.326,5.236-12.601c4.01-10.378,8.688-21.022,12.929-31.584c0.866-2.155,1.65-4.589,2.618-6.382
			c1.739,0,4.835,0,7.691,0c0.723,0,2.282-0.102,3.775-0.15c0.016-0.007,0.034-0.007,0.057,0c1.063,0.027,2.105,0.068,3.103,0.116
			c0.007,0,0.014,0,0.021,0.006C586.35,22.312,586.485,22.373,586.554,22.455z"/>
		<path d="M583.021,22.141c1.255-0.034,2.469-0.027,3.103,0.116C585.129,22.21,584.086,22.169,583.021,22.141z"/>
		<path fill="#2B2929" d="M571.498,22.291c3.505-0.205,7.644-0.252,11.469-0.15c-1.493,0.048-3.055,0.15-3.775,0.15
			C576.333,22.291,573.237,22.291,571.498,22.291z"/>
		<path fill="#2B2929" d="M570.189,60.258c0.57,0.3,0.382,2.229,0.161,2.782c0-0.764,0-1.527,0-2.291
			C570.4,60.483,570.196,60.47,570.189,60.258z"/>
		<path fill="#817E7E" d="M570.354,66.804c0,1.636,0,3.273,0,4.909c-0.057,0-0.109,0-0.163,0c0-1.636,0-3.273,0-4.909
			C570.243,66.804,570.298,66.804,570.354,66.804z"/>
		<path fill="#CFC6BE" d="M570.354,63.04c0,1.255,0,2.509,0,3.764c-0.057,0-0.109,0-0.163,0c0.106-1.964-0.221-4.364,0.163-6.055
			C570.354,61.512,570.354,62.276,570.354,63.04z"/>
		<path fill="#2B2929" d="M570.189,71.713c0.054,0,0.106,0,0.161,0c-0.107,2.619,0.221,5.673-0.161,8.019c0-0.818,0-1.637,0-2.455
			C570.189,75.423,570.189,73.568,570.189,71.713z"/>
		<path fill="#817E7E" d="M570.189,80.551c0,1.854,0,3.709,0,5.564c-0.057,0-0.109,0-0.164,0c0-1.855,0-3.709,0-5.564
			C570.08,80.551,570.135,80.551,570.189,80.551z"/>
		<path fill="#CFC6BE" d="M570.189,79.732c0,0.273,0,0.545,0,0.818c-0.057,0-0.109,0-0.164,0c0.107-1.037-0.22-2.509,0.164-3.273
			C570.189,78.096,570.189,78.914,570.189,79.732z"/>
		<path fill="#2B2929" d="M570.025,86.115c0.055,0,0.107,0,0.164,0c-0.109,3.437,0.218,7.31-0.164,10.474c0-0.546,0-1.091,0-1.637
			c0-1.309,0-2.618,0-3.928C570.025,89.387,570.025,87.751,570.025,86.115z"/>
		<path fill="#817E7E" d="M570.025,96.588c0,1.309,0,2.618,0,3.927c-0.057,0-0.109,0-0.164,0c0-1.854,0-3.709,0-5.564
			c0.055,0,0.107,0,0.164,0C570.025,95.497,570.025,96.042,570.025,96.588z"/>
		<path fill="#CFC6BE" d="M570.025,91.024c0,1.31,0,2.619,0,3.928c-0.057,0-0.109,0-0.164,0
			C569.971,93.697,569.645,92.006,570.025,91.024z"/>
		<path fill="#2B2929" d="M569.861,100.515c0.055,0,0.107,0,0.164,0c-0.109,3.382,0.218,7.202-0.164,10.31c0-0.491,0-0.981,0-1.474
			c0-1.363,0-2.728,0-4.09C569.861,103.679,569.861,102.097,569.861,100.515z"/>
		<path fill="#817E7E" d="M569.861,110.825c0,1.854,0,3.709,0,5.563c-0.056,0-0.108,0-0.163,0c0-2.347,0-4.69,0-7.037
			c0.055,0,0.107,0,0.163,0C569.861,109.844,569.861,110.334,569.861,110.825z"/>
		<path fill="#CFC6BE" d="M569.861,105.262c0,1.364,0,2.728,0,4.091c-0.056,0-0.108,0-0.163,0
			C569.808,108.043,569.479,106.299,569.861,105.262z"/>
		<path fill="#2B2929" d="M569.698,116.389c0.055,0,0.107,0,0.163,0c-0.108,2.674,0.219,5.783-0.163,8.184c0-0.271,0-0.546,0-0.818
			c0-1.637,0-3.271,0-4.908C569.698,118.026,569.698,117.208,569.698,116.389z"/>
		<path fill="#817E7E" d="M569.698,124.572c0,2.346,0,4.691,0,7.037c-0.057,0-0.109,0-0.164,0c0-2.619,0-5.237,0-7.855
			c0.055,0,0.107,0,0.164,0C569.698,124.026,569.698,124.301,569.698,124.572z"/>
		<path fill="#CFC6BE" d="M569.698,118.846c0,1.637,0,3.271,0,4.908c-0.057,0-0.109,0-0.164,0
			C569.645,122.172,569.316,120.153,569.698,118.846z"/>
		<path fill="#2B2929" d="M569.534,131.609c0.055,0,0.107,0,0.164,0c-0.109,2.127,0.218,4.691-0.164,6.546c0-1.909,0-3.817,0-5.728
			C569.534,132.154,569.534,131.883,569.534,131.609z"/>
		<path fill="#817E7E" d="M569.534,139.791c0,2.128,0,4.256,0,6.383c-0.055,0-0.108,0-0.163,0c0-2.127,0-4.255,0-6.383
			C569.426,139.791,569.479,139.791,569.534,139.791z"/>
		<path fill="#CFC6BE" d="M569.534,138.155c0,0.545,0,1.091,0,1.636c-0.055,0-0.108,0-0.163,0c0.107-2.398-0.219-5.236,0.163-7.363
			C569.534,134.338,569.534,136.246,569.534,138.155z"/>
		<path fill="#2B2929" d="M569.371,146.174c0.055,0,0.107,0,0.163,0c-0.108,1.854,0.219,4.146-0.163,5.729c0-1.69,0-3.384,0-5.073
			C569.371,146.61,569.371,146.391,569.371,146.174z"/>
		<path fill="#817E7E" d="M569.371,155.012c0,1.854,0,3.709,0,5.563c-0.055,0-0.109,0-0.164,0c0-1.854,0-3.71,0-5.563
			C569.262,155.012,569.316,155.012,569.371,155.012z"/>
		<path fill="#CFC6BE" d="M569.371,151.901c0,1.036,0,2.073,0,3.108c-0.055,0-0.109,0-0.164,0c0.109-2.674-0.218-5.781,0.164-8.184
			C569.371,148.52,569.371,150.21,569.371,151.901z"/>
		<path fill="#817E7E" d="M549.078,105.105c0.361,0.947,2.325,0.286,3.437,0.484C551.765,105.678,549.078,106.311,549.078,105.105z"
			/>
		<path fill="#817E7E" d="M532.55,155.502c0,1.69,0,3.383,0,5.073c-0.055,0-0.107,0-0.164,0c0-1.146,0-2.291,0-3.437
			c0-0.547,0-1.092,0-1.639C532.44,155.502,532.495,155.502,532.55,155.502z"/>
		<path fill="#CFC6BE" d="M532.55,155.502c-0.055,0-0.107,0-0.164,0c0-1.363,0-2.728,0-4.092
			C532.768,152.447,532.44,154.192,532.55,155.502z"/>
		<path fill="#CFC6BE" d="M532.386,160.575c0.057,0,0.109,0,0.164,0c-5.51,0.272-12.165,0.272-17.674,0
			c0.218-45.931-0.437-92.81,0.327-138.447c-0.272,45.767-0.272,92.681,0,138.447C520.931,160.575,526.658,160.575,532.386,160.575z
			"/>
		<path fill="#2B2929" d="M532.386,155.502c0,0.545,0,1.092,0,1.637c-0.382-3.107-0.054-6.929-0.163-10.311c0.057,0,0.109,0,0.163,0
			c0,1.527,0,3.055,0,4.582C532.386,152.774,532.386,154.137,532.386,155.502z"/>
		<path fill="#817E7E" d="M532.386,141.1c0,1.91,0,3.817,0,5.729c-0.054,0-0.106,0-0.163,0c0-1.363,0-2.729,0-4.091
			c0-0.546,0-1.091,0-1.638C532.277,141.1,532.332,141.1,532.386,141.1z"/>
		<path fill="#CFC6BE" d="M532.386,141.1c-0.054,0-0.106,0-0.163,0c0-1.254,0-2.508,0-3.765
			C532.604,138.264,532.277,139.9,532.386,141.1z"/>
		<path fill="#2B2929" d="M532.223,141.1c0,0.547,0,1.092,0,1.638c-0.382-3.109-0.055-6.929-0.164-10.31c0.057,0,0.109,0,0.164,0
			c0,1.636,0,3.271,0,4.907C532.223,138.592,532.223,139.846,532.223,141.1z"/>
		<path fill="#817E7E" d="M532.223,126.863c0,1.854,0,3.709,0,5.564c-0.055,0-0.107,0-0.164,0c0-1.855,0-3.711,0-5.564
			C532.113,126.863,532.168,126.863,532.223,126.863z"/>
		<path fill="#CFC6BE" d="M532.223,126.863c-0.055,0-0.107,0-0.164,0c0-0.271,0-0.546,0-0.818c0-0.818,0-1.637,0-2.455
			C532.44,124.354,532.113,125.827,532.223,126.863z"/>
		<path fill="#2B2929" d="M532.059,123.59c0,0.818,0,1.637,0,2.455c-0.382-2.346-0.055-5.4-0.161-8.019c0.055,0,0.106,0,0.161,0
			C532.059,119.881,532.059,121.735,532.059,123.59z"/>
		<path fill="#817E7E" d="M532.059,113.117c0,1.636,0,3.271,0,4.909c-0.055,0-0.106,0-0.161,0c0-1.638,0-3.273,0-4.909
			C531.95,113.117,532.004,113.117,532.059,113.117z"/>
		<path fill="#2B2929" d="M532.059,60.422c-0.136,0.027-0.154-0.062-0.161-0.164c-0.841-0.075-0.368,1.159-0.491,1.8
			c0,1.582,0,3.164,0,4.746c0,0.491,0,0.982,0,1.473c-0.286-1.091-0.164-2.857-0.164-4.418c0-1.445-0.442-3.307,0.655-3.764
			C531.93,60.224,532.059,60.258,532.059,60.422z"/>
		<path fill="#CFC6BE" d="M532.059,113.117c-0.055,0-0.106,0-0.161,0c0.062-1.393-0.104-2.994,0-3.928c0-1.092,0-2.182,0-3.273
			C532.277,107.989,531.95,110.771,532.059,113.117z"/>
		<path fill="#2B2929" d="M531.895,105.916c0,1.092,0,2.182,0,3.273c-0.382-1.527-0.055-3.764-0.162-5.564c0.055,0,0.107,0,0.162,0
			C531.895,104.388,531.895,105.152,531.895,105.916z"/>
		<path fill="#817E7E" d="M531.895,98.716c0,1.636,0,3.273,0,4.909c-0.055,0-0.107,0-0.162,0c0-1.636,0-3.273,0-4.909
			C531.786,98.716,531.841,98.716,531.895,98.716z"/>
		<path fill="#CFC6BE" d="M531.895,98.716c-0.055,0-0.107,0-0.162,0c0-1.037,0-2.073,0-3.109c0-1.909,0-3.819,0-5.728
			C532.113,92.497,531.786,95.825,531.895,98.716z"/>
		<path fill="#2B2929" d="M531.731,89.878c0,1.909,0,3.819,0,5.729c-0.384-1.8-0.057-4.31-0.163-6.382c0.054,0,0.106,0,0.163,0
			C531.731,89.442,531.731,89.66,531.731,89.878z"/>
		<path fill="#817E7E" d="M531.731,82.678c0,2.182,0,4.364,0,6.546c-0.057,0-0.109,0-0.163,0c0-2.182,0-4.364,0-6.546
			C531.622,82.678,531.677,82.678,531.731,82.678z"/>
		<path fill="#CFC6BE" d="M531.731,82.678c-0.057,0-0.109,0-0.163,0c0-0.273,0-0.546,0-0.818c0-2.073,0-4.146,0-6.219
			C531.95,77.659,531.622,80.387,531.731,82.678z"/>
		<path fill="#2B2929" d="M531.568,75.641c0,2.073,0,4.146,0,6.219c-0.383-2.073-0.057-4.855-0.164-7.201c0.055,0,0.107,0,0.164,0
			C531.568,74.986,531.568,75.314,531.568,75.641z"/>
		<path fill="#817E7E" d="M531.568,66.804c0,2.618,0,5.237,0,7.855c-0.057,0-0.109,0-0.164,0c0-2.127,0-4.255,0-6.382
			c0-0.491,0-0.982,0-1.473C531.459,66.804,531.514,66.804,531.568,66.804z"/>
		<path fill="#CFC6BE" d="M531.568,66.804c-0.057,0-0.109,0-0.164,0c0-1.582,0-3.164,0-4.746
			C531.786,63.313,531.459,65.277,531.568,66.804z"/>
		<path fill="#2B2929" d="M530.422,22.455c-4.688-0.382-10.091-0.055-15.056-0.164c-0.382,45.767-0.054,92.244-0.163,138.284
			c-0.272-45.769-0.272-92.68,0-138.447C520.174,22.346,525.997,21.698,530.422,22.455z"/>
		<path fill="#CFC6BE" d="M495.893,111.971c-0.055,0-0.107,0-0.162,0c0-0.381,0-0.763,0-1.145c0-0.6,0-1.2,0-1.8
			C496.11,109.68,495.783,111.044,495.893,111.971z"/>
		<path fill="#817E7E" d="M495.729,111.971c0.055,0,0.107,0,0.162,0c-0.107,2.073,0.22,4.584-0.162,6.383c0-0.055,0-0.107,0-0.162
			C495.729,116.117,495.729,114.044,495.729,111.971z"/>
		<path fill="#2B2929" d="M495.729,118.189c0,0.055,0,0.109,0,0.164c-11.237,0-22.477,0-33.713,0
			c-0.375,0.443-0.055,1.574-0.162,2.291c-0.375-0.498-0.057-1.691-0.164-2.455C473.036,118.189,484.383,118.189,495.729,118.189z"
			/>
		<path d="M495.729,111.971c0,2.073,0,4.146,0,6.221c-11.348,0-22.692,0-34.039,0c0.107,0.764-0.211,1.957,0.164,2.453
			c0.107,1.312-0.22,3.057,0.162,4.093c0.416,7.657,2.188,13.965,5.563,18.655c0.642,0.776,1.351,1.486,2.128,2.127
			c1.868,1.24,3.914,2.307,6.709,2.619c0.825,0.271,2.782,0.271,3.601,0c4.234-0.513,7.135-2.358,9.819-4.42
			c0.94-0.805,1.813-1.677,2.618-2.617c0.259-0.506,0.668-0.858,0.979-1.311c0.057,0,0.32-0.238,0.438-0.313
			c0.313,1.084,0.293,2.51,0.238,3.962c0,0.034-0.006,0.067-0.006,0.103c-0.075,1.234-0.18,2.557-0.18,3.777
			c0,2.993,0,5.837,0,7.691c-4.419,4.09-9.442,7.573-17.511,8.019c-0.927,0-1.854,0-2.781,0c-6.185-0.144-10.352-2.306-13.91-5.073
			c0-0.054,0-0.107,0-0.163c-1.492-0.954-2.487-2.421-3.765-3.601c-6.402-8.107-9.498-19.521-9.981-33.549
			c-0.104-0.553,0.213-1.521-0.162-1.799c0-0.383,0-0.766,0-1.146c0-2.128,0-4.255,0-6.383c0-0.383,0-0.764,0-1.146
			c0.375-0.279,0.061-1.248,0.162-1.8c0-0.546,0-1.091,0-1.637c0.817-13.637,3.654-25.256,10.146-33.221c0.055,0,0.109,0,0.163,0
			c0.757-1.043,1.813-1.787,2.619-2.782c2.755-2.209,5.918-4.01,10.637-4.255c1.091,0,2.182,0,3.273,0
			c4.752,0.157,7.896,1.93,10.637,4.091c0.805,0.941,1.678,1.814,2.618,2.619c6.226,7.746,8.585,19.345,9.328,32.566
			c-0.021,1.111,0.284,1.896,0.164,3.109c0.102,0.606-0.214,1.63,0.161,1.964C495.729,111.207,495.729,111.59,495.729,111.971z
			 M479.691,106.243c0.271-0.498,0.271-2.121,0-2.619c0-0.437,0-0.873,0-1.309c-0.109-0.873,0.218-2.175-0.164-2.782
			c-0.586-7.923-1.5-15.519-6.709-18.819c-4.65-1.173-6.76,1.077-8.185,3.927c-1.767,3.539-2.598,9.342-2.782,13.747
			c-0.382,0.709-0.055,2.127-0.162,3.109c-0.375,0.709-0.056,2.127-0.163,3.109c0,0.545,0,1.091,0,1.637
			C467.581,106.243,473.637,106.243,479.691,106.243z"/>
		<path fill="#2B2929" d="M495.729,109.025c0,0.6,0,1.199,0,1.8c-0.375-0.334-0.063-1.356-0.163-1.964c0.055,0,0.106,0,0.163,0
			C495.729,108.916,495.729,108.971,495.729,109.025z"/>
		<path fill="#817E7E" d="M495.729,108.862c-0.057,0-0.108,0-0.163,0c0.122-1.214-0.187-1.998-0.164-3.109
			C496.138,106.168,495.531,107.914,495.729,108.862z"/>
		<path d="M493.929,139.465c0.334,0.797,0.286,2.291,0.186,3.977c0.055-1.452,0.075-2.878-0.238-3.963
			C493.901,139.465,493.922,139.457,493.929,139.465z"/>
		<path fill="#817E7E" d="M494.093,146.992c-0.107,2.618,0.218,5.673-0.164,8.02c0-1.854,0-4.697,0-7.69
			c0-1.222,0.104-2.543,0.18-3.777C494.065,144.729,494.004,145.936,494.093,146.992z"/>
		<path fill="#817E7E" d="M493.765,139.137c0.041,0.109,0.082,0.221,0.109,0.342c-0.116,0.074-0.382,0.313-0.437,0.313
			C493.438,139.465,493.888,139.58,493.765,139.137z"/>
		<path fill="#2B2929" d="M492.129,141.264c0.136-0.033,0.163-0.164,0.327-0.164c-0.805,0.94-1.678,1.813-2.618,2.619
			c0.063-0.22,0.286-0.261,0.327-0.49C490.888,142.641,491.542,141.987,492.129,141.264z"/>
		<path fill="#CFC6BE" d="M492.129,141.264c-0.587,0.724-1.241,1.377-1.964,1.965C490.751,142.506,491.405,141.85,492.129,141.264z"
			/>
		<path fill="#2B2929" d="M483.455,70.568c0.941,0.805,1.813,1.678,2.618,2.619C485.133,72.382,484.26,71.509,483.455,70.568z"/>
		<path fill="#2B2929" d="M476.418,148.137c1.2,0,2.4,0,3.602,0C479.2,148.41,477.243,148.41,476.418,148.137z"/>
		<path fill="#2B2929" d="M479.691,103.625c0.271,0.498,0.271,2.121,0,2.619c0-0.055,0-0.109,0-0.164
			C479.691,105.262,479.691,104.443,479.691,103.625z"/>
		<path fill="#817E7E" d="M479.691,106.079c0,0.056,0,0.109,0,0.164c-6.057,0-12.11,0-18.165,0c0-0.546,0-1.091,0-1.637
			c0.055,0,0.107,0,0.163,0c0,0.491,0,0.981,0,1.473c5.944,0,11.893,0,17.838,0C479.582,106.079,479.637,106.079,479.691,106.079z"
			/>
		<path fill="#CFC6BE" d="M479.691,103.625c0,0.818,0,1.637,0,2.455c-0.057,0-0.109,0-0.164,0c0-1.254,0-2.509,0-3.764
			c0.055,0,0.107,0,0.164,0C479.691,102.752,479.691,103.188,479.691,103.625z"/>
		<path fill="#817E7E" d="M479.691,102.316c-0.057,0-0.109,0-0.164,0c0-0.927,0-1.854,0-2.782
			C479.909,100.14,479.582,101.443,479.691,102.316z"/>
		<path fill="#2B2929" d="M473.637,163.029c0.929,0,1.854,0,2.781,0C475.866,163.303,474.188,163.303,473.637,163.029z"/>
		<path fill="#2B2929" d="M472.818,66.477c-1.094,0-2.185,0-3.273,0C470.261,66.204,472.108,66.204,472.818,66.477z"/>
		<path fill="#2B2929" d="M469.545,145.191c0.034,0.13,0.164,0.164,0.164,0.328c-0.777-0.644-1.486-1.353-2.128-2.129
			c0.137,0.035,0.164,0.164,0.327,0.164C468.386,144.169,468.932,144.715,469.545,145.191z"/>
		<path fill="#CFC6BE" d="M467.908,143.555c0.614,0.478,1.159,1.021,1.637,1.637C468.932,144.715,468.386,144.169,467.908,143.555z"
			/>
		<path fill="#CFC6BE" d="M462.018,118.354c0,2.127,0,4.255,0,6.382c-0.382-1.036-0.055-2.781-0.162-4.091
			C461.963,119.93,461.643,118.797,462.018,118.354z"/>
		<path fill="#CFC6BE" d="M461.854,98.388c-0.109,1.855,0.218,4.146-0.164,5.728c0-0.873,0-1.746,0-2.619
			C461.799,100.515,461.472,99.097,461.854,98.388z"/>
		<path fill="#2B2929" d="M461.689,104.116c0,0.164,0,0.327,0,0.491c-0.056,0-0.108,0-0.163,0c0.107-0.982-0.212-2.4,0.163-3.109
			C461.689,102.37,461.689,103.243,461.689,104.116z"/>
		<path fill="#CFC6BE" d="M459.727,157.793c0,0.055,0,0.109,0,0.163c-1.566-0.934-2.739-2.276-3.765-3.764
			C457.237,155.372,458.232,156.838,459.727,157.793z"/>
		<path fill="#817E7E" d="M458.908,70.732c-0.805,0.995-1.862,1.739-2.619,2.782c-0.054,0-0.108,0-0.163,0
			C456.876,72.409,457.803,71.482,458.908,70.732z"/>
		<path fill="#817E7E" d="M445.979,106.734c0,0.545,0,1.091,0,1.637c-0.057,0-0.109,0-0.163,0
			C445.918,107.873,445.604,106.959,445.979,106.734z"/>
		<path fill="#2B2929" d="M445.979,108.371c-0.104,0.553,0.212,1.521-0.163,1.801c0-0.601,0-1.201,0-1.801
			C445.87,108.371,445.925,108.371,445.979,108.371z"/>
		<path fill="#2B2929" d="M445.816,118.846c0.375,0.278,0.061,1.246,0.163,1.799c-0.139,0.027-0.156-0.062-0.163-0.162
			C445.816,119.936,445.816,119.389,445.816,118.846z"/>
		<path fill="#CFC6BE" d="M445.816,118.846c0,0.545,0,1.09,0,1.637c-0.375-0.602-0.057-1.909-0.164-2.781c0.055,0,0.107,0,0.164,0
			C445.816,118.081,445.816,118.463,445.816,118.846z"/>
		<path fill="#817E7E" d="M445.816,111.316c0,2.128,0,4.255,0,6.383c-0.057,0-0.109,0-0.164,0c0-2.128,0-4.255,0-6.383
			C445.707,111.316,445.762,111.316,445.816,111.316z"/>
		<path fill="#CFC6BE" d="M445.816,110.172c0,0.381,0,0.764,0,1.146c-0.057,0-0.109,0-0.164,0c0.107-0.927-0.22-2.291,0.164-2.945
			C445.816,108.971,445.816,109.571,445.816,110.172z"/>
		<path fill="#817E7E" d="M432.561,139.955c0.402,0.729,0.041,2.114-0.162,2.782C432.295,141.653,432.684,141.059,432.561,139.955z"
			/>
		<path d="M432.561,139.955c0.123,1.104-0.266,1.698-0.162,2.782c-0.438,5.455-2.447,9.335-5.073,12.601c-0.054,0-0.108,0-0.163,0
			c-0.777,1.241-1.984,2.053-2.946,3.109c-3.066,2.496-6.764,4.363-12.107,4.582c-0.873,0-1.746,0-2.618,0
			c-7.229-0.463-11.776-3.605-16.201-6.873c-0.825-1.166-0.491-6.328-0.491-9.001c0-3.472,0-6.498,0-9
			c0.136-0.027,0.156,0.062,0.163,0.163c1.078,1.214,2.224,2.359,3.438,3.438c3.096,2.413,5.933,5.086,10.638,5.892
			c0.661,0.271,2.448,0.271,3.107,0c1.427-0.155,2.341-0.824,3.438-1.31c0.613-0.478,1.159-1.021,1.637-1.637
			c3.566-4.943-0.482-12.915-2.944-17.348c-2.218-3.995-4.932-7.563-7.036-10.965c-4.851-7.828-10.394-15.545-11.292-25.855
			c-0.104-0.552,0.211-1.521-0.164-1.8c0-0.6,0-1.2,0-1.8c0.375-0.28,0.062-1.248,0.164-1.8c1.459-10.76,7.037-17.401,18.001-18.656
			c1.037,0,2.071,0,3.107,0c5.846,0.32,9.614,2.714,13.257,5.236c0.79,0.668,0.49,4.624,0.49,7.528c0,3.348,0.35,6.144,0,7.692
			c-0.055,0.238-0.156-0.021-0.328,0c-3.518-2.428-6.775-5.107-11.944-5.892c-0.554-0.272-2.229-0.272-2.781,0
			c-2.98,0.402-4.59,2.175-5.073,5.073c-0.271,0.661-0.271,2.448,0,3.109c2.339,8.68,7.646,15.13,12.273,21.929
			c1.971,2.891,3.894,5.816,5.728,9C429.765,125.54,432.547,131.397,432.561,139.955z"/>
		<path fill="#CFC6BE" d="M428.96,72.204c0.382,2.236,0.055,5.182,0.164,7.691c-0.103,2.298,0.211,5.885-0.164,7.364
			C428.96,82.241,428.96,77.223,428.96,72.204z"/>
		<path fill="#2B2929" d="M428.96,72.204c0,5.019,0,10.037,0,15.056c-0.279,0.007-0.423-0.123-0.491-0.327
			c0.171-0.021,0.273,0.238,0.328,0c0.348-1.548,0-4.344,0-7.692c0-2.904,0.3-6.859-0.491-7.528
			C428.64,71.761,428.626,72.157,428.96,72.204z"/>
		<path fill="#817E7E" d="M427.16,155.338c0.055,0,0.109,0,0.163,0c-0.845,1.229-1.882,2.264-3.109,3.109
			C425.176,157.391,426.383,156.579,427.16,155.338z"/>
		<path fill="#2B2929" d="M416.522,81.041c-0.929,0-1.854,0-2.781,0C414.293,80.769,415.971,80.769,416.522,81.041z"/>
		<path fill="#2B2929" d="M415.05,66.477c-1.036,0-2.071,0-3.107,0C412.604,66.204,414.389,66.204,415.05,66.477z"/>
		<path fill="#2B2929" d="M415.214,144.701c-0.478,0.613-1.021,1.159-1.637,1.637C414.055,145.723,414.6,145.18,415.214,144.701z"/>
		<path fill="#2B2929" d="M409.486,163.029c0.872,0,1.745,0,2.618,0C411.606,163.303,409.983,163.303,409.486,163.029z"/>
		<path fill="#817E7E" d="M407.031,147.646c1.036,0,2.073,0,3.107,0C409.479,147.919,407.692,147.919,407.031,147.646z"/>
		<path fill="#2B2929" d="M408.668,86.115c0,1.037,0,2.073,0,3.109C408.395,88.562,408.395,86.776,408.668,86.115z"/>
		<path fill="#2B2929" d="M396.066,141.264c0.062,0.219,0.287,0.26,0.325,0.489c-1.213-1.075-2.356-2.223-3.437-3.437
			c0.335,0.048,0.321,0.441,0.655,0.49C394.362,139.696,395.181,140.514,396.066,141.264z"/>
		<path fill="#CFC6BE" d="M393.612,138.809c0.886,0.75,1.704,1.567,2.454,2.455C395.181,140.514,394.362,139.696,393.612,138.809z"
			/>
		<path fill="#2B2929" d="M393.939,85.133c-0.104,0.552,0.211,1.521-0.164,1.8c0-0.164,0-0.328,0-0.491
			C393.878,86.053,393.571,85.255,393.939,85.133z"/>
		<path fill="#2B2929" d="M393.775,88.733c0.375,0.28,0.062,1.248,0.164,1.8c-0.368-0.123-0.063-0.92-0.164-1.309
			C393.775,89.06,393.775,88.896,393.775,88.733z"/>
		<path fill="#817E7E" d="M393.775,88.733c0,0.164,0,0.328,0,0.491c-0.272-0.552-0.272-2.23,0-2.782c0,0.164,0,0.327,0,0.491
			C393.775,87.533,393.775,88.133,393.775,88.733z"/>
		<path fill="#817E7E" d="M393.612,138.809c-0.334-0.047-0.32-0.442-0.655-0.49c-0.007-0.102-0.027-0.19-0.163-0.163
			c0.027-0.138-0.062-0.157-0.164-0.164c0,5.837,0,11.674,0,17.511c-0.382-5.51-0.055-11.729-0.163-17.511
			C392.916,137.657,393.298,138.489,393.612,138.809z"/>
		<path fill="#2B2929" d="M392.63,137.991c0.104,0.007,0.191,0.026,0.164,0.164c0,2.502,0,5.528,0,9
			c0,2.673-0.334,7.835,0.491,9.001c-0.287-0.15-0.505-0.368-0.655-0.654C392.63,149.665,392.63,143.828,392.63,137.991z"/>
		<path fill="#817E7E" d="M377.901,28.837c0.313-0.054,0.23,2.148-0.163,2.455C377.752,30.433,378.011,29.819,377.901,28.837z"/>
		<path d="M377.901,28.837c0.107,0.982-0.149,1.596-0.163,2.455c-0.594,5.728-7.732,9.853-13.747,6.546
			c-7.404-4.071-5.318-16.72,3.765-17.51C373.136,19.857,377.145,23.199,377.901,28.837z"/>
		<path fill="#CFC6BE" d="M376.593,68.931c0.654,29.811,0.327,61.573,0.163,91.807c-5.398,0-10.801,0-16.201,0
			c-0.163-30.029-0.488-61.777,0.164-91.807c-0.271,30.166-0.271,61.478,0,91.644c5.291,0,10.582,0,15.874,0
			C376.865,130.409,376.865,99.097,376.593,68.931z"/>
		<path fill="#2B2929" d="M376.593,68.931c0.272,30.166,0.272,61.478,0,91.644C376.593,130.027,376.593,99.479,376.593,68.931z"/>
		<path fill="#817E7E" d="M376.593,68.768c0,0.054,0,0.109,0,0.164c-5.292,0-10.583,0-15.874,0c0-0.055,0-0.109,0-0.164
			C366.01,68.768,371.301,68.768,376.593,68.768z"/>
		<path d="M376.593,68.931c0,30.548,0,61.096,0,91.644c-5.292,0-10.583,0-15.874,0c0-30.548,0-61.096,0-91.644
			C366.01,68.931,371.301,68.931,376.593,68.931z"/>
		<path fill="#2B2929" d="M360.719,68.931c0,30.548,0,61.096,0,91.644C360.446,130.409,360.446,99.097,360.719,68.931z"/>
		<path d="M350.736,69.913c0,0.272,0,0.545,0,0.818c-0.375,0.225-0.063,1.139-0.164,1.636c-0.238,4.671-0.627,9.191-0.981,13.747
			c-0.628,0.375-1.526-0.607-2.455-0.982c-1.009-0.402-2.093-0.573-3.107-0.818c-0.498-0.272-2.121-0.272-2.618,0
			c-1.78,0.239-2.939,1.098-4.255,1.8c-0.777,0.641-1.487,1.35-2.127,2.127c-5.735,8.612-8.969,19.728-9.819,33.222
			c-0.382,12.709-0.055,26.129-0.164,39.111c-5.346,0-10.691,0-16.038,0c0-30.548,0-61.096,0-91.644c5.347,0,10.692,0,16.038,0
			c0.027,7.105-0.041,14.872,0,22.256c0.007,0.797-0.396,2.127,0.491,2.618c0.034-0.129,0.164-0.164,0.164-0.327
			c2.312-6.519,4.396-17.204,8.673-22.42c1.555-1.896,3.839-3.307,7.037-3.601c0.764,0,1.525,0,2.291,0
			C346.774,67.547,348.69,68.795,350.736,69.913z"/>
		<path fill="#2B2929" d="M350.736,70.732c-0.104,0.498,0.211,1.411-0.164,1.636C350.675,71.87,350.361,70.956,350.736,70.732z"/>
		<path fill="#2B2929" d="M344.026,84.314c-0.873,0-1.746,0-2.618,0C341.906,84.042,343.529,84.042,344.026,84.314z"/>
		<path fill="#2B2929" d="M343.699,67.458c-0.766,0-1.527,0-2.291,0C341.797,67.186,343.311,67.186,343.699,67.458z"/>
		<path fill="#2B2929" d="M337.153,86.115c-0.027,0.129-0.164,0.164-0.164,0.327c-0.668,0.532-1.271,1.132-1.8,1.8
			c-0.057,0-0.109,0-0.164,0C335.666,87.465,336.376,86.756,337.153,86.115z"/>
		<path fill="#CFC6BE" d="M336.99,86.442c-0.532,0.668-1.132,1.269-1.8,1.8C335.721,87.574,336.321,86.973,336.99,86.442z"/>
		<path fill="#2B2929" d="M325.698,93.479c0,0.164-0.129,0.198-0.164,0.327c-0.887-0.491-0.484-1.821-0.491-2.618
			c-0.041-7.385,0.027-15.151,0-22.256c0.491,7.855-0.164,16.856,0.328,24.711C325.507,93.615,325.534,93.479,325.698,93.479z"/>
		<path fill="#2B2929" d="M325.207,121.463c0,13.037,0,26.074,0,39.112c-0.055,0-0.109,0-0.164,0
			C325.152,147.592,324.825,134.174,325.207,121.463z"/>
		<path fill="#CFC6BE" d="M325.043,160.575c0.055,0,0.109,0,0.164,0c-5.019,0.272-11.183,0.272-16.202,0
			C314.352,160.575,319.697,160.575,325.043,160.575z"/>
		<path fill="#817E7E" d="M325.043,68.931c-5.346,0-10.691,0-16.038,0c0,30.548,0,61.096,0,91.644
			c-0.3-26.981-0.164-57.564-0.164-85.916c0-1.302-0.307-5.359,0-5.728c0.561-0.668,7.092-0.164,8.185-0.164
			C320.345,68.768,322.827,68.638,325.043,68.931z"/>
		<path fill="#817E7E" d="M292.15,112.463c0,2.399,0,4.801,0,7.2c-0.055,0-0.109,0-0.164,0c0-2.399,0-4.801,0-7.2
			C292.04,112.463,292.095,112.463,292.15,112.463z"/>
		<path fill="#CFC6BE" d="M291.986,110.498c0.375,0.334,0.061,1.357,0.164,1.963c-0.055,0-0.109,0-0.164,0c0-0.162,0-0.326,0-0.49
			C291.986,111.48,291.986,110.989,291.986,110.498z"/>
		<path fill="#CFC6BE" d="M292.15,119.663c-0.103,0.606,0.211,1.629-0.164,1.963c0-0.489,0-0.981,0-1.473c0-0.163,0-0.327,0-0.49
			C292.04,119.663,292.095,119.663,292.15,119.663z"/>
		<path fill="#2B2929" d="M291.986,121.626c0.027,0.138-0.062,0.157-0.164,0.164c0.103-0.498-0.211-1.411,0.164-1.637
			C291.986,120.645,291.986,121.137,291.986,121.626z"/>
		<path d="M291.986,119.663c0,0.163,0,0.327,0,0.49c-0.375,0.226-0.062,1.139-0.164,1.637c-0.62,14.162-4.221,25.345-10.801,33.548
			c-0.054,0-0.109,0-0.164,0c-0.92,1.426-2.284,2.407-3.437,3.603c-2.769,2.141-5.953,3.864-10.637,4.091c-0.709,0-1.418,0-2.127,0
			c-3.634-0.129-5.98-1.548-8.183-3.107c0-0.057,0-0.108,0-0.164c-0.361-0.186-0.545-0.545-0.981-0.654
			c-0.586-0.723-1.241-1.377-1.964-1.963c-0.3-0.409-0.498-0.922-0.982-1.146c-0.048-0.335-0.443-0.32-0.491-0.654
			c0.068-0.267-0.607-0.553-0.654-0.164c-0.273,17.783-0.273,36.713,0,54.496c0,0.053,0,0.107,0,0.162s0,0.109,0,0.164
			c-5.346,0-10.692,0-16.038,0c0-47.021,0-94.044,0-141.065c5.291,0,10.583,0,15.874,0c0.054,0,0.109,0,0.164,0
			c0,0.055,0,0.109,0,0.164c-0.273,1.691-0.273,4.528,0,6.219c0,0.055,0,0.109,0,0.164c1.016-0.498,1.739-1.998,2.618-2.946
			c2.421-2.618,5.312-4.685,10.31-5.073c0.873,0,1.746,0,2.618,0c4.603,0.198,7.474,2.127,10.146,4.255
			c0.859,0.996,1.786,1.923,2.782,2.782c7.18,8.749,11.224,20.633,11.946,35.84c0.103,0.498-0.211,1.411,0.164,1.635
			c0,0.164,0,0.328,0,0.492C291.986,114.862,291.986,117.262,291.986,119.663z M275.457,120.153c0.273-2.454,0.273-6.056,0-8.509
			c0-0.602,0-1.2,0-1.801c-0.102-0.498,0.211-1.412-0.164-1.637c-0.593-8.571-1.95-16.378-5.891-21.602
			c-0.532-0.668-1.132-1.268-1.8-1.8c-2.468-2.428-9.117-2.925-11.783-0.328c-0.614,0.478-1.159,1.023-1.637,1.637
			c-0.784,1.445-2.045,2.427-2.618,4.091c-0.239,0.027-0.15,0.396-0.164,0.654c-0.273,15.765-0.273,32.676,0,48.439
			c0.675,1.396,1.698,2.446,2.618,3.601c0.484,0.935,1.269,1.567,2.127,2.128c1.398,1.166,2.925,2.201,5.073,2.617
			c0.607,0.271,2.339,0.271,2.946,0c2.073-0.299,3.58-1.18,4.746-2.291c4.562-4.336,5.755-13.807,6.382-21.766
			c0.375-0.226,0.062-1.14,0.164-1.637C275.457,121.354,275.457,120.754,275.457,120.153z"/>
		<path fill="#2B2929" d="M291.986,110.498c0,0.491,0,0.982,0,1.473c-0.375-0.226-0.062-1.139-0.164-1.637
			C291.959,110.307,291.979,110.396,291.986,110.498z"/>
		<path fill="#CFC6BE" d="M280.858,155.338c0.055,0,0.109,0,0.164,0c-0.92,1.479-2.121,2.68-3.6,3.603
			C278.574,157.745,279.937,156.764,280.858,155.338z"/>
		<path fill="#2B2929" d="M277.094,71.713c0.996,0.859,1.923,1.787,2.782,2.782C278.88,73.636,277.953,72.709,277.094,71.713z"/>
		<path fill="#2B2929" d="M275.457,111.645c0.273,2.455,0.273,6.055,0,8.509c0-0.108,0-0.218,0-0.327c0-2.618,0-5.236,0-7.855
			C275.457,111.862,275.457,111.753,275.457,111.645z"/>
		<path fill="#817E7E" d="M275.457,120.153c0,0.601,0,1.2,0,1.801c-0.055,0-0.109,0-0.164,0c0-0.71,0-1.419,0-2.128
			c0.055,0,0.109,0,0.164,0C275.457,119.936,275.457,120.045,275.457,120.153z"/>
		<path fill="#CFC6BE" d="M275.457,111.971c0,2.619,0,5.237,0,7.855c-0.055,0-0.109,0-0.164,0c0-2.618,0-5.236,0-7.855
			C275.349,111.971,275.403,111.971,275.457,111.971z"/>
		<path fill="#817E7E" d="M275.457,111.645c0,0.107,0,0.218,0,0.326c-0.055,0-0.109,0-0.164,0c0-0.709,0-1.418,0-2.127
			c0.055,0,0.109,0,0.164,0C275.457,110.444,275.457,111.044,275.457,111.645z"/>
		<path fill="#2B2929" d="M275.457,109.844c-0.055,0-0.109,0-0.164,0c0-0.545,0-1.091,0-1.637
			C275.669,108.432,275.355,109.346,275.457,109.844z"/>
		<path fill="#2B2929" d="M275.294,121.954c0.055,0,0.109,0,0.164,0c-0.102,0.497,0.211,1.411-0.164,1.636
			C275.294,123.045,275.294,122.499,275.294,121.954z"/>
		<path fill="#2B2929" d="M267.603,84.805c0.668,0.532,1.268,1.132,1.8,1.8C268.734,86.074,268.134,85.473,267.603,84.805z"/>
		<path fill="#2B2929" d="M266.948,67.458c-0.873,0-1.746,0-2.618,0C264.827,67.186,266.45,67.186,266.948,67.458z"/>
		<path fill="#2B2929" d="M264.657,163.029c0.709,0,1.418,0,2.127,0C266.45,163.303,264.991,163.303,264.657,163.029z"/>
		<path fill="#817E7E" d="M261.22,147.646c0.982,0,1.964,0,2.946,0C263.559,147.919,261.827,147.919,261.22,147.646z"/>
		<path fill="#CFC6BE" d="M256.474,159.758c0,0.056,0,0.107,0,0.162c-1.609-1.009-2.918-2.318-3.927-3.927
			c0.484,0.226,0.682,0.735,0.982,1.146c0.586,0.725,1.241,1.377,1.964,1.963C255.929,159.211,256.113,159.572,256.474,159.758z"/>
		<path fill="#2B2929" d="M255.82,84.478c-0.478,0.614-1.023,1.159-1.637,1.637C254.661,85.501,255.206,84.955,255.82,84.478z"/>
		<path fill="#817E7E" d="M254.02,142.9c0.777,0.642,1.486,1.351,2.127,2.128C255.288,144.469,254.504,143.835,254.02,142.9z"/>
		<path fill="#2B2929" d="M253.529,157.139c0.723,0.586,1.377,1.238,1.964,1.963C254.77,158.516,254.115,157.861,253.529,157.139z"
			/>
		<path fill="#817E7E" d="M251.401,155.176c0.047-0.39,0.723-0.104,0.654,0.162c-0.586-0.563-0.518,0.443-0.491,0.982
			c0,0.6,0,1.199,0,1.8c0,1.146,0,2.291,0,3.437c0,2.291,0,4.582,0,6.873c0,4.639,0,9.273,0,13.91
			c-0.109,9.11,0.218,18.656-0.164,27.493c0-0.055,0-0.108,0-0.163C251.401,191.506,251.401,173.34,251.401,155.176z"/>
		<path fill="#817E7E" d="M251.565,90.206c-0.109,16.31,0.218,33.058-0.164,49.095c0-16.146,0-32.291,0-48.438
			C251.415,90.601,251.326,90.233,251.565,90.206z"/>
		<path fill="#817E7E" d="M251.401,68.931c0.272,1.636,0.272,4.418,0,6.055c0-1.963,0-3.927,0-5.891
			C251.401,69.04,251.401,68.986,251.401,68.931z"/>
		<path fill="#2B2929" d="M251.401,155.176c0,18.164,0,36.33,0,54.494C251.128,191.887,251.128,172.958,251.401,155.176z"/>
		<path fill="#2B2929" d="M251.401,90.86c0,16.147,0,32.294,0,48.44C251.128,123.536,251.128,106.625,251.401,90.86z"/>
		<path fill="#2B2929" d="M251.401,74.986c0,0.109,0,0.218,0,0.328c-0.273-1.691-0.273-4.528,0-6.219
			C251.401,71.059,251.401,73.023,251.401,74.986z"/>
		<path fill="#817E7E" d="M251.238,68.931c-5.292,0-10.583,0-15.874,0C240.273,68.658,246.328,68.658,251.238,68.931z"/>
		<path fill="#2B2929" d="M235.364,68.931c0,47.021,0,94.043,0,141.065C235.091,163.356,235.091,115.571,235.364,68.931z"/>
		<path d="M225.708,70.077c-0.259,4.269-0.825,8.23-0.982,12.601c-0.375,0.225-0.062,1.139-0.164,1.636
			c0.129,0.839-0.232,1.187-0.164,1.964c-1.862-0.648-3.198-1.821-5.564-1.964c-0.498-0.272-2.121-0.272-2.618,0
			c-7.344,1.678-9.921,9.594-12.274,16.692c-1.923,5.81-3.396,12.11-3.764,18.328c-0.382,0.655-0.055,2.02-0.164,2.946
			c0,0.055,0,0.108,0,0.163c-0.382,12.383-0.055,25.475-0.164,38.131c-5.292,0-10.583,0-15.874,0c0-30.548,0-61.096,0-91.644
			c5.291,0,10.583,0,15.874,0c0.027,7.105-0.041,14.872,0,22.256c0.007,0.797-0.396,2.127,0.491,2.618
			c0.034-0.129,0.164-0.164,0.164-0.327c0.034-0.13,0.164-0.164,0.164-0.328c0.887-3.675,2.516-8.407,4.091-12.601
			c2.312-6.15,4.146-12.41,11.619-13.092c0.764,0,1.527,0,2.291,0C221.719,67.629,223.833,68.734,225.708,70.077z"/>
		<path fill="#2B2929" d="M224.727,82.678c-0.103,0.498,0.211,1.411-0.164,1.636C224.665,83.817,224.352,82.903,224.727,82.678z"/>
		<path fill="#2B2929" d="M218.835,84.314c-0.873,0-1.746,0-2.618,0C216.714,84.042,218.337,84.042,218.835,84.314z"/>
		<path fill="#2B2929" d="M218.671,67.458c-0.764,0-1.527,0-2.291,0C216.769,67.186,218.283,67.186,218.671,67.458z"/>
		<path fill="#CFC6BE" d="M200.336,93.322c0.034-0.137,0.184-0.15,0.334-0.171c0,0.164-0.129,0.198-0.164,0.328
			c-0.818,0.45-0.491-4.392-0.491-5.892c0-6.123,0.129-13.467-0.164-18.656c0-0.055,0-0.109,0-0.164
			C200.718,76.248,199.756,85.555,200.336,93.322z M200.336,93.342c-0.007,0.034-0.007,0.082,0.007,0.137
			C200.336,93.431,200.336,93.39,200.336,93.342z"/>
		<path fill="#2B2929" d="M200.016,87.587c0,1.5-0.327,6.341,0.491,5.892c0,0.164-0.129,0.198-0.164,0.327
			c-0.886-0.491-0.484-1.821-0.491-2.618c-0.041-7.385,0.027-15.151,0-22.256C200.145,74.12,200.016,81.464,200.016,87.587z"/>
		<path fill="#FFFFFF" d="M200.336,93.342c0,0.048,0,0.089,0.007,0.137C200.329,93.424,200.329,93.376,200.336,93.342z"/>
		<path fill="#CFC6BE" d="M200.179,122.281c0,12.766,0,25.529,0,38.294c-5.127,0.272-11.401,0.272-16.528,0
			c0.218-30.385-0.437-61.716,0.327-91.807c0,0.054,0,0.109,0,0.164c-0.273,30.166-0.273,61.478,0,91.644c5.291,0,10.583,0,15.874,0
			c0.382-12.383,0.054-25.475,0.164-38.131c0-0.055,0-0.107,0-0.163C200.07,122.281,200.124,122.281,200.179,122.281z"/>
		<path fill="#817E7E" d="M200.179,119.335c0,0.982,0,1.964,0,2.946c-0.055,0-0.109,0-0.164,0
			C200.124,121.354,199.797,119.99,200.179,119.335z"/>
		<path fill="#2B2929" d="M200.016,122.444c-0.109,12.655,0.218,25.748-0.164,38.131
			C199.961,147.919,199.634,134.827,200.016,122.444z"/>
		<path fill="#817E7E" d="M199.852,68.768c0,0.054,0,0.109,0,0.164c-5.292,0-10.583,0-15.874,0c0-0.055,0-0.109,0-0.164
			C189.269,68.768,194.561,68.768,199.852,68.768z"/>
		<path fill="#2B2929" d="M183.978,68.931c0,30.548,0,61.096,0,91.644C183.705,130.409,183.705,99.097,183.978,68.931z"/>
		<path fill="#817E7E" d="M173.177,68.768c0.3,19.856,0.164,41.485,0.164,62.35c0,3.007,0.259,7.03-0.327,8.837
			c0.382-23.293,0.054-47.294,0.164-70.86c-4.037-0.382-8.783-0.055-13.092-0.164c0-0.055,0-0.109,0-0.164
			C164.449,68.768,168.813,68.768,173.177,68.768z"/>
		<path fill="#2B2929" d="M173.177,69.095c-4.364,0-8.728,0-13.092,0c0-0.055,0-0.109,0-0.164
			C164.395,69.04,169.141,68.713,173.177,69.095z"/>
		<path d="M160.085,69.095c4.364,0,8.728,0,13.092,0c-0.109,23.565,0.218,47.567-0.164,70.86
			c-16.256,5.639-32.321,11.953-49.095,17.674c-2.141,0.729-5.298,2.51-7.037,2.455c-1.868-0.055-4.964-1.848-7.2-2.617
			c-16.774-5.756-33.541-12.009-50.076-17.839c0-19.427,0-41.649,0-61.859c0-0.559-0.109-2.489-0.15-4.384
			c0-0.143,0-0.293-0.007-0.437c0.007-0.525,0.007-1.05,0-1.575c0-0.034,0-0.068,0-0.102c0.027-1.132,0.116-2.005,0.32-2.175
			c0.266-0.218,2.229,0,3.109,0c3.471,0,7.078,0,9.655,0c0.218,20.463-0.437,41.703,0.327,61.533
			c12.703,4.615,25.686,8.938,38.785,13.746c1.746,0.641,4.064,1.943,5.4,1.965c1.275,0.021,3.866-1.207,5.564-1.802
			c12.499-4.364,24.608-9.28,37.148-13.583c0.28,0.063,0.307-0.129,0.328-0.326c0.272-12.873,0.272-26.894,0-39.768
			c0-0.054,0-0.109,0-0.164c0.272-6.709,0.272-14.564,0-21.274C160.085,69.313,160.085,69.204,160.085,69.095z"/>
		<path fill="#2B2929" d="M160.085,69.422c0.272,6.71,0.272,14.565,0,21.274C160.085,83.605,160.085,76.514,160.085,69.422z"/>
		<path fill="#2B2929" d="M160.085,90.86c0.272,12.874,0.272,26.894,0,39.767C160.085,117.372,160.085,104.116,160.085,90.86z"/>
		<path fill="#CFC6BE" d="M160.085,90.86c0,13.256,0,26.512,0,39.767c-0.021,0.198-0.048,0.389-0.328,0.327
			c0.491-20.292-0.157-41.723,0.328-62.022c0,0.055,0,0.109,0,0.164c0,0.109,0,0.218,0,0.327c0,7.092,0,14.183,0,21.274
			C160.085,90.751,160.085,90.806,160.085,90.86z"/>
		<path fill="#817E7E" d="M156.648,78.587c0.273,16.201,0.273,33.547,0,49.749C156.648,111.753,156.648,95.17,156.648,78.587z"/>
		<path fill="#2B2929" d="M156.648,128.336c0,0.219,0,0.438,0,0.654c-12.928,5.236-26.695,9.635-39.93,14.564
			c-11.258-4.052-23.409-8.488-35.348-12.766c-1.623-0.58-4.262-1.24-4.909-2.128c0-16.474,0-32.948,0-49.422
			c0-0.109,0-0.218,0-0.327c3.129-1.418,7.043-2.769,10.801-4.091c1.132-0.396,3.116-1.316,3.437-0.164
			c0.437,1.575-4.814,2.789-5.728,3.109c-2.496,0.88-4.378,1.405-6.382,2.291c-0.055,0-0.109,0-0.164,0
			c0.109,15.819-0.218,32.076,0.164,47.623c10.691,3.94,22.154,8.136,33.384,12.108c1.588,0.565,3.586,1.638,4.746,1.638
			c1.746,0.008,4.568-1.629,6.382-2.291c5.455-1.983,10.474-3.554,16.038-5.563c0.907-0.328,2.148-0.628,2.782-1.476
			c0.191,0.31,0.47,0.443,0.491-0.162c4.125-0.683,8.278-2.74,12.274-4.092c-0.109-16.093,0.218-32.621-0.164-48.438
			c0-0.055,0-0.109,0-0.164c-3.955-1.295-7.978-2.577-12.273-4.091c-0.907-0.321-3.464-0.805-3.273-2.127
			c0.205-1.432,2.979-0.123,4.255,0.327c4.377,1.541,9.444,3.157,13.419,4.91c0,0.109,0,0.218,0,0.327
			C156.648,95.17,156.648,111.753,156.648,128.336z"/>
		<path fill="#CFC6BE" d="M154.521,79.405c0.382,15.819,0.055,32.348,0.164,48.438C154.303,112.025,154.63,95.497,154.521,79.405z"
			/>
		<path fill="#CFC6BE" d="M151.576,84.805c0.272,12.765,0.272,26.675,0,39.439C151.576,111.098,151.576,97.952,151.576,84.805z"/>
		<path fill="#FFFFFF" d="M151.576,84.805c0,13.146,0,26.292,0,39.439c-0.737,1.848-5.066,3.777-6.546,1.8
			c-0.109-7.581,0.218-15.601-0.164-22.911c0.021-1.084-1.984-1.084-1.963,0c-0.382,7.91-0.055,16.529-0.164,24.71
			c-0.218,0.98-1.391,1.01-2.127,1.474c-0.231-0.015-0.463-0.027-0.491,0.163c-3.334,1.098-5.537,1.916-8.837,3.109
			c-0.743,0.266-2.223,1.021-3.109,0.489c-0.968-0.58-0.655-3.955-0.655-5.892c0-4.768,0-7.885,0-13.094
			c0-2.439,0.648-6.478-1.636-5.398c-0.894,1.589-0.491,3.771-0.491,5.729c0,6.377,0,13.045,0,19.146
			c-0.416,1.771-6.798,4.695-7.691,1.8c0-13.201,0-26.401,0-39.603c0.511-1.398,2.353-1.466,3.6-2.127c0.055,0,0.109,0,0.164,0
			c1.568-0.471,3.504-1.295,5.891-2.127c1.916-0.668,5.694-2.734,6.546-0.655c0.109,8.837-0.218,18.11,0.164,26.675
			c-0.021,1.084,1.984,1.084,1.964,0c0.382-9.164,0.055-19.038,0.164-28.475c0.975-1.534,5.278-2.455,7.528-3.273
			C146.83,84.655,150.668,82.241,151.576,84.805z"/>
		<path fill="#CFC6BE" d="M144.866,103.134c0.382,7.31,0.055,15.329,0.164,22.911C144.648,118.735,144.975,110.717,144.866,103.134z
			"/>
		<path d="M137.829,77.932c2.884-2.1,6.484,0.218,5.728,3.601c-0.866,3.886-7.18,2.557-6.709-1.473
			C136.949,79.166,137.427,79.037,137.829,77.932z"/>
		<path fill="#CFC6BE" d="M142.902,103.134c-0.109,8.182,0.218,16.801-0.164,24.709C142.848,119.663,142.52,111.044,142.902,103.134
			z"/>
		<path d="M142.411,131.936c-0.021,0.605-0.3,0.472-0.491,0.164c-0.089-0.129-0.17-0.268-0.164-0.49
			c-0.177-0.859-0.702-1.371-1.309-1.801c-0.143-0.074-0.293-0.145-0.327-0.327c1.03-0.212,1.063,0.573,1.636,0.817
			C141.947,130.873,142.397,131.186,142.411,131.936z"/>
		<path fill="#2B2929" d="M140.611,129.318c0.6,0.107,0.818,0.605,1.146,0.98c-0.573-0.244-0.606-1.029-1.636-0.817
			C140.147,129.291,140.379,129.305,140.611,129.318z"/>
		<path fill="#2B2929" d="M141.756,131.609c-0.395-0.643-0.797-1.275-1.309-1.801C141.054,130.238,141.579,130.75,141.756,131.609z"
			/>
		<path d="M138.156,61.567c3.525,5.332-1.152,11.435-4.255,14.237c0.068,0.586,0.437,0.873,0.327,1.637c0,0.654,0,1.309,0,1.964
			c-0.375,3.552-2.509,5.346-5.564,6.218c-0.375,2.134-0.225,4.794-1.636,5.892c0.034-1.548,0.716-2.448,0.654-4.091
			c-0.313-0.396-0.102-1.316-0.164-1.964c-0.164,0-0.327,0-0.491,0c-1.916-0.539-3.417-1.493-3.764-3.6c0-0.927,0-1.854,0-2.782
			c0.164-1.254,0.586-2.25,1.146-3.109c0.668-0.532,1.269-1.132,1.8-1.8c0.6-0.491,1.582-0.607,2.455-0.818
			c0.894-0.15,1.568,0.484,1.8-0.327c1.793-2.844,3.641-5.632,4.255-9.655c0.273-0.28,0.273-1.685,0-1.964
			c-0.007-0.812-0.893-0.743-1.473-0.982c-0.941-0.375-2.482-0.409-3.273,0.164c-1.234,0.784-2.359,1.677-3.764,2.291
			c-0.668,0.532-1.268,1.132-1.8,1.8c-1.384,2.257-3.471,5.237-2.945,8.346c0,0.818,0,1.636,0,2.455
			c-0.887,2.714-1.616,5.578-5.237,5.564c0,0.109,0,0.218,0,0.327c-0.259,0.45-0.334,1.084-0.328,1.8
			c-0.272,0.334-0.272,1.793,0,2.127c0.014,0.259-0.082,0.627,0.164,0.655c1.309,3.062,3.662,5.066,5.4,7.691
			c-0.055,0-0.109,0-0.164,0c-1.452-0.416-2.264-2.134-3.273-3.437c-1.213-1.568-2.455-2.884-2.782-5.237c0-0.382,0-0.764,0-1.146
			c0.272-0.177,0.272-1.459,0-1.637c-0.252-0.239-0.144-0.838-0.164-1.309c-5.721-1.541-4.112-12.724,2.945-11.619
			c1.159-2.496,1.848-5.462,3.764-7.201c0.798-0.838,1.616-1.657,2.455-2.455c1.262-1.03,2.693-1.889,4.91-1.964
			c1.091,0,2.182,0,3.273,0c1.793,0.334,3.041,1.214,4.091,2.291C136.997,60.544,137.542,61.09,138.156,61.567z"/>
		<path fill="#2B2929" d="M136.52,59.93c0.613,0.478,1.159,1.023,1.636,1.637C137.542,61.09,136.997,60.544,136.52,59.93z"/>
		<path d="M136.192,83.496c1.909,0.846-1.937,3.689-1.8,0.982C134.426,83.837,135.251,83.08,136.192,83.496z"/>
		<path fill="#CFC6BE" d="M136.192,89.06c-0.109,9.437,0.218,19.311-0.164,28.475C136.138,108.098,135.811,98.224,136.192,89.06z"/>
		<path fill="#2B2929" d="M134.72,61.404c0.273,0.279,0.273,1.684,0,1.964C134.72,62.713,134.72,62.058,134.72,61.404z"/>
		<path fill="#CFC6BE" d="M134.393,77.605c0.272,0.177,0.272,1.459,0,1.636C134.393,78.696,134.393,78.15,134.393,77.605z"/>
		<path fill="#2B2929" d="M134.393,79.241c0.027,0.137-0.062,0.157-0.164,0.164c0-0.655,0-1.31,0-1.964
			c0.137-0.027,0.157,0.061,0.164,0.164C134.393,78.15,134.393,78.696,134.393,79.241z"/>
		<path fill="#CFC6BE" d="M133.901,90.86c0.382,8.564,0.055,17.838,0.164,26.675C133.683,108.971,134.011,99.698,133.901,90.86z"/>
		<path fill="#817E7E" d="M133.247,60.422c-1.091,0.055-2.435-0.143-3.273,0.164C130.765,60.012,132.306,60.047,133.247,60.422z"/>
		<path fill="#2B2929" d="M132.429,57.639c-1.091,0-2.182,0-3.273,0c-0.027-0.136,0.061-0.157,0.164-0.164c0.982,0,1.964,0,2.946,0
			C132.401,57.449,132.422,57.537,132.429,57.639z"/>
		<path fill="#CFC6BE" d="M132.265,57.476c-0.982,0-1.964,0-2.946,0C129.926,57.203,131.658,57.203,132.265,57.476z"/>
		<path d="M130.956,66.477c0.15,0.968-0.245,1.391-0.982,1.473C128.508,67.499,129.81,65.181,130.956,66.477z"/>
		<path fill="#817E7E" d="M130.465,73.023c-0.232,0.811-0.907,0.177-1.8,0.327C128.331,72.948,130.26,73.425,130.465,73.023z"/>
		<path d="M129.81,47.166c-0.982,0.777,0.252,1.807,0.164,3.109c-1.711,0.634-3.3,1.391-5.236,1.8
			c-0.73-0.695-0.641-2.687-1.8-2.455c-0.593-3.314-4.528-2.918-3.928-7.691c0.048-0.402,0.17-0.839,0.491-1.473
			c-0.307-0.784-0.519-1.664-0.982-2.291c0.934-0.532-0.007-2.025-0.327-2.782c1.575-0.989,3.566-1.562,5.564-2.127
			c0.198,0.948,0.805,1.486,0.818,2.618c0.464,0.136,0.423-0.232,0.818-0.164c0.402,2.986,3.737,3.027,3.928,6.219
			c0,0.545,0,1.091,0,1.636C128.658,44.95,129.081,46.027,129.81,47.166z M128.992,46.839c0.116-0.498-0.171-0.593-0.164-0.982
			c-0.647,0.007-0.975,0.334-0.981,0.982C128.201,47.207,128.406,46.702,128.992,46.839z M125.392,37.511
			c0.082-0.519-0.504-0.369-0.327-0.982c-0.409,0.191-1.125,0.075-1.146,0.654C123.974,37.729,124.86,37.443,125.392,37.511z
			 M121.3,46.184c6.451,5.012,11.005-8.278,2.619-7.855C119.889,38.533,118.471,43.989,121.3,46.184z M124.41,48.639
			c0.055-0.382-0.027-0.627-0.164-0.818c-0.437,0.109-1.023,0.068-1.309,0.327c0.361,0.13,0.211,0.771,0.655,0.818
			C123.728,48.721,124,48.612,124.41,48.639z M119.664,39.638c0.682-0.185,1.214-0.737,0.654-1.31
			c-0.477-0.041-0.504,0.368-0.981,0.328C119.262,39.175,119.568,39.297,119.664,39.638z"/>
		<path fill="#817E7E" d="M129.319,41.929c0.272,0.177,0.272,1.459,0,1.636C129.319,43.02,129.319,42.475,129.319,41.929z"/>
		<path fill="#FFFFFF" d="M128.828,45.857c-0.007,0.389,0.28,0.484,0.164,0.982c-0.586-0.136-0.791,0.368-1.146,0
			C127.853,46.191,128.181,45.864,128.828,45.857z"/>
		<path fill="#817E7E" d="M127.683,41.929c-0.702,0.102-0.491-0.709-0.818-0.982c0.191,0.027,0.293-0.034,0.327-0.164
			C127.587,40.934,127.628,41.438,127.683,41.929z"/>
		<path fill="#817E7E" d="M127.519,85.46c0.062,0.648-0.15,1.568,0.164,1.964c-0.743-0.129,0.082-1.827-0.654-1.964
			C127.192,85.46,127.355,85.46,127.519,85.46z"/>
		<path fill="#CFC6BE" d="M125.883,108.698c-0.866,7.589,0.109,17.021-0.491,24.875c0-6.104,0-12.771,0-19.147
			C125.392,112.469,124.989,110.287,125.883,108.698z"/>
		<path fill="#FFFFFF" d="M125.064,36.529c-0.177,0.613,0.409,0.463,0.327,0.982c-0.532-0.068-1.418,0.218-1.473-0.328
			C123.939,36.604,124.655,36.72,125.064,36.529z"/>
		<path fill="#2B2929" d="M126.21,62.876c-0.532,0.668-1.132,1.269-1.8,1.8C124.942,64.008,125.541,63.408,126.21,62.876z"/>
		<path fill="#2B2929" d="M126.21,74.168c-0.532,0.668-1.132,1.268-1.8,1.8C124.942,75.3,125.541,74.7,126.21,74.168z"/>
		<path fill="#FFFFFF" d="M123.919,38.329c8.387-0.423,3.832,12.867-2.619,7.855C118.471,43.989,119.889,38.533,123.919,38.329z
			 M126.865,40.948c0.327,0.272,0.116,1.084,0.818,0.982c-0.054-0.491-0.095-0.996-0.491-1.146
			C127.158,40.913,127.056,40.975,126.865,40.948z M124.41,43.075c0.17-0.43,0.648-0.552,0.818-0.982
			c-0.552,0.286-0.859,0.45-1.309,0.491C124.226,42.604,124.035,43.122,124.41,43.075z M123.264,39.638
			c0.055-0.218,0.232-0.314,0.164-0.655c-0.293-0.423-1.336,0.293-0.818,0.655c0.429-1.119,0.457,0.934,0.982,0.164
			C123.462,39.768,123.271,39.795,123.264,39.638z"/>
		<path fill="#2B2929" d="M125.228,42.093c-0.17,0.43-0.648,0.552-0.818,0.982c-0.375,0.047-0.184-0.471-0.491-0.491
			C124.369,42.543,124.676,42.379,125.228,42.093z"/>
		<path fill="#FFFFFF" d="M124.246,47.821c0.136,0.191,0.218,0.437,0.164,0.818c-0.409-0.027-0.682,0.082-0.818,0.327
			c-0.443-0.048-0.293-0.688-0.655-0.818C123.223,47.889,123.81,47.93,124.246,47.821z"/>
		<path fill="#2B2929" d="M123.428,38.984c0.068,0.341-0.109,0.437-0.164,0.655c0.007,0.157,0.198,0.129,0.328,0.164
			c-0.525,0.771-0.553-1.282-0.982-0.164C122.091,39.277,123.135,38.561,123.428,38.984z"/>
		<path fill="#817E7E" d="M123.264,79.077c0,0.928,0,1.855,0,2.782C122.992,81.307,122.992,79.63,123.264,79.077z"/>
		<path d="M123.101,27.365c0.239,0.791-0.293,0.955-0.491,1.637C118.082,30.119,122.139,24.133,123.101,27.365z"/>
		<path fill="#817E7E" d="M124.246,59.603c-0.839,0.798-1.657,1.616-2.455,2.455C122.453,61.083,123.203,60.197,124.246,59.603z"/>
		<path d="M121.628,53.712c2.68-0.273,2.475,3.32,0.654,3.6C120.278,57.626,119.016,53.978,121.628,53.712z"/>
		<path fill="#817E7E" d="M121.464,73.023c0.272,0.443,0.272,2.011,0,2.455C121.464,74.659,121.464,73.841,121.464,73.023z"/>
		<path fill="#FFFFFF" d="M120.318,38.329c0.56,0.573,0.027,1.125-0.654,1.31c-0.096-0.341-0.402-0.464-0.327-0.982
			C119.814,38.697,119.841,38.288,120.318,38.329z"/>
		<path d="M120.318,83.496c0.021,0.402,0.027,0.791-0.164,0.982c-0.382,0.055-0.627-0.027-0.818-0.164c0-0.218,0-0.438,0-0.654
			C119.528,83.469,119.916,83.476,120.318,83.496z"/>
		<path fill="#CFC6BE" d="M117.7,95.77c0,13.201,0,26.402,0,39.603C117.427,122.555,117.427,108.59,117.7,95.77z"/>
		<path d="M109.845,24.746c0.873-5.039,7.432-3.696,7.364,0.982c-0.041,2.891-2.148,4.541-2.782,6.709
			c-0.478,0.177,0.15,1.459-0.327,1.636c-0.498,0.103-1.412-0.211-1.637,0.164c-0.109,0-0.218,0-0.327,0
			c-0.518-3.9,2.114-4.65,2.455-7.691c0.273-0.231,0.273-1.568,0-1.8c-0.211-0.818-1.07-1.132-1.964-0.818c-0.054,0-0.109,0-0.164,0
			c0,0.327-0.443,0.211-0.327,0.654c-0.055,0-0.109,0-0.164,0c0,0.818,0,1.637,0,2.455c-0.443,0.102-1.296-0.205-1.473,0.164
			c-0.218,0-0.436,0-0.654,0C109.845,26.383,109.845,25.564,109.845,24.746z"/>
		<path d="M114.427,39.966c2.482-0.614,3.88,2.836,1.964,4.091C113.514,45.939,111.1,40.791,114.427,39.966z"/>
		<path fill="#CFC6BE" d="M116.228,81.368c-0.218,1.364-0.164,3-0.164,4.583c-0.246-0.027-0.15-0.396-0.164-0.655
			c0-0.709,0-1.418,0-2.127C115.893,82.453,115.968,81.819,116.228,81.368z"/>
		<path d="M115.409,51.094c1.555,0.9,1.35,3.464,0.491,5.073c-0.205,0.068-0.334,0.211-0.327,0.491
			c-0.614,0.478-1.159,1.023-1.636,1.637c-0.287,0.15-0.505,0.368-0.655,0.655c-0.15,0.613-0.471,1.057-0.491,1.8
			c-0.539-0.116-1.043-0.266-1.636-0.327c-0.096-0.968,0.184-1.562,0.491-2.127c0.634-0.621,1.214-1.295,1.8-1.964
			c1.173-0.784,2.114-4.084,0-3.764c-0.996,0.15-0.853,1.146-1.146,2.291c-0.764,0.054-1.091-0.328-1.8-0.328
			C110.493,51.673,112.948,49.669,115.409,51.094z"/>
		<path fill="#2B2929" d="M115.9,83.169c0,0.709,0,1.418,0,2.127C115.627,84.962,115.627,83.503,115.9,83.169z"/>
		<path fill="#CFC6BE" d="M115.573,56.658c-0.007-0.279,0.123-0.422,0.327-0.491c-0.559,1.234-1.527,2.073-2.618,2.782
			c0.15-0.287,0.368-0.505,0.655-0.655C114.55,57.817,115.096,57.271,115.573,56.658z"/>
		<path fill="#CFC6BE" d="M115.409,96.097c0.272,2.455,0.272,6.055,0,8.51C115.409,101.77,115.409,98.933,115.409,96.097z"/>
		<path fill="#CFC6BE" d="M115.409,110.662c0.272,7.855,0.272,16.855,0,24.711C115.409,127.137,115.409,118.899,115.409,110.662z"/>
		<path fill="#FFFFFF" d="M115.409,110.662c0,8.237,0,16.475,0,24.711c-0.989,2.693-6.757-0.197-9.328-1.146
			c-5.564-2.053-10.746-4.01-16.528-6.055c-2.652-0.939-7.323-1.99-8.019-3.928c0-2.729,0-5.455,0-8.184
			c0.539-2.795,5.005-0.512,7.201,0.328c3.928,1.492,7.514,2.81,11.783,4.418c1.255,0.471,4.943,2.578,5.728,1.31
			c0.777-1.255-1.289-1.808-2.127-2.127c-5.325-2.032-10.855-4.187-16.201-6.22c-2.148-0.817-6.096-1.363-6.382-3.438
			c0-8.4,0-16.801,0-25.202c0.648-2.564,3.321-1.193,5.728-0.327c6.805,2.455,13.058,4.807,20.128,7.364
			c2.769,1.002,7.528,1.766,8.019,3.927c0,2.836,0,5.673,0,8.51c-0.368,3.43-4.882,0.791-7.037,0
			c-3.982-1.459-7.535-2.688-11.783-4.255c-1.425-0.525-4.964-2.557-5.728-1.309c-0.784,1.282,1.896,2.1,1.964,2.127
			c5.339,2.086,10.671,4.05,16.038,6.056C111.195,108.098,114.85,108.602,115.409,110.662z"/>
		<path fill="#2B2929" d="M115.246,82.187c0.272,0.177,0.272,1.459,0,1.637c0-0.109,0-0.218,0-0.328
			C115.246,83.06,115.246,82.623,115.246,82.187z"/>
		<path fill="#817E7E" d="M115.246,83.824c0,0.382,0,0.764,0,1.146c-0.144,0.955-0.361-1.405,0-1.473
			C115.246,83.605,115.246,83.714,115.246,83.824z"/>
		<path fill="#2B2929" d="M114.591,24.746c0.273,0.231,0.273,1.568,0,1.8C114.591,25.946,114.591,25.346,114.591,24.746z"/>
		<path d="M114.591,36.529c0,0.382,0,0.764,0,1.146c-0.764,0-1.527,0-2.291,0c0-0.709,0-1.418,0-2.127
			c0.443-0.103,1.295,0.205,1.473-0.164c0.218,0,0.437,0,0.655,0C114.522,35.724,114.223,36.461,114.591,36.529z"/>
		<path fill="#CFC6BE" d="M114.591,35.22c0,0.437,0,0.873,0,1.31c-0.368-0.068-0.068-0.805-0.164-1.146c-0.218,0-0.437,0-0.655,0
			c-0.491,0-0.982,0-1.473,0c-0.375,0.279-0.062,1.248-0.164,1.8c-0.307-0.32-0.218-1.629,0-1.964
			C112.955,35.22,113.772,35.22,114.591,35.22z"/>
		<path fill="#2B2929" d="M112.3,37.675c0.764,0,1.527,0,2.291,0c-0.027,0.191-0.3,0.136-0.491,0.164
			c-0.648-0.062-1.568,0.15-1.964-0.164c0-0.164,0-0.328,0-0.491c0.102-0.552-0.211-1.521,0.164-1.8c0.491,0,0.982,0,1.473,0
			c-0.177,0.368-1.029,0.061-1.473,0.164C112.3,36.256,112.3,36.965,112.3,37.675z"/>
		<path fill="#2B2929" d="M114.427,32.438c0,0.6,0,1.2,0,1.8c-0.655,0-1.309,0-1.964,0c0.225-0.375,1.139-0.061,1.637-0.164
			C114.577,33.897,113.95,32.615,114.427,32.438z"/>
		<path fill="#2B2929" d="M115.573,56.658c-0.477,0.614-1.023,1.159-1.636,1.637C114.414,57.68,114.959,57.135,115.573,56.658z"/>
		<path fill="#CFC6BE" d="M112.136,37.675c0.396,0.313,1.316,0.102,1.964,0.164C113.834,38.036,112.143,38.275,112.136,37.675z"/>
		<path d="M112.627,61.567c0.089,0.853-0.313,1.214-0.327,1.964c-0.702-0.062-1.146-0.382-1.8-0.491
			C110.479,61.308,111.052,61.124,112.627,61.567z"/>
		<path fill="#CFC6BE" d="M112.463,23.928c0.055,0,0.109,0,0.164,0c-0.647,0.43-0.061,2.564-0.491,3.252c0-0.866,0-1.732,0-2.598
			C112.02,24.139,112.463,24.255,112.463,23.928z"/>
		<path fill="#FFFFFF" d="M112.136,27.18c0,0.007,0,0.014,0,0.021c-0.007,0-0.007,0-0.014,0
			C112.129,27.194,112.136,27.187,112.136,27.18z"/>
		<path fill="#2B2929" d="M112.136,24.582c0,0.866,0,1.732,0,2.598c0,0.007-0.007,0.014-0.014,0.021c-0.32,0-0.648,0-0.968,0
			c-0.218,0-0.437,0-0.655,0c0.177-0.368,1.03-0.062,1.473-0.164c0-0.818,0-1.637,0-2.455
			C112.027,24.582,112.082,24.582,112.136,24.582z"/>
		<path fill="#CFC6BE" d="M111.154,27.201c0.32,0,0.648,0,0.968,0C111.959,27.433,111.672,27.48,111.154,27.201z"/>
		<path fill="#817E7E" d="M113.445,56.33c-0.586,0.668-1.166,1.343-1.8,1.964C112.054,57.449,112.777,56.917,113.445,56.33z"/>
		<path d="M111.318,68.277c0.498,2.305-3.198,0.545-1.309-0.491C110.493,67.52,111.175,67.595,111.318,68.277z"/>
		<path d="M109.682,82.023c3.15,1.453,1.93,7.479-2.782,6.382c-0.859-0.504-1.623-1.104-2.127-1.964c0-0.164,0-0.327,0-0.491
			c0-0.545,0-1.091,0-1.637C105.092,81.935,107.847,81.171,109.682,82.023z"/>
		<path fill="#2B2929" d="M109.845,24.746c0,0.818,0,1.636,0,2.455C109.572,26.758,109.572,25.189,109.845,24.746z"/>
		<path d="M109.354,48.803c0.887,2.291-2.379,2.796-2.618,0.982C106.572,48.536,108.127,47.705,109.354,48.803z"/>
		<path d="M108.536,72.695c1.882,1.616-1.438,7.494-3.764,4.91c-0.334,0.157-0.648,0.334-0.982,0.491
			c-0.055,0.6,0.143,1.453-0.164,1.8c-0.191,0.191-0.58,0.184-0.982,0.164c-0.6,0-1.2,0-1.8,0c-0.818,0-1.636,0-2.455,0
			c-0.641-0.232-0.716-1.029-0.655-1.964c0.252-0.402,0.621-0.688,1.146-0.818c-0.402-0.907-1.289-1.33-1.309-2.619
			c-4.173,1.466-4.582-4.548-0.982-4.582c-0.866-0.771-2.004-1.269-2.291-2.619c-3.859,0.252-2.475-6.068,0.818-4.254
			c0.791-0.3,1.323-0.859,2.291-0.982c0.287-3.607,6.382-2.012,4.255,1.636c0.457,0.798,0.586,1.923,0.491,3.273
			c0.995-0.17,0.818-1.016,1.636-1.309c2.905-1.043,4.446,3.662,1.473,4.255c0.116,1.302,1.166,1.67,1.146,3.109
			C107.022,72.927,107.493,72.525,108.536,72.695z"/>
		<path d="M107.881,40.456c0.504,3.164,0.354,6.819-3.273,6.71c-0.089,0.129-0.17,0.266-0.164,0.491
			c-0.375,0.498-0.055,1.691-0.164,2.455c0,0.491,0,0.982,0,1.473c-0.375,0.498-0.055,1.691-0.164,2.455
			c0.566,0.688,1.398,1.111,2.292,1.473c-1.991,0.354-4.105-0.586-6.382-0.491c0.525-0.621,1.698-0.593,2.618-0.818
			c0.586-2.25,1.009-4.664,1.473-7.037c-3.021-0.048-3.266-4.999-1.636-6.874c0.129-0.034,0.191-0.136,0.164-0.327
			c0.6,0,1.2,0,1.8,0C105.59,40.129,106.824,40.204,107.881,40.456z"/>
		<path d="M105.59,32.111c3.123-0.962,2.202,4.275-0.328,2.945C104.676,34.749,103.845,32.649,105.59,32.111z"/>
		<path fill="#2B2929" d="M104.772,84.314c0,0.545,0,1.091,0,1.637C104.499,85.774,104.499,84.491,104.772,84.314z"/>
		<path fill="#2B2929" d="M104.445,47.657c0,0.818,0,1.637,0,2.455c-0.055,0-0.109,0-0.164,0
			C104.39,49.348,104.07,48.155,104.445,47.657z"/>
		<path fill="#817E7E" d="M104.445,50.112c-0.103,0.552,0.211,1.521-0.164,1.8c0-0.109,0-0.218,0-0.327c0-0.491,0-0.982,0-1.473
			C104.335,50.112,104.39,50.112,104.445,50.112z"/>
		<path fill="#2B2929" d="M104.445,39.966c-0.6,0-1.2,0-1.8,0c0.225-0.375,1.139-0.062,1.637-0.164
			C104.417,39.775,104.438,39.863,104.445,39.966z"/>
		<path fill="#2B2929" d="M104.281,51.585c0,0.109,0,0.218,0,0.327c-0.103,0.662,0.211,1.739-0.164,2.127
			C104.227,53.276,103.906,52.082,104.281,51.585z"/>
		<path fill="#CFC6BE" d="M104.281,39.802c-0.498,0.102-1.412-0.211-1.637,0.164c0.027,0.191-0.034,0.293-0.164,0.327
			C102.174,39.325,103.919,39.563,104.281,39.802z"/>
		<path fill="#2B2929" d="M100.844,80.059c0.6,0,1.2,0,1.8,0c-0.28,0.375-1.248,0.062-1.8,0.164
			C100.844,80.169,100.844,80.114,100.844,80.059z"/>
		<path fill="#817E7E" d="M100.844,80.059c0,0.055,0,0.109,0,0.164c-0.764-0.109-1.957,0.211-2.455-0.164
			C99.208,80.059,100.026,80.059,100.844,80.059z"/>
		<path d="M96.753,85.787c-2.632-2.244,3.129-3.996,1.8-0.328C98.171,85.787,97.51,85.835,96.753,85.787z"/>
		<path d="M93.153,77.932c0.055,0.655,0.007,1.207-0.327,1.473c-0.532,0.095-0.764-0.109-1.146-0.164
			C91.005,78.123,92.314,77.073,93.153,77.932z"/>
		<path d="M89.553,81.696c0.055,0,0.109,0,0.164,0c-0.089,0.239,0.191,0.845-0.164,0.818C88.686,82.773,88.686,81.437,89.553,81.696
			z"/>
		<path fill="#2B2929" d="M89.553,81.696c-0.866-0.259-0.866,1.077,0,0.818C88.571,83.298,88.571,80.912,89.553,81.696z"/>
		<path fill="#CFC6BE" d="M81.534,116.063c0,2.728,0,5.455,0,8.183C81.261,121.899,81.261,118.408,81.534,116.063z"/>
		<path fill="#CFC6BE" d="M81.534,85.133c0,8.4,0,16.801,0,25.202C81.261,102.316,81.261,93.151,81.534,85.133z"/>
		<path fill="#CFC6BE" d="M78.588,80.059c0,15.874,0,31.748,0,47.623c-0.381-15.547-0.054-31.802-0.164-47.623
			C78.479,80.059,78.534,80.059,78.588,80.059z"/>
		<path fill="#817E7E" d="M76.461,79.241c0,16.474,0,32.948,0,49.422C76.188,112.571,76.188,95.333,76.461,79.241z"/>
		<path fill="#2B2929" d="M72.86,130.465c0,0.053,0,0.107,0,0.162c-0.764-19.828-0.109-41.069-0.327-61.532
			c-2.578,0-6.185,0-9.655,0c-0.88,0-2.843-0.218-3.109,0c-0.205,0.17-0.293,1.043-0.32,2.175c0-0.784,0-1.562-0.007-2.339
			c4.418,0,8.837,0,13.255,0C72.806,89.387,72.478,110.28,72.86,130.465z"/>
		<path fill="#CFC6BE" d="M72.697,68.931c0.382,20.183,0.055,41.077,0.164,61.532C72.478,110.28,72.806,89.387,72.697,68.931z"/>
		<path fill="#817E7E" d="M72.697,68.931c-4.418,0-8.837,0-13.255,0C63.478,68.658,68.66,68.658,72.697,68.931z"/>
		<path fill="#2B2929" d="M59.605,77.768c0,20.21,0,42.433,0,61.859c-0.354-21.771-0.096-44.165-0.15-66.244
			C59.496,75.28,59.605,77.209,59.605,77.768z"/>
		<path d="M59.448,71.372c0.007,0.525,0.007,1.05,0,1.575C59.441,72.402,59.441,71.864,59.448,71.372z"/>
		<path fill="#2B2929" d="M47.822,128.827c0.272,0.817,0.272,2.782,0,3.601C47.822,131.227,47.822,130.027,47.822,128.827z"/>
		<path d="M47.822,128.827c0,1.2,0,2.399,0,3.601c-0.184,9.035-3.055,15.383-7.201,20.457c-1.159,1.131-2.264,2.317-3.437,3.438
			c-3.962,3.4-9.144,5.591-16.038,6.055c-1.091,0-2.182,0-3.273,0c-6.417-0.348-11.101-2.421-15.383-4.908
			c-0.034-0.19-0.252-0.19-0.402-0.261c-0.027-0.041-0.062-0.081-0.089-0.122c0-6.033,0-12.074,0-18.109c0.055,0,0.109,0,0.164,0
			c3.689,3.293,7.603,6.36,13.747,7.201c0.552,0.271,2.23,0.271,2.782,0c2.986-0.287,5.08-1.468,7.037-2.783
			c0.832-0.694,1.596-1.459,2.291-2.291c1.173-1.826,2.353-3.646,2.619-6.381c0.272-0.982,0.272-3.109,0-4.094
			c-1.104-8.773-4.412-15.751-8.019-22.582c-2.945-5.572-5.891-11.122-8.673-16.529C8.226,80.393,2.457,69.184,1.019,54.039
			c0-1.418,0-2.836,0-4.255c0.354-8.537,3.068-14.715,7.037-19.638c0.539-0.28,0.757-0.88,1.146-1.31
			c0.614-0.477,1.159-1.021,1.636-1.636c0.409-0.3,0.921-0.498,1.146-0.982c6.253-6.812,23.511-7.583,31.912-2.127
			c-0.109,4.644,0.143,10.357,0,14.892c0,0.041,0,0.088,0.014,0.15c-0.041,0.437-0.082,0.866-0.136,1.282
			c-0.055,0.041-0.123,0.047-0.205,0.041c-4.896-3.232-14.081-5.659-20.129-2.127c-3.211,1.875-4.787,4.882-5.237,9.328
			c-0.272,0.927-0.272,3,0,3.928c2.175,14.749,9.396,25.488,15.547,36.984c2.945,5.503,6,11.435,8.51,17.838
			C44.938,113.246,47.549,120.112,47.822,128.827z"/>
		<path fill="#2B2929" d="M43.895,24.092c0.143,4.453,0.416,10.303,0.014,15.042c-0.014-0.062-0.014-0.109-0.014-0.15
			C44.038,34.449,43.786,28.735,43.895,24.092z"/>
		<path d="M43.908,39.134c0.027,0.389,0.17,1.125-0.136,1.282C43.827,40,43.867,39.57,43.908,39.134z"/>
		<path fill="#2B2929" d="M43.772,40.416c-0.007,0.123-0.027,0.245-0.041,0.368c-0.034-0.13-0.164-0.164-0.164-0.328
			C43.649,40.463,43.717,40.456,43.772,40.416z"/>
		<path fill="#817E7E" d="M37.185,156.32c1.173-1.118,2.277-2.305,3.437-3.438C39.66,154.213,38.515,155.358,37.185,156.32z"/>
		<path fill="#817E7E" d="M30.639,130.627c0.272,0.982,0.272,3.109,0,4.092C30.639,133.354,30.639,131.991,30.639,130.627z"/>
		<path fill="#2B2929" d="M27.693,141.264c0.129-0.033,0.164-0.164,0.327-0.164c-0.695,0.832-1.459,1.597-2.291,2.291
			c0.034-0.129,0.164-0.162,0.164-0.326C26.561,142.532,27.162,141.932,27.693,141.264z"/>
		<path fill="#CFC6BE" d="M27.693,141.264c-0.532,0.668-1.132,1.269-1.8,1.801C26.425,142.396,27.025,141.797,27.693,141.264z"/>
		<path fill="#817E7E" d="M17.874,162.375c1.091,0,2.182,0,3.273,0C20.432,162.647,18.59,162.647,17.874,162.375z"/>
		<path fill="#2B2929" d="M15.911,146.174c0.927,0,1.855,0,2.782,0C18.141,146.446,16.463,146.446,15.911,146.174z"/>
		<path fill="#817E7E" d="M18.202,47.657c0,1.309,0,2.618,0,3.928C17.929,50.657,17.929,48.584,18.202,47.657z"/>
		<path fill="#CFC6BE" d="M11.983,26.219c-0.225,0.484-0.736,0.682-1.146,0.982c-0.613,0.477-1.159,1.023-1.636,1.636
			c-0.389,0.43-0.607,1.03-1.146,1.31C9.085,28.558,10.367,27.221,11.983,26.219z"/>
		<path fill="#2B2929" d="M10.837,27.201c-0.477,0.614-1.022,1.159-1.636,1.636C9.678,28.224,10.224,27.678,10.837,27.201z"/>
		<path fill="#CFC6BE" d="M2.492,157.467c-0.191,0.026-0.293-0.035-0.328-0.164c-0.027-0.026-0.047-0.063-0.075-0.097
			C2.239,157.274,2.457,157.274,2.492,157.467z"/>
		<path fill="#CFC6BE" d="M2.164,138.973c-0.054,0-0.109,0-0.164,0c-0.375,2.023-0.055,6.164-0.164,9
			c0.109,2.975-0.211,6.384,0.157,9.098c-0.675-1.092-0.32-2.775-0.32-4.188c0-4.453-0.266-10.182,0.327-14.238
			C2.035,138.775,2.164,138.809,2.164,138.973z"/>
		<path d="M2,157.084c0.027,0.041,0.062,0.081,0.089,0.122c-0.034-0.021-0.062-0.041-0.089-0.067C2,157.118,2,157.104,2,157.084z"/>
		<path fill="#FFFFFF" d="M2,157.084c0,0.021,0,0.034,0,0.055c0-0.021-0.007-0.041-0.007-0.066C2,157.077,2,157.077,2,157.084z"/>
		<path fill="#2B2929" d="M2,138.973c0,6.035,0,12.076,0,18.109c0-0.007,0-0.007-0.007-0.014c-0.368-2.715-0.048-6.123-0.157-9.098
			C1.946,145.137,1.625,140.998,2,138.973z"/>
		<path fill="#817E7E" d="M1.019,49.784c0,1.418,0,2.836,0,4.255C0.746,53.003,0.746,50.821,1.019,49.784z"/>
	</g>
</g>
</svg>
