<?xml version="1.0" encoding="utf-8"?>
<!-- Generator: Adobe Illustrator 15.1.0, SVG Export Plug-In . SVG Version: 6.00 Build 0)  -->
<!DOCTYPE svg PUBLIC "-//W3C//DTD SVG 1.1//EN" "http://www.w3.org/Graphics/SVG/1.1/DTD/svg11.dtd">
<svg version="1.1" id="Layer_1" xmlns="http://www.w3.org/2000/svg" xmlns:xlink="http://www.w3.org/1999/xlink" x="0px" y="0px"
	 width="356px" height="256px" viewBox="0 0 356 256" enable-background="new 0 0 356 256" xml:space="preserve">
<g>
	<g>
		<path fill="#FFFFFF" d="M278.127,0c5.571,29.481-20.453,49.021-48.021,39.018c-0.318,69.285-26.264,120.82-64.028,155.071
			C128.987,227.727,72.914,252.745,0,243.111C0,162.074,0,81.037,0,0C92.709,0,185.418,0,278.127,0z M92.042,24.011
			c-19.91,19.224-21.174,72.249,13.006,76.035c-4.561,23.119-9.968,45.392-14.007,69.031c-9.718,3.288-21.027,4.985-30.014,9.005
			c22.265,2.748,48.046,7.311,69.032,8.003c-8.18-5.159-17.632-9.047-24.011-16.007c1.367-22.979,2.015-46.675,3.001-70.032
			c36.739,2.635,41.839-37.507,34.016-70.032C127.106,26.964,110.835,24.227,92.042,24.011z"/>
		<path d="M278.127,0c1.334,0,2.668,0,4.002,0c2.354,32.739-17.031,48.946-49.021,44.02c1.062,63.75-23.821,110.861-59.027,146.067
			C134.282,229.885,79.029,256.971,0,247.113c0-1.334,0-2.668,0-4.002c72.914,9.634,128.987-15.385,166.076-49.022
			c37.766-34.251,63.71-85.786,64.029-155.071C257.674,49.021,283.698,29.481,278.127,0z"/>
		<path d="M315.145,11.005c11.687-3.057,17.391,3.113,18.008,11.005c1.455,18.56-29.641,21.407-28.012,0
			C305.521,16.974,308.527,12.736,315.145,11.005z M309.143,26.012c3.297,16.715,27.397,2.459,18.008-9.004
			c-0.838-1.022-4.392-4.955-12.006-2.001C310.165,16.938,307.792,19.175,309.143,26.012z"/>
		<path fill="#FFFFFF" d="M315.145,15.007c7.614-2.954,11.168,0.979,12.006,2.001c9.391,11.463-14.711,25.719-18.008,9.004
			C307.792,19.175,310.165,16.938,315.145,15.007z"/>
		<path d="M143.065,30.014c7.824,32.525,2.723,72.667-34.016,70.032c-0.987,23.357-1.634,47.056-3.001,70.032
			c6.379,6.96,15.831,10.848,24.011,16.007c-20.985-0.692-46.767-5.255-69.032-8.003c8.987-4.02,20.296-5.717,30.014-9.005
			c4.039-23.64,9.446-45.913,14.007-69.031c-34.18-3.786-32.916-56.811-13.006-76.035C110.835,24.227,127.106,26.964,143.065,30.014
			z"/>
		<path d="M282.129,66.03c41.694-7.112,78.934,29.925,61.028,73.033c-17.226,41.476-82.771,42.965-100.046-1
			c-4.229-10.761-3.528-33.991,2-45.021C250.363,82.566,263.939,69.133,282.129,66.03z M245.111,104.048
			c-8.702,35.282,17.26,60.371,42.021,63.028c34.474,3.699,73.257-31.688,50.022-74.034c-7.271-13.252-26.684-27.691-51.023-24.011
			C264.956,72.233,249.152,87.666,245.111,104.048z"/>
		<path fill="#FFFFFF" d="M286.131,69.032c24.342-3.681,43.752,10.758,51.023,24.011c23.232,42.346-15.549,77.734-50.022,74.034
			c-24.761-2.657-50.723-27.746-42.021-63.028C249.152,87.666,264.956,72.233,286.131,69.032z"/>
	</g>
</g>
</svg>
