<?xml version="1.0" encoding="utf-8"?>
<!-- Generator: Adobe Illustrator 15.1.0, SVG Export Plug-In . SVG Version: 6.00 Build 0)  -->
<!DOCTYPE svg PUBLIC "-//W3C//DTD SVG 1.1//EN" "http://www.w3.org/Graphics/SVG/1.1/DTD/svg11.dtd">
<svg version="1.1" id="Layer_1" xmlns="http://www.w3.org/2000/svg" xmlns:xlink="http://www.w3.org/1999/xlink" x="0px" y="0px"
	 width="666px" height="505px" viewBox="0 0 666 505" enable-background="new 0 0 666 505" xml:space="preserve">
<g id="XMLID_2_">
	<g>
		<path fill="#FFFFFF" d="M369.41,150.686c12.97,44.78-55.49,53.34-58.31,12.06c-1.29-18.89,9.53-28.73,25.13-31.17
			C355.41,128.585,366.18,139.515,369.41,150.686z"/>
		<path d="M635.84,19.985c6.551-0.61,19.511-2.47,29.15,0c-67.71,3.34-118.94,23.3-159.85,55.29
			c-47.091,36.82-81.301,86.51-93.5,157.85C221.19,262.846,100.6,362.445,25.57,507.596c212.81,0.67,428.29-1.341,639.42,1
			c-209.59,4.01-431.22,2.02-643.44,1.01c4.81-20.061,17.52-36.69,28.15-53.29c74.84-116.87,190.86-200.93,357.92-226.21
			C432.88,116.755,509.29,31.695,635.84,19.985z"/>
		<path d="M620.76,145.655c36.341-18.23,4.71,52.96-11.06,29.16c-1.78,0.9-2.94,2.42-5.03,3.01c-0.479,1.45,0.48,8.75-2.01,11.06
			c-9.64,4.31-21.83-0.06-34.18,1.01c-6.12-3.88-4.92-17.21,3.01-18.1c-3.76-4.62-6.73-10.03-8.04-17.09
			c-23.74,12.42-30.38-29.24-6.03-28.15c-5.81-4.91-12.55-8.9-15.08-17.09c-24.42,1.05-14.479-38.26,6.03-27.15
			c5.19-1.51,7.39-6.02,14.07-6.03c3.069-17.95,28.3-17.77,30.17-1.01c0.47,4.25-3.061,7.44-3.021,11.06
			c0.09,7.4,7.65,12.9,4.021,21.12c15.46-24.88,45.41,8.37,20.109,20.1C614.22,135.436,621,137.035,620.76,145.655z"/>
		<path d="M373.43,148.675c13.44,44.07-52.549,62.81-64.339,24.13c-7.09-23.27,7.7-43.33,29.15-45.25
			C353.58,126.186,368.86,133.686,373.43,148.675z M311.1,162.745c2.82,41.28,71.28,32.72,58.31-12.06
			c-3.23-11.17-14-22.1-33.18-19.11C320.63,134.015,309.81,143.855,311.1,162.745z"/>
	</g>
	<g>
	</g>
</g>
</svg>
