<?xml version="1.0" encoding="utf-8"?>
<!-- Generator: Adobe Illustrator 15.1.0, SVG Export Plug-In . SVG Version: 6.00 Build 0)  -->
<!DOCTYPE svg PUBLIC "-//W3C//DTD SVG 1.1//EN" "http://www.w3.org/Graphics/SVG/1.1/DTD/svg11.dtd">
<svg version="1.1" id="Layer_1" xmlns="http://www.w3.org/2000/svg" xmlns:xlink="http://www.w3.org/1999/xlink" x="0px" y="0px"
	 width="615px" height="529px" viewBox="0 0 615 529" enable-background="new 0 0 615 529" xml:space="preserve">
<g id="XMLID_2_">
	<g>
		<path d="M458.3,493.48c87.47,0.35,156.25-70.211,150.76-160.811C603.48,240.7,506.09,164.21,404.03,203.02
			C380.26,123.53,326.6,62.91,248.25,35.18C157.8,3.18,52.05,29.99,0,80.41c0-1.68,0-3.35,0-5.03
			c52.99-48.09,148.06-72.8,235.18-48.24C319.77,50.99,382.38,116.03,406.04,198c67.32-23.9,129.22,1.82,164.82,38.19
			c36.58,37.37,55.96,106.6,30.149,167.84c-20.42,48.47-65.45,87.939-127.63,92.47c-49.1,3.57-82.36-11.79-108.55-31.16
			c-3.39-2.51-16.7-18.24-20.1-18.09c-0.75,0.03-11.98,11.36-15.08,14.07c-39.24,34.38-82.88,56.51-148.74,61.31
			C100.63,528.47,42.13,498.52,0,464.33c0-1.67,0-3.35,0-5.021c41.52,33.931,93.58,60.301,163.82,60.301
			c75.83,0,132.99-31.141,171.86-69.351c1.761-1.72,8.63-9.02,9.051-9.04c4.229-0.18,18.35,17.96,21.1,20.101
			C389.21,479.45,419.69,493.33,458.3,493.48z"/>
		<path fill="#FFFFFF" d="M609.06,332.67c5.49,90.6-63.29,161.16-150.76,160.811c-38.609-0.15-69.09-14.03-92.47-32.16
			c-2.75-2.141-16.87-20.28-21.1-20.101c-0.421,0.021-7.29,7.32-9.051,9.04c-38.87,38.21-96.03,69.351-171.86,69.351
			c-70.24,0-122.3-26.37-163.82-60.301c0-126.3,0-252.6,0-378.899C52.05,29.99,157.8,3.18,248.25,35.18
			c78.35,27.73,132.01,88.35,155.78,167.84C506.09,164.21,603.48,240.7,609.06,332.67z"/>
	</g>
	<g>
	</g>
</g>
</svg>
