<?xml version="1.0" encoding="utf-8"?>
<!-- Generator: Adobe Illustrator 15.1.0, SVG Export Plug-In . SVG Version: 6.00 Build 0)  -->
<!DOCTYPE svg PUBLIC "-//W3C//DTD SVG 1.1//EN" "http://www.w3.org/Graphics/SVG/1.1/DTD/svg11.dtd">
<svg version="1.1" id="Layer_1" xmlns="http://www.w3.org/2000/svg" xmlns:xlink="http://www.w3.org/1999/xlink" x="0px" y="0px"
	 width="698px" height="311px" viewBox="0 0 698 311" enable-background="new 0 0 698 311" xml:space="preserve">
<g id="XMLID_2_">
	<g>
		<path d="M698.03,264.39c0,1.33,0,2.67,0,4C642.22,311.99,543.69,309.99,484.72,275.41c-55.97-32.83-93.239-87.4-102.149-159.24
			C302.67,131.09,246.36,79.53,254.38,0c1,0,2,0,3,0c-6.22,81.17,49.5,127.63,130.19,112.17
			c6.479,77.65,46.52,131.57,103.149,162.23c29.41,15.93,67.91,26.17,108.16,23.04C638.1,294.39,670.75,282.17,698.03,264.39z"/>
		<path fill="#FFFFFF" d="M698.03,0c0,88.13,0,176.26,0,264.39c-27.28,17.78-59.931,30-99.15,33.051
			c-40.25,3.13-78.75-7.11-108.16-23.04c-56.63-30.66-96.67-84.58-103.149-162.23C306.88,127.63,251.16,81.17,257.38,0
			C404.26,0,551.15,0,698.03,0z M622.92,189.28c0.311-2.36,4.75-0.601,4-4.011c-2.62-8.39-6.24-15.789-9.01-24.029
			c5.59-9.73,6.17-23.15,5.01-32.05c-4.01-30.85-35.47-33.41-40.06-62.09c-1.931-1.95-4.03,1.05-7.011,1
			c-3.3-9.38-7.1-18.27-11.02-27.04c-18.91,6.12-37.01,13.06-55.08,20.03c2.24,9.12,4.98,17.72,8.01,26.04c-0.91,1.76-3.5,1.83-5,3
			c0.98,9,8.86,16.03,9.01,24.04c0.08,4.14-3.52,8.86-4.01,11.01c-5.08,22.79,2.94,41.209,16.03,53.08
			c5.67,5.15,11.55,5.58,16.02,12.021c3.7,5.319,4.311,12.279,8.011,20.029c2.939,0.261,3.08-2.27,6.01-2
			c3.77,8.91,7.61,17.761,11.02,27.04c19.471-6.239,38.79-12.619,56.08-21.029C627.84,206.39,625.08,198.14,622.92,189.28z"/>
		<path d="M626.92,185.27c0.75,3.41-3.689,1.65-4,4.011c2.16,8.859,4.92,17.109,8.01,25.04c-17.29,8.41-36.609,14.79-56.08,21.029
			c-3.409-9.279-7.25-18.13-11.02-27.04c-2.93-0.27-3.07,2.261-6.01,2c-3.7-7.75-4.311-14.71-8.011-20.029
			c-4.47-6.44-10.35-6.87-16.02-12.021c-13.09-11.87-21.11-30.29-16.03-53.08c0.49-2.15,4.09-6.87,4.01-11.01
			c-0.149-8.01-8.029-15.04-9.01-24.04c1.5-1.17,4.09-1.24,5-3c-3.029-8.32-5.77-16.92-8.01-26.04
			c18.07-6.97,36.17-13.91,55.08-20.03c3.92,8.77,7.72,17.66,11.02,27.04c2.98,0.05,5.08-2.95,7.011-1
			c4.59,28.68,36.05,31.24,40.06,62.09c1.16,8.9,0.58,22.32-5.01,32.05C620.68,169.48,624.3,176.88,626.92,185.27z M610.9,182.27
			c1.529-2.819,7.14-1.539,8.01-5.01c-2.68-0.99-1.24-6.1-5-6.01c-1.94,2.4-5.62,3.06-6.01,7.01
			C609.96,178.53,608.14,182.7,610.9,182.27z M580.86,84.12c-0.96-3.04-1.181-6.83-4.011-8.01c-1.739,2.6-7.449,1.23-8.01,5.01
			C568.54,86.43,576.71,83.27,580.86,84.12z M570.84,183.27c58.83-0.659,56.91-97.43-6.01-89.129
			c-21.24,2.8-36.75,17.81-39.05,38.05C522.65,159.62,544.61,183.56,570.84,183.27z M570.84,192.28c-4,0-8.01,0-12.01,0
			c0.13,3.54,2.86,4.479,3,8.01c3.49-1.51,8.18-1.83,10.01-5C570.68,195.12,570.76,193.7,570.84,192.28z M531.79,98.14
			c-1.01-1.33-0.95-3.72-3.01-4c-1.62,2.05-4.82,2.52-7.011,4c0.78,3.23,2.091,5.92,4.011,8.02
			C527.05,102.75,531.33,102.36,531.79,98.14z"/>
		<path fill="#FFFFFF" d="M618.91,177.26c-0.87,3.471-6.48,2.19-8.01,5.01c-2.761,0.431-0.94-3.739-3-4.01
			c0.39-3.95,4.069-4.609,6.01-7.01C617.67,171.16,616.23,176.27,618.91,177.26z"/>
		<path d="M605.89,129.19c-0.89,0.44-1.79,0.88-2,2c-2.699-0.07-4.81-2.29-3-4c1.021,0.65,1.03,2.3,3,2c-1-3.99-4.109-2.89-2-8.01
			c-1.229,0.44-2.06,1.28-2,3c-1.359-0.31-0.84-2.5-1.01-4c1.34,0,2.67,0,4.01,0C603.87,123.2,604.93,126.14,605.89,129.19z"/>
		<path d="M578.85,169.25c2.551,1.46,6.381,1.63,6.011,6.01c-0.891,0.44-1.79,0.88-2,2c-4.511-0.2-5.91-7.59-5.011-10.01
			c0.891-0.78,2.261-1.08,4.011-1.01C583.42,169.8,578.46,166.85,578.85,169.25z"/>
		<path d="M579.86,131.19c0.39,3.39-4.721,9.07-9.021,11.02c-4.38-7.97-8.04-16.66-11.01-26.04c1,0,2,0,3,0
			c2.33,8.02,6.01,14.69,9.01,22.03C574.51,135.86,575.61,131.96,579.86,131.19z"/>
		<path fill="#FFFFFF" d="M576.85,76.11c2.83,1.18,3.051,4.97,4.011,8.01c-4.15-0.85-12.32,2.31-12.021-3
			C569.4,77.34,575.11,78.71,576.85,76.11z"/>
		<path fill="#FFFFFF" d="M564.83,94.14c62.92-8.3,64.84,88.47,6.01,89.129c-26.229,0.29-48.189-23.649-45.06-51.08
			C528.08,111.95,543.59,96.94,564.83,94.14z M603.89,131.19c0.21-1.12,1.11-1.56,2-2c-0.96-3.05-2.02-5.99-3-9.01
			c-1.34,0-2.67,0-4.01,0c0.17,1.5-0.35,3.69,1.01,4c-0.06-1.72,0.771-2.56,2-3c-2.109,5.12,1,4.02,2,8.01c-1.97,0.3-1.979-1.35-3-2
			C599.08,128.9,601.19,131.12,603.89,131.19z M584.86,175.26c0.37-4.38-3.46-4.55-6.011-6.01c-0.39-2.4,4.57,0.55,3.011-3.01
			c-1.75-0.07-3.12,0.229-4.011,1.01c-0.899,2.42,0.5,9.81,5.011,10.01C583.07,176.14,583.97,175.7,584.86,175.26z M570.84,142.21
			c4.3-1.95,9.41-7.63,9.021-11.02c-4.25,0.77-5.351,4.67-8.021,7.01c-3-7.34-6.68-14.01-9.01-22.03c-1,0-2,0-3,0
			C562.8,125.55,566.46,134.24,570.84,142.21z M558.83,110.16c0.939,1.04,5.15,0.92,5-2c-5.88,2.57-0.67-3.61-2-8.01
			c-2.86-1.26-5.73-0.79-5.01,4c3.56,1.56,0.609-3.4,3.01-3C562.3,103.92,558.25,106.24,558.83,110.16z M556.82,112.17
			c-0.4-4.61-1.13-8.89-4-11.02C551.8,104.46,554.32,109.42,556.82,112.17z M538.8,149.22c0.391,2.4-4.569-0.56-3.01,3
			c8.4,1.24,3.52-10.65-1-11.01c-2.1,2.44-1.43,2.13-1,6.01C534.4,148.95,538.54,147.14,538.8,149.22z"/>
		<path fill="#FFFFFF" d="M558.83,192.28c4,0,8.01,0,12.01,0c-0.08,1.42-0.16,2.84,1,3.01c-1.83,3.17-6.52,3.49-10.01,5
			C561.69,196.76,558.96,195.82,558.83,192.28z"/>
		<path d="M563.83,108.16c0.15,2.92-4.061,3.04-5,2c-0.58-3.92,3.47-6.24,1-9.01c-2.4-0.4,0.55,4.56-3.01,3
			c-0.721-4.79,2.149-5.26,5.01-4C563.16,104.55,557.95,110.73,563.83,108.16z"/>
		<path d="M552.82,101.15c2.87,2.13,3.6,6.41,4,11.02C554.32,109.42,551.8,104.46,552.82,101.15z"/>
		<path d="M535.79,152.22c-1.56-3.56,3.4-0.6,3.01-3c-0.26-2.08-4.399-0.27-5.01-2c-0.43-3.88-1.1-3.57,1-6.01
			C539.31,141.57,544.19,153.46,535.79,152.22z"/>
		<path fill="#FFFFFF" d="M528.78,94.14c2.06,0.28,2,2.67,3.01,4c-0.46,4.22-4.74,4.61-6.01,8.02c-1.92-2.1-3.23-4.79-4.011-8.02
			C523.96,96.66,527.16,96.19,528.78,94.14z"/>
		<path d="M212.32,61.09c14.98,10.22,30.52,32.43,28.04,61.09c-4.31,49.66-54.41,73.2-95.14,54.08
			C117.75,163.36,97,123.69,114.17,87.13c6.4-13.63,23.64-32.57,51.08-36.05C183.09,48.81,201.5,53.72,212.32,61.09z M228.34,148.22
			c29.39-49.97-15.09-100.55-64.1-93.14c-29.02,4.39-53.6,28.03-52.07,64.1c1.36,32.19,28.1,58.05,60.09,59.08
			C198.1,179.1,219.68,162.95,228.34,148.22z"/>
		<path fill="#FFFFFF" d="M164.24,55.08c49.01-7.41,93.49,43.17,64.1,93.14c-8.66,14.73-30.24,30.879-56.08,30.04
			c-31.99-1.029-58.73-26.89-60.09-59.08C110.64,83.11,135.22,59.47,164.24,55.08z"/>
		<path d="M124.19,0c2.34,52.38-88.39,52.15-86.13,0c1.33,0,2.67,0,4,0c-1.45,46.76,79.62,46.98,78.12,0C121.52,0,122.85,0,124.19,0
			z"/>
		<path fill="#FFFFFF" d="M120.18,0c1.5,46.98-79.57,46.76-78.12,0C68.1,0,94.14,0,120.18,0z"/>
		<path fill="#FFFFFF" d="M36.06,97.14c23.84-5,43.05,14.22,35.05,39.06c-3.97,12.33-18.65,19.19-29.05,19.03
			C8.7,154.7,2.31,104.22,36.06,97.14z"/>
		<path d="M35.05,93.14c43.72-9.03,55.26,53.35,20.03,64.09c-26.29,8.02-51.82-11.371-44.06-42.061
			C13.33,106.04,21.35,95.97,35.05,93.14z M71.11,136.2c8-24.84-11.21-44.06-35.05-39.06c-33.75,7.08-27.36,57.56,6,58.09
			C52.46,155.39,67.14,148.53,71.11,136.2z"/>
	</g>
	<g>
	</g>
</g>
</svg>
