<?xml version="1.0" encoding="utf-8"?>
<!-- Generator: Adobe Illustrator 15.1.0, SVG Export Plug-In . SVG Version: 6.00 Build 0)  -->
<!DOCTYPE svg PUBLIC "-//W3C//DTD SVG 1.1//EN" "http://www.w3.org/Graphics/SVG/1.1/DTD/svg11.dtd">
<svg version="1.1" id="Layer_1" xmlns="http://www.w3.org/2000/svg" xmlns:xlink="http://www.w3.org/1999/xlink" x="0px" y="0px"
	 width="1894px" height="3311px" viewBox="0 0 1894 3311" enable-background="new 0 0 1894 3311" xml:space="preserve">
<g id="XMLID_2_">
	<path fill="#CBC3BA" d="M1201.507,934.016c3.482-3.781,7.565-6.878,11.349-10.316
		C1209.373,927.438,1206.709,931.997,1201.507,934.016z"/>
	<path fill="#CBC3BA" d="M638.172,1037.191c0.385-5.976,17.023-19.087,15.477-14.444c-5.676,3.954-11.693,7.564-14.445,14.444
		C638.86,1037.191,638.516,1037.191,638.172,1037.191z"/>
	<path fill="#716F70" d="M629.918,2943.863c-0.044,0.646-0.172,1.246-1.033,1.03c-2.19-4.341-0.514-12.553-1.031-18.571
		C630.906,2929.807,626.866,2940.382,629.918,2943.863z"/>
	<path fill="#231F20" d="M523.646,1302.351c0,3.439,0,6.879,0,10.318c-0.345,0-0.688,0-1.031,0c0-3.439,0-6.879,0-10.318
		C522.96,1302.351,523.303,1302.351,523.646,1302.351z"/>
	<path fill="#CBC3BA" d="M1145.793,1995.687c0,177.459,0,354.92,0,532.383C1144.073,2353.017,1144.073,2170.739,1145.793,1995.687z"
		/>
	<path fill="#CBC3BA" d="M621.664,934.016c1.719,1.464,1.719,9.89,0,11.351C621.664,941.583,621.664,937.801,621.664,934.016z"/>
	<path fill="#716F70" d="M1532.697,2800.447c1.719,122.093,1.719,251.403,0,373.497
		C1532.697,3049.447,1532.697,2924.948,1532.697,2800.447z"/>
	<path fill="#231F20" d="M1027.141,1413.779c4.127,1.763,8.556,8.598,5.159,14.443c0.73-6.921-0.9-11.479-5.159-13.411
		C1027.141,1414.467,1027.141,1414.123,1027.141,1413.779z"/>
	<path fill="#CBC3BA" d="M1197.38,3003.703c0,7.563,0,15.135,0,22.698C1195.66,3021.243,1195.66,3008.904,1197.38,3003.703z"/>
	<path fill="#CBC3BA" d="M784.68,2926.322c0,82.541,0,165.08,0,247.622C782.961,3093.81,782.961,3006.456,784.68,2926.322z"/>
	<path fill="#716F70" d="M527.773,1287.907c1.463-0.258,1.763-1.678,3.096-2.063c-2.837,5.071-7.823,7.995-7.223,16.507
		c-0.345,0-0.688,0-1.031,0c0-0.688,0-1.375,0-2.063C522.916,1294.741,524.507,1290.484,527.773,1287.907z"/>
	<path fill="#CBC3BA" d="M1487.301,3146.086c0,9.285,0,18.572,0,27.858C1485.581,3167.063,1485.581,3152.961,1487.301,3146.086z"/>
	<path fill="#716F70" d="M1469.761,1423.065c4.815,0,9.63,0,14.443,0C1481.755,1424.785,1472.211,1424.785,1469.761,1423.065z"/>
	<path fill="#231F20" d="M587.615,1338.462c-12.727,0-25.45,0-38.176,0C559.757,1336.743,577.297,1336.743,587.615,1338.462z"/>
	<path fill="#231F20" d="M1010.633,1430.287c3.438,3.096,6.663,6.406,14.444,5.16
		C1019.23,1438.843,1012.395,1434.413,1010.633,1430.287z"/>
	<path fill="#010101" d="M393.646,1285.844c33.317-20.12,41.784,46.213,5.157,36.11c-4.041-2.494-8.038-5.029-11.348-8.254
		c-4.084-4.944-4.084-16.724,0-21.666C389.218,1289.668,391.282,1287.604,393.646,1285.844z"/>
	<path fill="#CBC3BA" d="M287.376,2926.322c2.408,59.151,0.344,122.78,1.033,183.648
		C286.001,3050.82,288.065,2987.195,287.376,2926.322z"/>
	<path fill="#716F70" d="M947.696,733.856c1.72,2.451,1.72,11.994,0,14.445C947.696,743.487,947.696,738.672,947.696,733.856z"/>
	<path fill="#231F20" d="M630.948,1338.462c0,0.344,0,0.688,0,1.033c-10.661,0-21.323,0-31.983,0c0-0.345,0-0.688,0-1.033
		C609.625,1338.462,620.287,1338.462,630.948,1338.462z"/>
	<path fill="#010101" d="M1397.539,1431.319c0.514,4.643-0.518,7.736-1.033,11.35c0,3.094-2.666,3.524-3.095,6.189
		c-1.418,3.053-4.772,4.168-6.191,7.222c-2.622,2.192-7.049,2.58-10.316,4.126c-2.75,0-5.502,0-8.253,0
		c-3.227-1.547-7.652-1.935-10.317-4.126c-1.419-3.054-4.771-4.169-6.189-7.222c-0.431-2.666-3.098-3.096-3.098-6.189
		c-0.515-3.612-1.547-6.707-1.03-11.35c1.419-0.301,0.858-2.58,1.03-4.127c3.482-6.879,8.599-11.994,15.478-15.478
		c7.224-2.838,17.022,0,21.668,3.096c4.813,2.794,7.309,7.824,10.315,12.382C1396.592,1428.825,1396.034,1431.147,1397.539,1431.319
		z"/>
	<path fill="#010101" d="M947.696,733.856c0,4.815,0,9.631,0,14.445c-2.537,31.512-14.402,53.693-29.92,72.223
		c-4.558,3.695-8.685,7.822-12.382,12.38c-3.998,3.913-9.113,6.707-12.382,11.35c-3.868,3.011-7.307,6.449-10.316,10.317
		c-11.307,11.735-19.216,26.869-19.604,49.523c-12.811-3.009-25.578-6.061-39.205-8.254c0.73-35.381,16.463-55.758,35.078-73.255
		c5.933-5.073,11.437-10.575,16.51-16.507c11.048-12.038,39.852-56.704,24.762-78.414c-4.428-6.362-14.402-10.875-25.794-8.254
		c-19.088,4.43-15.949,34.607-22.697,53.65c-12.983-3.523-27.516-5.502-40.24-9.287c6.104-41.914,16.896-83.183,61.906-85.635
		C912.314,676.037,943.61,695.468,947.696,733.856z"/>
	<path fill="#231F20" d="M651.584,433.618c0,0.345,0,0.688,0,1.033c-5.718,0.473-13.843-1.463-16.51,2.063
		c0.389-1.333,1.808-1.635,2.063-3.096c3.785,0,7.567,0,11.35,0C649.521,433.618,650.551,433.618,651.584,433.618z"/>
	<path fill="#716F70" d="M1536.825,1395.208c-3.354,4.213-7.138,7.996-11.353,11.348
		C1528.829,1402.344,1532.612,1398.562,1536.825,1395.208z"/>
	<path fill="#CBC3BA" d="M92.376,1337.431c0,355.954,0,711.904,0,1067.857c-2.408-353.845-0.344-712.25-1.033-1067.857
		C91.688,1337.431,92.032,1337.431,92.376,1337.431z"/>
	<path fill="#CBC3BA" d="M765.077,622.428c0,0.345,0,0.689,0,1.033c-3.783-0.688-7.481-1.419-12.381-1.033
		C751.146,620.495,763.055,621.225,765.077,622.428z"/>
	<path fill="#231F20" d="M733.092,670.921c4.126,4.127,9.371,7.135,14.444,10.316C741.132,679.433,736.575,675.692,733.092,670.921z
		"/>
	<path fill="#231F20" d="M387.457,1313.7c3.311,3.225,7.308,5.76,11.348,8.254C393.389,1320.835,390.165,1317.525,387.457,1313.7z"
		/>
	<path fill="#231F20" d="M496.823,1114.572c0.943,6.448-5.892,5.116-11.351,5.16c0-0.345,0-0.689,0-1.033c3.097,0,6.189,0,9.287,0
		c0.73-0.816,1.03-2.021,1.03-3.566c0-0.044,0-0.086,0-0.13c0.044-0.128,0.044-0.258,0-0.43
		C496.134,1114.572,496.479,1114.572,496.823,1114.572z"/>
	<path fill="#CBC3BA" d="M1386.189,3063.545c-0.346,0-0.688,0-1.033,0c0-9.627,0-19.258,0-28.889
		C1387.564,3042.222,1385.501,3054.258,1386.189,3063.545z"/>
	<path fill="#FFFFFF" d="M1141.665,379.968c-9.286-0.73-15.435,1.763-24.764,1.032c-1.331-3.827-3.311-7.009-4.126-11.35
		c6.405,0.731,13.972-5.845,21.667-7.223C1136.805,368.317,1140.85,372.531,1141.665,379.968z"/>
	<path fill="#CBC3BA" d="M1288.174,3043.943c1.719,2.791,1.719,12.683,0,15.474
		C1288.174,3054.258,1288.174,3049.103,1288.174,3043.943z"/>
	<path fill="#716F70" d="M1675.08,3014.021c1.719,1.809,1.719,10.621,0,12.383C1675.08,3022.277,1675.08,3018.149,1675.08,3014.021z
		"/>
	<path fill="#716F70" d="M903.331,347.984c0,4.126,0,8.253,0,12.38c-0.344,0-0.688,0-1.032,0c0-4.127,0-8.254,0-12.38
		C902.643,347.984,902.987,347.984,903.331,347.984z"/>
	<path fill="#716F70" d="M1407.855,897.905c7.051,5.333,13.929,10.833,18.57,18.57c-5.632-6.404-11.564-12.508-18.57-17.539
		C1407.855,898.594,1407.855,898.249,1407.855,897.905z"/>
	<path fill="#CBC3BA" d="M1261.347,829.81c-3.781,0-7.563,0-11.349,0C1251.461,828.091,1259.886,828.091,1261.347,829.81z"/>
	<path fill="#010101" d="M1190.156,479.015c3.225-0.729,1.333-2.751,1.031-5.16c0.517-3.266-4.728-0.771-5.158-3.094
		c-0.174-2.923,3.481-2.021,2.063-6.188c-0.344-1.333-1.806-1.636-2.063-3.097c-5.114,0.559-0.817,5.115-4.127,6.19
		c-4.771-3.655-0.258-10.617,7.223-8.254c1.117,1.678,3.825,7.093,1.031,9.287c5.976,1.933,8.125,15.776-3.094,13.413
		c-0.902-2.193-3.14-3.055-3.098-6.192C1188.479,474.502,1186.16,479.918,1190.156,479.015z"/>
	<path fill="#231F20" d="M1287.141,830.841c-13.067,0-26.137,0-39.207,0c0.044-0.988,1.248-0.815,2.064-1.031
		c3.784,0,7.566,0,11.349,0c3.438,0,6.879,0,10.317,0c4.813,0,9.631,0,14.446,0C1286.968,829.638,1287.099,830.197,1287.141,830.841
		z"/>
	<path fill="#231F20" d="M903.331,360.364c0,3.439,0,6.878,0,10.316c-2.365-1.417-0.388-7.179-1.032-10.316
		C902.643,360.364,902.987,360.364,903.331,360.364z"/>
	<path fill="#716F70" d="M1397.539,1431.319c1.16-5.374,2.449,11.521-1.033,11.35
		C1397.021,1439.057,1398.053,1435.962,1397.539,1431.319z"/>
	<path fill="#231F20" d="M1239.681,1185.763c-5.847,0-11.69,0-17.542,0c0.045-0.645,0.174-1.203,1.034-1.031
		C1228.331,1185.418,1236.242,1183.399,1239.681,1185.763z"/>
	<path fill="#716F70" d="M1488.332,2989.262c0.344,0,0.688,0,1.032,0c-0.688,5.499,1.375,13.752-1.032,17.535
		C1488.332,3000.953,1488.332,2995.104,1488.332,2989.262z"/>
	<path fill="#231F20" d="M82.06,3119.259c0.258-1.372,0.344-1.634,0.644-1.591c-0.472,1.81-0.816,3.828-1.16,6.062
		C81.671,3122.096,81.844,3120.594,82.06,3119.259z"/>
	<path fill="#716F70" d="M1713.252,3118.229c0.301,7.909,4.945,37.914-3.095,44.361
		C1716.691,3153.307,1711.707,3132.5,1713.252,3118.229z"/>
	<path fill="#716F70" d="M518.489,1212.589c2.708,1.075,3.396,4.213,3.095,8.254c-1.806-0.945-2.278-3.224-2.064-6.189
		c-4.643,1.891-9.371,3.697-15.477,4.126C507.742,1215.597,515.438,1216.414,518.489,1212.589z"/>
	<path fill="#CBC3BA" d="M1434.682,1409.653c0,0.344,0,0.688,0,1.032c-10.146-3.913-16.422-11.78-21.668-20.636
		c2.924,1.891,3.784,5.891,7.224,7.223C1422.602,1403.893,1430.208,1405.182,1434.682,1409.653z"/>
	<path fill="#231F20" d="M897.139,2929.415c-1.675,13.461-2.664,27.604-3.094,42.306c-52.189-23.905-62.938,57.521-66.032,100.077
		c-2.407,31.986-0.345,68.439-1.032,102.146c-14.1,0-28.201,0-42.302,0c0-82.543,0-165.082,0-247.623c14.101,0,28.202,0,42.302,0
		c0.688,21.666-1.375,46.084,1.032,66.033C840.05,2967.12,848.775,2900.356,897.139,2929.415z"/>
	<path fill="#231F20" d="M966.268,2926.322c0,82.541,0,165.08,0,247.622c-14.443,0-28.888,0-43.334,0c0-81.51,0-163.017,0-244.529
		c-0.084-1.46-0.17-2.921,1.033-3.093C938.064,2926.322,952.166,2926.322,966.268,2926.322z"/>
	<path fill="#716F70" d="M1386.189,3063.545c0,5.847,0,11.695,0,17.539c-2.363-3.782-0.346-12.035-1.033-17.539
		C1385.501,3063.545,1385.845,3063.545,1386.189,3063.545z"/>
	<path fill="#CBC3BA" d="M1096.27,1369.415c0,1.375,0,2.75,0,4.127c-4.043-5.591-1.247-18.012-2.063-26.827c0.345,0,0.687,0,1.028,0
		C1095.924,1353.938,1093.86,1363.911,1096.27,1369.415z"/>
	<path fill="#CBC3BA" d="M862.061,475.919c0,1.033,0,2.063,0,3.096c-2.364,2.45-0.389,9.243-1.032,13.414
		C860.083,496.941,858.063,476.522,862.061,475.919z"/>
	<path fill="#CBC3BA" d="M346.188,2926.322c-0.688,61.563,1.375,125.874-1.033,185.715
		C345.843,3050.476,343.779,2986.162,346.188,2926.322z"/>
	<path fill="#CBC3BA" d="M1025.077,1311.637c0.344,0,0.688,0,1.03,0c-4.082,8.641-11.263,14.187-18.57,19.603
		C1013.169,1324.49,1020.95,1319.891,1025.077,1311.637z"/>
	<path fill="#CBC3BA" d="M1403.729,1516.954c-3.396,3.482-7.911,5.846-11.351,9.287
		C1395.087,1522.069,1399.128,1519.234,1403.729,1516.954z"/>
	<path fill="#CBC3BA" d="M821.823,1410.728c0.687,0.773,6.532,8.168,5.157,14.401c-2.58-3.613-3.396-8.987-5.157-13.414
		C821.823,1411.372,821.823,1411.071,821.823,1410.728z"/>
	<path fill="#CBC3BA" d="M1129.282,1433.383c0,0.345,0,0.689,0,1.03c-7.779-5.588-15.646-11.175-20.634-19.602
		C1114.538,1421.991,1122.577,1427.021,1129.282,1433.383z"/>
	<path fill="#CBC3BA" d="M793.964,151.95c5.159,0,10.319,0,15.478,0c-3.139,2.366-10.661,0.344-15.478,1.034
		c-1.978-2.494-0.645-8.298-1.031-12.383c0.345,0,0.689,0,1.031,0C793.964,144.386,793.964,148.168,793.964,151.95z"/>
	<path fill="#CBC3BA" d="M1387.22,3156.404c-0.343,0-0.687,0-1.03,0c0-9.632,0-19.263,0-28.894
		C1388.597,3135.081,1386.533,3147.118,1387.22,3156.404z"/>
	<path fill="#010101" d="M722.775,1182.668c21.837-22.228,65.129-10.575,62.936,19.603c-0.989,13.629-17.841,36.498-24.762,48.492
		c-4.385,7.609-9.76,15.047-14.443,22.698c-7.396,12.08-9.759,25.752-25.794,25.794c-3.784,0-7.567,0-11.35,0
		c-12.77-1.333-19.173-9.025-25.793-16.508c-7.438,4.257-14.103,9.287-22.699,12.381c0.946,4.212,1.677,8.642,3.096,12.383
		c0.817,4.255-1.59,5.288-1.032,9.284c1.205,4.299-2.149,4.041-2.063,7.224c-2.149,6.834-7.438,10.445-12.381,14.443
		c-5.846,0-11.692,0-17.54,0c-10.661,0-21.323,0-31.983,0c-3.783,0-7.564,0-11.35,0c-10.318-1.719-27.858-1.719-38.175,0
		c-2.149-2.277-3.825,0.044-6.663,0.044c-0.172,0-0.387-0.044-0.56-0.044c-7.952-3.74-12.981-10.404-17.54-17.541
		c0.215-3.31-1.806-4.341-1.032-8.253c0-3.438,0-6.879,0-10.318c-0.602-8.512,4.385-11.436,7.223-16.507
		c0.775-4.729,5.632-5.374,8.254-8.256c2.45-2.02,7.179-1.761,9.287-4.127c-11.479-15.002-22.57-30.393-26.827-52.618
		c0.302-4.041-0.386-7.179-3.095-8.254c-3.052,3.825-10.747,3.008-14.446,6.19c-13.669,2.321-28.07,0.172-37.141-5.159
		c0-0.345,0-0.688,0-1.031c-6.665-2.623-10.104-8.47-15.478-12.382c-4.385-6.92-8.899-13.799-9.286-24.761c0-4.127,0-8.255,0-12.38
		c0.303-10.019,4.3-16.338,8.254-22.7c0.344,0,0.688,0,1.032,0c2.277-5.632,7.565-8.253,11.351-12.38
		c6.363-3.955,12.681-7.953,22.697-8.254c5.459-0.045,12.295,1.288,11.351-5.16c0.815-0.731,2.276-5.761,0-6.19
		c-4.128-2.364-9.115-3.955-12.383-7.221c-3.395-0.388-4.556-3.01-7.222-4.128c0-0.342,0-0.688,0-1.031
		c-8.298-4.429-13.282-12.166-19.604-18.571c-3.741-7.953-8.813-14.573-11.35-23.729c-32.543-0.131-47.332-17.971-52.618-45.397
		c0-3.096,0-6.189,0-9.286c3.911-26.008,17.882-41.957,44.363-45.396c4.126,0,8.255,0,12.382,0c1.032,0,2.063,0,3.096,0
		c5.846,1.376,11.691,2.752,15.476,6.189c14.273-10.832,29.491-20.72,50.556-24.761c4.943-25.321,18.4-42.131,45.396-45.396
		c3.783,0,7.567,0,11.35,0c1.375,0,2.75,0,4.127,0c22.183,6.018,37.357,19.045,40.236,44.364c0,3.784,0,7.567,0,11.35
		c-0.472,11.606-4.943,19.131-10.315,25.793c6.361,13.585,13.499,26.438,14.442,45.396c0,4.127,0,8.254,0,12.381
		c0.73,3.826-1.761,4.43-1.031,8.254c-0.344,2.406-1.635,3.869-1.031,7.223c2.236,1.891,7.137,1.117,9.286,3.094
		c2.708-2.793,3.523-7.479,6.19-10.316c0.344,0,0.688,0,1.03,0c2.752-6.879,8.771-10.49,14.446-14.444
		c13.153-8.812,39.549-8.899,52.617,0c6.362,3.61,11.137,8.812,15.478,14.444c4.041,6.621,8.298,13.025,8.253,23.729
		c0,3.782,0,7.567,0,11.351c-2.493,23.644-16.638,35.638-36.111,42.301c0.214,21.022,16.938,30.092,23.73,47.46
		C720.064,1168.267,719.249,1175.015,722.775,1182.668z"/>
	<path fill="#CBC3BA" d="M81.543,3123.729c-0.903,12.254,1.288,31.553,1.547,41.961C80.296,3156.019,79.738,3136.84,81.543,3123.729
		z"/>
	<path fill="#010101" d="M1144.759,568.777c3.655,4.213,7.825,17.499-4.127,15.477c-8.684-6.233-7.352-34.264,3.098-18.57
		c-2.665,2.75-1.464-1.978-4.127-2.063c-3.612,0.559-1.636,5.975-1.033,8.254C1140.246,570.454,1141.104,568.219,1144.759,568.777z
		 M1143.729,581.158c4.301-1.375-0.258-6.705-1.032-9.285c-1.419-0.044-2.276,0.472-3.095,1.031
		C1140.332,576.3,1140.074,580.687,1143.729,581.158z"/>
	<path fill="#231F20" d="M1192.22,1464.336c0,10.661,0,21.323,0,31.983c-0.345,0-0.687,0-1.03,0c0-10.661,0-21.322,0-31.983
		C1191.533,1464.336,1191.875,1464.336,1192.22,1464.336z"/>
	<path fill="#716F70" d="M1101.426,892.746c-7.651,7.481-14.745,15.521-22.697,22.7
		C1085.391,906.976,1092.658,899.11,1101.426,892.746z"/>
	<path fill="#CBC3BA" d="M1521.348,2482.669c-3.74-4.512-4.039-12.464-9.285-15.475c0-0.344,0-0.688,0-1.033
		C1517.693,2469.131,1520.061,2475.364,1521.348,2482.669z"/>
	<path fill="#716F70" d="M847.618,130.284c0,6.878,0,13.757,0,20.636c-0.345,0-0.689,0-1.033,0c0-6.879,0-13.757,0-20.636
		C846.928,130.284,847.271,130.284,847.618,130.284z"/>
	<path fill="#231F20" d="M914.679,1376.636c-0.344,0-0.687,0-1.03,0c0-7.564,0-15.132,0-22.697
		C916.056,1359.44,913.993,1369.415,914.679,1376.636z"/>
	<path fill="#CBC3BA" d="M1173.648,1977.114c-3.44,0-6.879,0-10.316,0C1164.449,1975.393,1172.53,1975.393,1173.648,1977.114z"/>
	<path fill="#716F70" d="M834.204,1228.063c0,7.567,0,15.133,0,22.699C832.485,1245.604,832.485,1233.268,834.204,1228.063z"/>
	<path fill="#CBC3BA" d="M1257.221,1024.81c0.299-4.643,12.553,3.354,12.379,9.287
		C1266.335,1030.142,1264.141,1025.11,1257.221,1024.81z"/>
	<path fill="#CBC3BA" d="M720.712,1300.287c6.362,1.333-14.488,1.891-11.35,0C713.145,1300.287,716.928,1300.287,720.712,1300.287z"
		/>
	<path fill="#231F20" d="M916.742,535.763c0,0.342,0,0.687,0,1.03c-3.438,0-6.876,0-10.317,0c0-0.344,0-0.688,0-1.03
		C909.866,535.763,913.304,535.763,916.742,535.763z"/>
	<path fill="#CBC3BA" d="M1286.11,829.81c-4.815,0-9.632,0-14.446,0C1274.115,828.091,1283.658,828.091,1286.11,829.81z"/>
	<path fill="#010101" d="M543.25,1421.002c15.046,26.954-10.703,56.358-39.207,43.333c0-0.344,0-0.688,0-1.032
		c-4.985-1.892-7.609-6.148-11.348-9.287c-1.85-2.62-3.183-5.76-4.126-9.284c0-1.032,0-2.063,0-3.097
		c-0.085-0.729-0.13-1.418-0.216-2.063c-0.043-0.346-0.086-0.646-0.086-0.944c-1.805-26.225,25.925-37.702,45.697-25.88
		C537.876,1414.682,539.64,1418.767,543.25,1421.002z"/>
	<path fill="#CBC3BA" d="M848.648,358.3c0,3.784,0,7.568,0,11.35c-2.364-1.763-0.387-7.867-1.03-11.35
		C847.959,358.3,848.304,358.3,848.648,358.3z"/>
	<path fill="#CBC3BA" d="M495.79,1115.132c0,1.547-0.3,2.75-1.03,3.566c-3.097,0-6.19,0-9.287,0
		C480.357,1117.323,494.931,1118.397,495.79,1115.132z"/>
	<path fill="#CBC3BA" d="M1541.98,1386.955c0.774,0.214,0.991-0.302,1.033-0.905c0,8.729-18.013,22.914-27.855,27.729
		c0-1.03,0.814-1.247,1.029-2.063c3.871-0.603,5.332-3.609,8.256-5.16c0.343,0,0.688,0,1.029,0
		c4.215-3.352,7.997-7.134,11.353-11.348c0-0.344,0-0.688,0-1.032C1538.502,1391.728,1540.521,1389.619,1541.98,1386.955z"/>
	<path fill="#231F20" d="M861.028,1320.921c4.213,3.354,7.998,7.137,11.35,11.35
		C868.165,1328.919,864.383,1325.135,861.028,1320.921z"/>
	<path fill="#716F70" d="M1303.648,1411.716c0.344,0,0.688,0,1.032,0c-4.472,7.225-10.62,12.771-17.541,17.54
		C1292.387,1423.152,1299.135,1418.55,1303.648,1411.716z"/>
	<path fill="#CBC3BA" d="M920.87,435.681c-1.031,0-2.064,0-3.094,0c-1.764-2.362-7.868-0.385-11.351-1.029
		C905.309,433.146,920.053,432.371,920.87,435.681z"/>
	<path fill="#CBC3BA" d="M1358.332,1456.081c1.505,4.171-8.512-3.697-8.254-8.253c0.816,0.216,1.029,1.032,2.063,1.032
		C1353.561,1451.911,1356.913,1453.028,1358.332,1456.081z"/>
	<path fill="#231F20" d="M731.029,1060.921c0,3.782,0,7.567,0,11.35c-0.344,0-0.689,0-1.033,0c0-3.782,0-7.567,0-11.35
		C730.34,1060.921,730.686,1060.921,731.029,1060.921z"/>
	<path fill="#CBC3BA" d="M542.219,1338.462c-9.586-2.105-14.918-8.468-17.54-17.541
		C529.237,1328.058,534.266,1334.722,542.219,1338.462z"/>
	<path fill="#231F20" d="M816.664,1494.257c-3.569,5.029-7.438,9.759-12.381,13.411
		C808.452,1503.241,812.064,1498.253,816.664,1494.257z"/>
	<path fill="#CBC3BA" d="M1488.332,3053.229c0,9.627,0,19.258,0,28.889c-0.344,0-0.688,0-1.031,0
		C1487.988,3072.831,1485.926,3060.794,1488.332,3053.229z"/>
	<path fill="#CBC3BA" d="M1134.442,486.238c-3.611,4.985-8.728,8.469-12.382,13.412c-2.021,0.303-2.063-1.375-3.097-2.063
		c0-0.344,0-0.687,0-1.03C1125.758,498.317,1127.692,487.828,1134.442,486.238z"/>
	<path fill="#716F70" d="M902.299,334.57c-6.189,0-12.381,0-18.57,0c0-0.344,0-0.688,0-1.03
		C889.574,334.226,898.172,332.162,902.299,334.57z"/>
	<path fill="#CBC3BA" d="M496.823,1108.382c-3.441,0.988-10.964-2.752-12.384-7.221
		C487.708,1104.427,492.695,1106.018,496.823,1108.382z"/>
	<path fill="#FFFFFF" d="M1010.633,410.921c8.555-6.707,25.32-12.252,23.73,2.063c-0.816,7.479-11.563,8.77-15.478,15.475
		C1014.846,423.946,1011.966,418.186,1010.633,410.921z"/>
	<path fill="#CBC3BA" d="M1452.219,1274.494c-9.412,2.966-15.988,8.77-23.729,13.414c-3.869,3.008-7.309,6.448-10.318,10.316
		c-1.762,4.083-4.254,7.438-7.222,10.317C1418.172,1291.345,1434.766,1278.018,1452.219,1274.494z"/>
	<path fill="#010101" d="M1079.761,418.142c4.944,4.385,10.316,18.057,7.222,23.73c-4.387-4.557-1.979-15.905-9.286-17.54
		C1077.18,421.065,1080.879,422.01,1079.761,418.142z"/>
	<path fill="#010101" d="M955.949,460.444c15.82,34.047-3.053,74.112-39.207,75.317c-3.438,0-6.876,0-10.317,0
		c-25.449-3.784-40.495-17.971-44.364-43.334c0-4.471,0-8.941,0-13.414c0-1.032,0-2.063,0-3.096
		c1.461-7.824,4.472-14.1,8.254-19.602c3.826-4.43,7.953-8.557,12.381-12.382c6.621-4.041,13.026-8.296,23.729-8.255
		c3.783,0,7.567,0,11.351,0c1.029,0,2.063,0,3.094,0c8.813,1.505,15.82,4.816,21.667,9.287c0,0.345,0,0.687,0,1.031
		C948.168,449.653,951.479,455.629,955.949,460.444z"/>
	<path fill="#CBC3BA" d="M941.505,1362.192c0.344,0,0.688,0,1.031,0c-2.408,2.407-1.288,8.34-3.094,11.35
		C939.398,1369.027,938.84,1363.997,941.505,1362.192z"/>
	<path fill="#CBC3BA" d="M1487.301,1271.397c-1.72,0-3.438,0-5.16,0c-1.418-2.363-7.179-0.387-10.316-1.031
		C1461.034,1269.809,1486.742,1267.271,1487.301,1271.397z"/>
	<path fill="#716F70" d="M1345.951,1295.128c1.72,1.119,1.72,9.2,0,10.317C1345.951,1302.007,1345.951,1298.568,1345.951,1295.128z"
		/>
	<path fill="#231F20" d="M1071.505,746.239c-3.783,0-7.564,0-11.348,0c0-0.344,0-0.689,0-1.033
		C1063.64,745.851,1069.743,743.873,1071.505,746.239z"/>
	<path fill="#010101" d="M859.998,923.699c-2.366,14.487-6.492,27.213-8.253,42.301c-14.23-2.966-28.763-5.629-42.303-9.284
		c2.279-14.229,6.189-26.826,8.254-41.27C832.613,917.381,845.165,921.68,859.998,923.699z"/>
	<path fill="#231F20" d="M830.077,1440.606c1.72,3.479,1.72,14.058,0,17.538C830.077,1452.298,830.077,1446.451,830.077,1440.606z"
		/>
	<path fill="#CBC3BA" d="M1489.364,2960.37c0,9.63,0,19.261,0,28.893c-0.345,0-0.688,0-1.032,0
		C1489.021,2979.976,1486.956,2967.938,1489.364,2960.37z"/>
	<path fill="#CBC3BA" d="M453.488,953.62c-1.033,0-2.063,0-3.097,0c-2.105-2.364-8.554-0.387-12.381-1.031
		C433.241,951.687,453.188,949.623,453.488,953.62z"/>
	<path fill="#CBC3BA" d="M813.567,1099.096c2.924,1.333-8.898,1.979-9.284,0C807.377,1099.096,810.474,1099.096,813.567,1099.096z"
		/>
	<path fill="#231F20" d="M1428.49,1287.907c-3.008,3.868-6.449,7.307-10.318,10.316
		C1421.182,1294.354,1424.621,1290.915,1428.49,1287.907z"/>
	<path fill="#010101" d="M1269.6,1034.097c5.978,13.497-1.89,27.428-14.441,28.889c-2.407,0-4.816,0-7.225,0
		c-5.416-2.149-10.918-4.213-13.41-9.284c-0.602-2.149-2.537-2.924-2.064-6.192c-1.461-13.152,5.03-18.354,12.382-22.697
		c2.707-1.979,9.456-1.075,12.381,0C1264.141,1025.11,1266.335,1030.142,1269.6,1034.097z"/>
	<path fill="#010101" d="M1096.27,433.618c1.891,3.354,6.231-2.149,8.253,1.033c-1.85,2.922-6.319,3.31-10.316,4.127
		c-3.869-7.568,6.275-15.046,0-21.667c-3.568-0.476-0.603,5.588-3.097,6.19c-3.911,0.688-1.934-7.224-1.031-8.254
		C1101.942,410.274,1100.095,427.47,1096.27,433.618z"/>
	<path fill="#CBC3BA" d="M488.568,1441.636c0,1.033,0,2.064,0,3.098c-3.654-2.064-2.021-19.648-0.303-6.104
		c0,0.3,0.045,0.601,0.085,0.944C488.396,1440.262,488.483,1440.948,488.568,1441.636z"/>
	<path fill="#231F20" d="M1482.141,1271.397c-3.438,0-6.877,0-10.316,0c0-0.344,0-0.687,0-1.031
		C1474.962,1271.011,1480.723,1269.034,1482.141,1271.397z"/>
	<path fill="#231F20" d="M1281.98,892.746c0,0.344,0,0.688,0,1.033c-5.157,0-10.316,0-15.475,0
		C1269.645,891.415,1277.168,893.435,1281.98,892.746z"/>
	<path fill="#231F20" d="M959.045,108.617c1.721,3.482,1.721,14.057,0,17.54C959.045,120.311,959.045,114.466,959.045,108.617z"/>
	<path fill="#716F70" d="M846.584,274.729c0,6.189,0,12.38,0,18.57C844.865,289.476,844.865,278.556,846.584,274.729z"/>
	<path fill="#010101" d="M1233.49,578.063c3.781,9.801,6.32,18.484,10.315,25.794c-2.752,3.438-8.168,4.213-11.349,7.223
		c6.148,18.957,11.737,38.475,18.572,56.745c-39.681,16.379-81.036,31.081-122.778,45.396c-7.007-20.85-16.42-39.293-23.729-59.841
		c-6.02-0.172-8.385,3.312-13.413,4.127c-6.966-17.798-13.8-35.724-22.698-51.587c-9.199-4.213-17.325-9.501-24.762-15.478
		c-6.02-5.673-11.864-11.521-17.541-17.54c-21.536-25.967-32.887-66.031-21.665-106.27c1.805-6.492,7.134-13.929,7.221-19.604
		c0.13-8.384-7.134-18.573-10.315-26.827c-3.782-9.8-6.32-18.484-10.316-25.793c2.751-3.438,8.167-4.212,11.35-7.221
		c-6.146-18.959-11.737-38.476-18.572-56.748c39.679-16.379,81.078-31.037,122.778-45.397c7.052,20.851,16.421,39.293,23.729,59.841
		c6.019,0.172,8.384-3.31,13.413-4.126c6.965,17.798,13.8,35.725,22.696,51.587c9.201,4.213,17.326,9.5,24.764,15.477
		c0,0.344,0,0.688,0,1.032c7.181,4.168,11.605,11.09,17.541,16.507c21.537,25.966,32.888,66.076,21.664,106.27
		c-1.806,6.492-7.136,13.93-7.222,19.604C1223.043,559.621,1230.309,569.81,1233.49,578.063z M1224.203,587.35
		c-1.632-6.447-4.385-16.724-9.284-16.509c-7.566,5.459-21.452,15.907-8.255,24.764
		C1213.198,593.541,1218.229,589.971,1224.203,587.35z M1193.252,562.587c29.749-28.287,29.749-99.65,0-127.936
		c-3.354-4.213-7.137-7.998-11.35-11.35c-28.287-29.749-99.649-29.749-127.937,0c-4.215,3.353-7.998,7.137-11.35,11.35
		c-29.749,28.285-29.749,99.648,0,127.936c3.352,4.212,7.135,7.995,11.35,11.35c28.286,29.748,99.648,29.748,127.937,0
		C1186.115,570.582,1189.898,566.799,1193.252,562.587z M1116.901,381c9.329,0.73,15.478-1.763,24.764-1.032
		c-0.815-7.437-4.86-11.65-7.223-17.541c-7.695,1.377-15.262,7.954-21.667,7.223C1113.592,373.991,1115.57,377.173,1116.901,381z
		 M1122.061,628.618c0.604-15.519-15.688-10.445-28.889-10.317c0.816,7.438,4.859,11.65,7.223,17.54
		C1108.476,634.25,1112.947,629.134,1122.061,628.618z M1034.363,412.984c1.59-14.315-15.178-8.77-23.73-2.063
		c1.333,7.265,4.213,13.025,8.254,17.538C1022.8,421.754,1033.547,420.463,1034.363,412.984z"/>
	<path fill="#716F70" d="M1283.015,3118.229c0.259,7.909,4.943,37.914-3.097,44.361
		C1286.41,3153.307,1281.468,3132.5,1283.015,3118.229z"/>
	<path fill="#CBC3BA" d="M1718.411,3043.943c1.721,2.791,1.721,12.683,0,15.474
		C1718.411,3054.258,1718.411,3049.103,1718.411,3043.943z"/>
	<path fill="#231F20" d="M679.441,1442.669c0,4.471,0,8.939,0,13.412c-2.235,0.171-0.475-3.652-1.033-5.158c0-2.752,0-5.504,0-8.254
		C678.753,1442.669,679.097,1442.669,679.441,1442.669z"/>
	<path fill="#716F70" d="M651.584,433.618c7.867,0.044,16.379-0.559,21.667,2.063c-7.437-0.128-13.414-1.718-21.667-1.029
		C651.584,434.307,651.584,433.963,651.584,433.618z"/>
	<path fill="#231F20" d="M1553.331,1340.524c-0.646,3.826,1.334,10.274-1.03,12.381c0-4.126,0-8.254,0-12.381
		C1552.645,1340.524,1552.988,1340.524,1553.331,1340.524z"/>
	<path fill="#010101" d="M746.506,291.236c0.772,4.901-1.16,7.095-1.033,11.35c-0.815,2.277-2.148,4.041-2.063,7.223
		c-4.171,5.801-8.984,10.961-14.444,15.475c-3.955,1.893-9.501,2.193-13.413,4.128c-2.408,0-4.815,0-7.224,0
		c-16.207-3.74-28.802-11.091-30.95-28.89c0-3.782,0-7.565,0-11.35c2.535-16.721,12.166-26.353,28.887-28.888
		c3.785,0,7.567,0,11.351,0C735.284,262.563,742.852,274.943,746.506,291.236z"/>
	<path fill="#716F70" d="M648.488,1338.462c0.344,0,0.688,0,1.033,0c-3.139,2.365-10.619,0.386-15.477,1.033
		c-1.033,0-2.063,0-3.096,0c0-0.345,0-0.688,0-1.033C636.796,1338.462,642.643,1338.462,648.488,1338.462z"/>
	<path fill="#CBC3BA" d="M580.395,889.651c-1.378,0-2.753,0-4.127,0c-1.764-2.363-7.867-0.387-11.35-1.033
		C560.404,887.458,579.75,885.997,580.395,889.651z"/>
	<path fill="#716F70" d="M1386.189,1414.812c-0.216-3.826,10.659,5.976,10.315,12.382
		C1393.498,1422.636,1391.004,1417.606,1386.189,1414.812z"/>
	<path fill="#CBC3BA" d="M902.299,335.603c2.363,2.106,0.387,8.554,1.032,12.381c-0.344,0-0.688,0-1.032,0
		C902.299,343.856,902.299,339.729,902.299,335.603z"/>
	<path fill="#010101" d="M1552.301,1352.905c0.818,3.913-1.246,4.945-1.031,8.256c-1.934,9.759-5.071,18.313-9.287,25.793
		c-1.461,2.664-3.479,4.771-5.156,7.222c-4.559,3.696-8.686,7.825-12.381,12.38c-2.924,1.549-4.385,4.558-8.258,5.16
		c-3.651,2.194-8.252,3.438-11.348,6.19c-5.675,1.206-11.05,2.708-16.508,4.127c-7.564,0-15.134,0-22.698,0
		c-11.134-2.921-22.655-5.545-30.952-11.348c0-0.345,0-0.688,0-1.032c-4.474-4.472-12.08-5.761-14.444-12.381
		c-6.148-6.233-9.673-15.091-14.443-22.699c-1.377-5.803-3.567-10.875-4.129-17.54c0-6.533,0-13.067,0-19.603
		c2.279-10.447,4.472-20.979,9.286-28.89c2.968-2.88,5.46-6.234,7.222-10.317c3.869-3.01,7.312-6.449,10.318-10.316
		c7.739-4.645,14.315-10.447,23.729-13.414c6.234-1.333,11.565-3.568,19.604-3.098c3.439,0,6.878,0,10.316,0c1.724,0,3.44,0,5.16,0
		c17.41,2.539,29.793,10.104,41.271,18.574c0,0.344,0,0.688,0,1.031c5.633,3.31,7.221,10.661,12.381,14.443
		c5.545,9.931,10.661,20.291,11.351,35.079C1552.301,1344.651,1552.301,1348.779,1552.301,1352.905z"/>
	<path fill="#231F20" d="M1095.233,1343.622c2.409,6.534,0.345,17.54,1.034,25.793c-2.407-5.504-0.345-15.478-1.034-22.7
		C1095.233,1345.685,1095.233,1344.651,1095.233,1343.622z"/>
	<path fill="#231F20" d="M916.742,1444.733c2.366,1.419,0.389,7.178,1.033,10.316c-2.321-0.43-0.431-5.072-1.033-7.223
		C916.742,1446.796,916.742,1445.763,916.742,1444.733z"/>
	<path fill="#716F70" d="M880.631,443.935c0.689,0,1.376,0,2.063,0c-4.428,3.827-8.555,7.954-12.38,12.383c0-0.688,0-1.377,0-2.064
		C874.184,451.245,877.624,447.804,880.631,443.935z"/>
	<path fill="#F89521" d="M915.712,1678.938c12.595,22.699,6.19,78.502,6.19,112.459c0,58.037,13.196,136.064-42.303,138.258
		c-17.669,0.688-47.977-14.618-63.97-20.636c-122.262-46.084-245.598-92.813-368.333-137.223
		c-20.333-7.351-40.582-18.874-63.968-19.604c-8.383,5.332-14.66,11.868-14.445,23.732c0.431,25.706,38.046,30.521,58.811,38.174
		c142.038,52.276,276.638,105.668,419.923,157.856c28.759,10.491,61.818,15.733,71.188,41.271
		c5.805,15.776,3.098,40.882,3.098,68.095c0,147.536,0,282.871,0,433.332c0,47.291,6.275,92.643-38.174,94.922
		c-12.897,0.689-32.156-7.608-47.461-13.412c-100.124-38.133-207.297-76.348-308.494-111.43
		c-109.709-38.002-200.287-71.663-308.492-111.428c-23.602-8.688-46.902-14.061-55.714-35.08
		c-9.329-22.313-3.096-74.502-3.096-104.209c0-53.047-11.264-118.736,35.08-123.809c20.506-2.232,49.267,14.702,66.031,20.634
		c127.036,44.968,250.931,92.471,375.556,140.321c20.809,7.993,42.689,17.582,66.033,19.602
		c10.661-7.523,15.391-13.412,13.411-27.855c-3.052-22.271-38.519-26.397-60.872-35.08
		c-70.718-27.426-137.911-50.168-207.382-77.381c-66.589-26.054-140.017-50.855-208.413-77.381
		c-22.139-8.556-53.779-16.809-66.031-28.892c-16.207-15.903-13.413-52.361-13.413-89.764c0-143.843,0-294.862,0-437.46
		c0-24.589-4.213-56.789,2.063-73.254c4.815-12.639,24.247-29.06,40.24-27.857c15.647,1.161,30.22,8.685,46.428,14.444
		c192.809,68.697,384.67,134.817,578.812,207.382C857.934,1648.846,903.587,1657.143,915.712,1678.938z"/>
	<path fill="#CBC3BA" d="M903.331,374.808c1.719,2.108,1.719,11.308,0,13.414C903.331,383.75,903.331,379.279,903.331,374.808z"/>
	<path fill="#010101" d="M903.331,374.808c0,4.472,0,8.942,0,13.414c-3.096,0-6.192,0-9.286,0c-7.223,0.688-17.196-1.375-22.7,1.032
		c-1.72,0-3.438,0-5.157,0c-4.127,0-8.254,0-12.381,0c-1.376,0-2.752,0-4.126,0c-0.646-6.233-1.463-12.296-1.032-19.604
		c0-3.782,0-7.566,0-11.35c0-4.47,0-8.941,0-13.413c0-3.094,0-6.189,0-9.285c7.995,0.086,14.058-1.763,22.697-1.032
		c4.129,0,8.255,0,12.383,0c6.189,0,12.379,0,18.57,0c0,0.344,0,0.688,0,1.032c0,4.127,0,8.254,0,12.381c0,4.126,0,8.253,0,12.38
		c0.645,3.138-1.333,8.9,1.032,10.316C903.331,372.059,903.331,373.433,903.331,374.808z"/>
	<path fill="#716F70" d="M1143.729,971.159c6.793-4.644-4.472,6.449-7.223,8.254
		C1138.439,976.188,1140.936,973.522,1143.729,971.159z"/>
	<path fill="#CBC3BA" d="M1509.999,2462.035c-6.147-5.505-9.759-13.586-17.539-17.54c0-0.346,0-0.689,0-1.028
		C1499.68,2448.324,1506.13,2453.871,1509.999,2462.035z"/>
	<path fill="#CBC3BA" d="M874.441,308.776c4.127,0,8.253,0,12.381,0c-2.105,2.366-8.555,0.386-12.381,1.033
		C874.441,309.465,874.441,309.121,874.441,308.776z"/>
	<path fill="#716F70" d="M848.648,344.887c0,4.471,0,8.942,0,13.413c-0.345,0-0.688,0-1.03,0
		C848.262,354.131,846.284,347.339,848.648,344.887z"/>
	<path fill="#FFFFFF" d="M1214.919,570.841c4.899-0.215,7.652,10.062,9.284,16.509c-5.975,2.622-11.005,6.191-17.539,8.255
		C1193.467,586.748,1207.354,576.3,1214.919,570.841z"/>
	<path fill="#231F20" d="M1116.901,3105.846c7.48,66.681-56.658,96.897-106.27,55.714c0-15.474,0-30.948,0-46.429
		c10.531,16.037,50.601,39.768,63.97,10.32c-0.518-58.938-62.25-84.603-61.905-148.574c0.172-31.768,19.044-57.774,53.649-57.774
		c18.101,0,29.362,8.253,41.271,16.506c0,12.381,0,24.763,0,37.143c-3.998,0.948-8.125-3.609-12.384-6.188
		c-12.896-7.826-45.18-18.141-42.3,14.441c1.978,22.354,21.622,42.772,34.048,60.873
		C1098.761,3059.031,1113.98,3079.838,1116.901,3105.846z"/>
	<path fill="#231F20" d="M720.712,1299.255c0,0.344,0,0.688,0,1.032c-3.784,0-7.567,0-11.35,0c0-0.344,0-0.688,0-1.032
		C713.145,1299.255,716.928,1299.255,720.712,1299.255z"/>
	<path fill="#231F20" d="M339.997,1371.478c-7.781-1.246-11.006,2.064-14.446,5.158
		C327.313,1372.553,334.149,1368.082,339.997,1371.478z"/>
	<path fill="#CBC3BA" d="M630.948,1339.495c1.032,0,2.063,0,3.096,0c-9.631,1.72-26.481,1.72-36.11,0c0.345,0,0.687,0,1.031,0
		C609.625,1339.495,620.287,1339.495,630.948,1339.495z"/>
	<path fill="#CBC3BA" d="M393.646,1283.78c1.506,0.472-0.086,0.902,0,2.063c-2.365,1.762-4.429,3.824-6.19,6.19
		C382.729,1293.453,391.326,1285.241,393.646,1283.78z"/>
	<path fill="#CBC3BA" d="M906.425,536.793c3.441,0,6.879,0,10.317,0C915.626,538.512,907.544,538.512,906.425,536.793z"/>
	<path fill="#CBC3BA" d="M1193.252,562.587c-3.354,4.212-7.137,7.995-11.35,11.35
		C1184.396,568.863,1188.179,565.081,1193.252,562.587z"/>
	<path fill="#231F20" d="M942.536,2795.292c16.981-1.121,28.847,11.003,26.826,28.888c-3.311,29.149-48.88,27.688-49.523-3.094
		C919.581,2808.445,926.932,2796.32,942.536,2795.292z"/>
	<path fill="#CBC3BA" d="M1256.188,1180.604c-1.03,2.063-1.763,4.428-4.127,5.158c-3.438,0-6.877,0-10.316,0
		c-0.689,0-1.376,0-2.063,0c-3.438-2.363-11.35-0.345-16.508-1.031C1233.189,1180.347,1250.601,1189.59,1256.188,1180.604z"/>
	<path fill="#CBC3BA" d="M1089.045,181.872c0.344,0,0.688,0,1.032,0c-1.634,6.448-8.597,12.51-14.446,11.35
		C1080.791,190.125,1086.293,187.375,1089.045,181.872z"/>
	<path fill="#CBC3BA" d="M846.584,150.92c0.344,0,0.688,0,1.033,0c-1.42,2.364-7.182,0.387-10.32,1.03c0-0.344,0-0.688,0-1.03
		C840.395,150.92,843.488,150.92,846.584,150.92z"/>
	<path fill="#716F70" d="M1354.205,924.731c1.719,6.533,1.719,20.291,0,26.823C1354.205,942.614,1354.205,933.671,1354.205,924.731z
		"/>
	<path fill="#231F20" d="M700.076,2935.606c53.563,48.451,50.126,210.649-10.317,240.398c-21.021,10.36-49.18,2.105-59.841-16.508
		c0.172-0.86-0.389-0.944-1.033-1.033c-2.406,47.461-0.344,99.393-1.031,148.574c-14.101,0-28.2,0-42.303,0
		c0-126.906,0-253.812,0-380.717c14.103,0,28.202,0,42.303,0c0.518,6.02-1.16,14.23,1.031,18.571
		c0.861,0.216,0.989-0.385,1.033-1.03C641.095,2919.832,679.828,2917.297,700.076,2935.606z M692.855,3073.863
		c1.719-11.009,1.719-29.231,0-40.24c-2.366-31.423-5.764-67.32-34.051-70.154c-14.099-1.42-27.168,8.252-29.92,20.634
		c-3.738,16.81,0,43.892,0,67.063c0,24.719,0,48.405,0,67.066c8.167,11.477,17.712,23.644,34.048,21.668
		C688.082,3136.888,690.92,3101.332,692.855,3073.863z"/>
	<path fill="#716F70" d="M932.219,1415.843c0,13.413,0,26.826,0,40.238c-2.406-11.348-0.344-27.168-1.029-40.238
		C931.531,1415.843,931.875,1415.843,932.219,1415.843z"/>
	<path fill="#CBC3BA" d="M441.107,1163.065c0,4.125,0,8.253,0,12.38C439.73,1181.594,439.217,1160.187,441.107,1163.065z"/>
	<path fill="#FFFFFF" d="M1093.172,618.301c13.199-0.128,29.492-5.2,28.889,10.317c-9.112,0.516-13.584,5.632-21.666,7.223
		C1098.031,629.951,1093.988,625.738,1093.172,618.301z"/>
	<path fill="#010101" d="M1045.712,506.873c6.492,6.19,8.124,31.854-4.128,18.57c2.107-2.535,4.213,3.44,7.224,0
		c-0.345-2.408-1.247-4.255-2.063-6.19c-0.861,2.236-3.781,2.408-7.224,2.063C1036.771,515.599,1033.33,504.337,1045.712,506.873z
		 M1041.584,508.937c-3.052,2.106-2.063,10.447,4.128,9.286C1045.669,513.793,1044.722,510.269,1041.584,508.937z"/>
	<path fill="#CBC3BA" d="M1543.016,1305.445c-0.474,1.505-0.903-0.084-2.063,0c-5.16-3.783-6.748-11.134-12.381-14.443
		c0-0.344,0-0.687,0-1.031C1535.62,1292.893,1537.855,1300.674,1543.016,1305.445z"/>
	<path fill="#010101" d="M339.997,1371.478c8.082,1.979,10.317,13.756,5.158,20.635c-11.65,7.695-27.126-3.954-19.604-15.477
		C328.991,1373.542,332.215,1370.231,339.997,1371.478z"/>
	<path fill="#231F20" d="M1058.094,1184.732c0,10.315,0,20.634,0,30.95c-0.345,0-0.688,0-1.033,0c0-10.316,0-20.635,0-30.95
		C1057.406,1184.732,1057.749,1184.732,1058.094,1184.732z"/>
	<path fill="#231F20" d="M1536.825,1394.176c0,0.345,0,0.688,0,1.032c-4.214,3.352-7.996,7.135-11.353,11.348
		c-0.343,0-0.688,0-1.029,0C1528.141,1402.001,1532.268,1397.872,1536.825,1394.176z"/>
	<path fill="#231F20" d="M1241.744,1185.763c3.439,0,6.878,0,10.316,0C1250.944,1187.482,1242.862,1187.482,1241.744,1185.763z"/>
	<path fill="#CBC3BA" d="M1106.586,780.287c1.504-1.119,2.276,13.627-1.031,14.442c0-1.03,0-2.063,0-3.094
		C1107.918,789.873,1105.939,783.769,1106.586,780.287z"/>
	<path fill="#716F70" d="M1303.648,893.778c-7.223,0-14.444,0-21.668,0c0-0.344,0-0.688,0-1.033
		C1288.86,893.435,1298.49,891.371,1303.648,893.778z"/>
	<path fill="#F89521" d="M1729.761,1436.479c4.515,10.916,2.063,33.187,2.063,53.65c0,267.009,0,528.983,0,797.542
		c0,22.569,1.677,44.664-4.127,55.715c-11.95,22.651-55.5,29.92-83.57,40.234c-12.813,4.731-21.968,10.018-33.017,8.258
		c-10.964-1.763-21.366-11.437-25.796-21.666c-5.973-13.758-3.094-43.506-3.094-66.034c0-137.009,0-270.792,0-409.605
		c0-29.533,4.644-59.021-24.763-57.774c-23.858,0.985-21.668,23.427-21.668,53.649c0,151.881,0,296.799,0,448.812
		c0,25.45,4.603,59.843-4.126,76.351c-7.996,15.175-30.092,18.57-44.364,25.793c-8.34,0.601-12.983,4.897-20.635,6.191
		c-72.008,27.296-138.856,49.351-212.541,76.348c-10.921,3.998-19.002,8.854-30.952,7.222
		c-36.241-4.941-30.953-39.896-30.953-85.634c0-137.567,0-273.067,0-414.763c0-28.245,2.966-52.62-18.57-53.651
		c-1.118-1.723-9.199-1.723-10.316,0c-10.447,1.592-16.896,7.221-17.539,18.571c-1.72,175.054-1.72,357.33,0,532.382
		c0.729,42.517-36.07,48.834-68.098,59.842c-10.36,3.568-21.494,7.007-33.015,11.349c-11.051,4.173-21.496,10.705-34.049,10.318
		c-18.098-0.558-33.188-12.983-38.177-26.826c-4.254-11.821-2.063-35.597-2.063-54.682c0-260.3,0-523.611,0-784.13
		c0-27.428-2.707-53.049,8.257-67.063c13.584-17.412,45.226-22.099,63.969-30.953c4.771-0.73,8.94-2.063,12.381-4.127
		c41.354-14.702,83.056-29.061,123.809-44.365c5.805-1.075,9.805-3.957,15.478-5.159c26.48-10.662,54.253-18.228,82.54-28.892
		c10.104-3.823,18.185-9.328,28.889-8.254c37.616,3.741,31.986,46.945,31.986,92.859c0,163.362,0,316.445,0,482.855
		c0,32.243-5.59,70.465,28.888,63.97c23.43-4.425,17.54-36.239,17.54-67.063c0-169.896,0-336.007,0-507.62
		c0-33.575-3.999-76.007,8.253-93.889c3.438-3.441,7.953-5.804,11.351-9.287c85.205-27.899,173.85-63.582,260.002-92.856
		C1689.823,1415.24,1717.852,1407.589,1729.761,1436.479z"/>
	<path fill="#231F20" d="M1028.174,799.89c2.707,2.793,3.524,7.479,6.189,10.316C1030.837,808.229,1029.549,804.017,1028.174,799.89
		z"/>
	<path fill="#231F20" d="M1516.188,1411.716c-0.213,0.816-1.028,1.033-1.028,2.063c-4.3,0.517-6.02,3.61-10.318,4.126
		C1507.936,1415.154,1512.535,1413.91,1516.188,1411.716z"/>
	<path fill="#CBC3BA" d="M83.09,3116.165c0.216,0.86,1.033,1.032,1.033,2.064c-0.774-0.174-1.161-0.475-1.419-0.563
		C82.832,3117.156,82.962,3116.639,83.09,3116.165z"/>
	<path fill="#231F20" d="M917.775,1409.653c-0.646,4.513,1.333,11.648-1.033,14.443c0-1.72,0-3.438,0-5.156
		C917.389,1416.143,915.454,1410.769,917.775,1409.653z"/>
	<path fill="#716F70" d="M1348.015,1431.319c-0.517,4.643,0.517,7.736,1.03,11.35c-3.052-1.418-1.805-7.137-2.063-11.35
		C1347.199,1430.158,1348.015,1430.761,1348.015,1431.319z"/>
	<path fill="#716F70" d="M194.519,2805.606c1.721,12.036,1.721,31.298,0,43.334C194.519,2834.499,194.519,2820.054,194.519,2805.606
		z"/>
	<path fill="#716F70" d="M826.98,2926.322c2.407,19.948,0.344,44.366,1.032,66.032
		C825.605,2972.406,827.669,2947.988,826.98,2926.322z"/>
	<path fill="#CBC3BA" d="M1385.156,2970.688c-0.342,0-0.688,0-1.03,0c0-9.632,0-19.262,0-28.889
		C1386.533,2949.365,1384.47,2961.402,1385.156,2970.688z"/>
	<path fill="#716F70" d="M1095.233,1333.304c1.034,3.869,0.775,6.146,0,10.318c0,1.03,0,2.063,0,3.094c-0.344,0-0.685,0-1.028,0
		C1094.85,1342.546,1092.871,1335.754,1095.233,1333.304z"/>
	<path fill="#CBC3BA" d="M522.616,1302.351c0,3.439,0,6.879,0,10.318c-1.119,5.417-2.107-11.22,0-12.381
		C522.616,1300.976,522.616,1301.662,522.616,1302.351z"/>
	<path fill="#231F20" d="M717.616,260.285c-3.783,0-7.565,0-11.351,0C707.729,258.566,716.155,258.566,717.616,260.285z"/>
	<path fill="#716F70" d="M1191.188,407.825c6.964,4.729,12.813,10.575,17.541,17.54c-5.935-5.417-10.359-12.339-17.541-16.507
		C1191.188,408.513,1191.188,408.168,1191.188,407.825z"/>
	<path fill="#716F70" d="M793.964,128.221c0,4.127,0,8.253,0,12.38c-0.342,0-0.687,0-1.031,0c0-4.127,0-8.253,0-12.38
		C793.278,128.221,793.623,128.221,793.964,128.221z"/>
	<path fill="#010101" d="M1027.141,1414.812c4.259,1.935,5.891,6.491,5.159,13.412c-0.602,4.213-3.01,6.62-7.223,7.224
		c-7.781,1.247-11.007-2.063-14.444-5.16c-1.418-0.646-0.172-3.955-2.063-4.127c0.258-9.329,5.072-14.187,14.443-14.444
		c0.172,1.893,3.482,0.646,4.127,2.063C1027.141,1414.123,1027.141,1414.467,1027.141,1414.812z"/>
	<path fill="#716F70" d="M1255.157,1062.984c5.588,1.377-5.848,1.032-8.254,1.032c0.041-0.644,0.172-1.205,1.029-1.032
		C1250.341,1062.984,1252.75,1062.984,1255.157,1062.984z"/>
	<path fill="#231F20" d="M917.775,435.681c-3.783,0-7.567,0-11.351,0c0-0.344,0-0.688,0-1.029
		C909.908,435.296,916.012,433.318,917.775,435.681z"/>
	<path fill="#CBC3BA" d="M711.426,1385.922c-6.579,5.116-11.952,11.437-17.541,17.54
		C697.324,1395.208,703.859,1390.05,711.426,1385.922z"/>
	<path fill="#231F20" d="M450.393,953.62c-4.127,0-8.254,0-12.381,0c0-0.345,0-0.689,0-1.031
		C441.838,953.233,448.287,951.255,450.393,953.62z"/>
	<path fill="#CBC3BA" d="M1095.233,169.491c-1.159-16.335,3.913-1.764-1.028,3.096c0-1.033,0-2.065,0-3.096
		C1094.55,169.491,1094.891,169.491,1095.233,169.491z"/>
	<path fill="#010101" d="M1105.555,791.636c0,1.031,0,2.063,0,3.094c-1.722,30.823-56.146,42.388-71.19,15.478
		c-2.665-2.837-3.482-7.523-6.189-10.316c-8.558-26.269,6.92-51.116,31.983-53.65c3.782,0,7.563,0,11.348,0c1.033,0,2.063,0,3.098,0
		c4.643,0.857,8.039,2.966,12.38,4.126c0,0.344,0,0.687,0,1.031c6.019,3.612,9.931,9.327,14.443,14.445
		c1.85,4.341,4.298,8.082,4.13,14.444C1105.555,784.068,1105.555,787.851,1105.555,791.636z"/>
	<path fill="#CBC3BA" d="M692.855,3033.623c1.719,11.009,1.719,29.231,0,40.24C692.855,3060.449,692.855,3047.037,692.855,3033.623z
		"/>
	<path fill="#231F20" d="M1106.586,780.287c-0.646,3.481,1.332,9.586-1.031,11.349c0-3.785,0-7.566,0-11.349
		C1105.896,780.287,1106.241,780.287,1106.586,780.287z"/>
	<path fill="#231F20" d="M793.964,128.221c-0.342,0-0.687,0-1.031,0c0-3.438,0-6.879,0-10.316
		C795.297,119.323,793.32,125.082,793.964,128.221z"/>
	<path fill="#231F20" d="M621.664,934.016c0,3.785,0,7.568,0,11.351c-0.344,0-0.689,0-1.033,0c0-3.782,0-7.565,0-11.351
		C620.975,934.016,621.32,934.016,621.664,934.016z"/>
	<path fill="#CBC3BA" d="M648.488,433.618c-3.782,0-7.564,0-11.35,0C638.602,431.899,647.027,431.899,648.488,433.618z"/>
	<path fill="#010101" d="M1138.568,484.175c0.044,9.758-10.488,17.668-18.57,22.697c-6.406-6.793-10.275-18.143-14.443-27.857
		c-4.085-9.5-10.578-19.946-8.256-28.889c10.447,12.252,14.832,30.566,21.666,46.43c0,0.344,0,0.688,0,1.03
		c1.033,0.688,1.075,2.366,3.096,2.063c3.655-4.943,8.771-8.427,12.383-13.412C1134.7,484.431,1136.205,483.873,1138.568,484.175z"
		/>
	<path fill="#716F70" d="M1801.984,2409.414c-0.344,0-0.688,0-1.032,0c0-362.14,0-724.242,0-1086.429
		C1803.359,1683.063,1801.296,2047.619,1801.984,2409.414z"/>
	<path fill="#010101" d="M668.092,599.729c0.86,2.58,8.082-1.205,7.223,3.095c-1.205,52.104-3.311,103.305-6.189,153.731
		c16.207,13.025,35.38,23.086,53.65,34.047c-49.61-2.966-101.025-13.154-152.699-17.539c19.56-8.984,43.762-13.328,66.031-19.604
		C646.425,701.872,656.914,650.457,668.092,599.729z"/>
	<path fill="#716F70" d="M917.775,820.524c-3.696,4.557-7.824,8.684-12.381,12.38C909.092,828.347,913.218,824.22,917.775,820.524z"
		/>
	<path fill="#CBC3BA" d="M388.488,2926.322c1.719,80.134,1.719,167.485,0,247.622
		C388.488,3091.402,388.488,3008.863,388.488,2926.322z"/>
	<path fill="#CBC3BA" d="M1247.934,1062.984c-0.857-0.173-0.988,0.389-1.029,1.032c-6.664,0.604-16.035-10.705-12.381-10.316
		C1237.016,1058.771,1242.518,1060.835,1247.934,1062.984z"/>
	<path fill="#231F20" d="M205.869,3092.437c0.344,67.489-61.863,108.634-122.778,73.256c-0.259-10.409-2.45-29.707-1.547-41.962
		c0.344-2.233,0.688-4.253,1.16-6.063c0.258,0.088,0.645,0.39,1.419,0.563c20.42,25.662,75.146,24.457,76.349-18.573
		c0.516-17.842-8.599-38.904-16.508-55.714c-22.053-46.903-59.197-99.395-63.968-156.828c0-4.473,0-8.943,0-13.414
		c-1.033-60.612,59.755-95.178,114.522-68.094c0,14.445,0,28.892,0,43.333c-30.265-18.615-73.21-14.702-69.125,33.021
		c3.225,37.442,28.458,72.563,43.332,102.142C185.406,3017.33,205.654,3049.875,205.869,3092.437z"/>
	<path fill="#716F70" d="M1377.936,870.048c7.266,5.46,13.8,11.65,19.604,18.57c-6.707-5.673-12.683-12.078-19.604-17.538
		C1377.936,870.736,1377.936,870.392,1377.936,870.048z"/>
	<path fill="#716F70" d="M1026.107,572.904c5.677,6.019,11.521,11.866,17.541,17.54
		C1036.686,585.715,1030.837,579.869,1026.107,572.904z"/>
	<path fill="#231F20" d="M1150.95,1214.653c-4.729,5.587-9.888,10.746-15.477,15.477
		C1140.203,1224.54,1145.361,1219.381,1150.95,1214.653z"/>
	<path fill="#231F20" d="M495.79,1114.572c0.044,0.172,0.044,0.302,0,0.43C495.79,1114.874,495.79,1114.744,495.79,1114.572z"/>
	<path fill="#231F20" d="M1288.174,3043.943c0,5.159,0,10.313,0,15.474c-30.609,0-61.218,0-91.828,0
		c1.68,30.094,3.096,59.069,20.637,73.255c20.248,16.382,54.598,3.698,66.032-14.44c-1.547,14.27,3.396,35.076-3.097,44.361
		c-24.461,22.656-68.652,25.235-93.889,0c-43.722-43.721-44.58-186.66,0-229.045c13.931-13.24,39.552-19.091,59.841-9.285
		C1280.479,2940.981,1286.11,2995.318,1288.174,3043.943z M1244.84,3026.402c1.719-1.763,1.719-10.574,0-12.382
		c-0.302-25.965-4.299-61.432-28.891-56.746c-15.519,2.97-16.551,27.386-18.569,46.429c-1.72,5.2-1.72,17.54,0,22.698
		C1213.198,3026.402,1229.02,3026.402,1244.84,3026.402z"/>
	<path fill="#CBC3BA" d="M245.075,2926.322c0,63.278,0,126.563,0,189.843C243.356,3055.291,243.356,2987.195,245.075,2926.322z"/>
	<path fill="#010101" d="M1521.348,2482.669c2.666,7.653,6.534,14.145,8.254,22.7c-1.72,3.655-11.52,7.137-13.414,4.127
		c-10.401-26.395-18.698-54.896-50.553-59.843c0.213-0.813,1.031-1.031,1.031-2.061c7.651-1.294,12.295-5.592,20.635-6.191
		c3.182-0.772,1.978,2.836,5.159,2.064c0,0.339,0,0.684,0,1.028c7.78,3.954,11.392,12.034,17.539,17.54
		c0,2.065,2.838,1.336,2.063,4.126c0,0.345,0,0.689,0,1.032C1517.309,2470.205,1517.607,2478.157,1521.348,2482.669z"/>
	<path fill="#231F20" d="M1401.664,1337.431c0,6.535,0,13.069,0,19.603c-1.418-0.301-0.859-2.578-1.031-4.127
		c0-4.126,0-8.254,0-12.381C1400.548,1339.063,1400.461,1337.603,1401.664,1337.431z"/>
	<path fill="#231F20" d="M1844.285,1297.191c5.461,14.445,2.064,46.3,2.064,70.159c0,336.394,0,663.584,0,1002.861
		c0,24.328,2.104,56.443-4.13,67.062c-5.761,9.804-35.337,17.583-52.618,23.729c-271.949,96.554-537.842,194.354-809.922,290.956
		c-9.242,3.267-23.771,10.103-30.954,9.287c-7.564-0.861-18.87-6.751-28.888-10.32c-218.472-78.111-430.498-155.146-648.97-234.209
		c-55.284-19.987-111.559-40.15-170.238-60.869c-17.11-6.021-45.915-14.018-51.587-24.766c-5.416-10.272-2.063-45.525-2.063-67.063
		c0-329.644,0-653.311,0-984.288c0-25.966-3.096-62.507,5.159-72.222c6.404-7.522,25.02-11.178,37.142-15.477
		c76.393-27.127,149.991-54.253,229.05-82.541c20.678-7.395,48.921-17.755,49.522,12.38c0.516,25.622-38.563,30.567-59.841,38.176
		c-74.287,26.566-142.813,51.027-215.636,77.382c-0.344,0-0.689,0-1.033,0c0.689,355.606-1.375,714.013,1.033,1067.856
		c284.847,103.779,571.889,205.405,856.35,309.524c184.297-65.472,367.99-130.473,551.987-197.063
		c4.856-1.763,12.64-2.708,15.474-8.253c1.896,3.01,11.694-0.472,13.414-4.127c23.387-4.645,45.312-14.531,68.098-22.7
		c67.107-23.989,136.533-48.018,203.254-73.255c0.344,0,0.688,0,1.033,0c-0.689-361.795,1.373-726.351-1.033-1086.429
		c0-0.345,0-0.687,0-1.031c-108.549-37.788-208.932-70.805-318.813-109.364c-16.765-5.891-33.144-10.188-34.047-26.826
		c-2.104-38.863,40.582-17.799,61.905-10.317c98.231,34.478,190.616,63.796,289.92,99.048
		C1814.537,1279.694,1840.331,1286.66,1844.285,1297.191z"/>
	<path fill="#716F70" d="M460.711,1127.985c0.688,0,1.376,0,2.064,0c-3.785,4.127-9.072,6.748-11.351,12.38
		c-0.345,0-0.688,0-1.033,0c0-0.688,0-1.375,0-2.063C454.263,1135.294,457.701,1131.854,460.711,1127.985z"/>
	<path fill="#231F20" d="M576.268,889.651c-3.783,0-7.567,0-11.351,0c0-0.345,0-0.689,0-1.033
		C568.398,889.266,574.503,887.288,576.268,889.651z"/>
	<path fill="#716F70" d="M1050.871,138.538c-3.741,3.482-7.908,6.534-11.352,10.318
		C1041.843,143.955,1045.283,140.173,1050.871,138.538z"/>
	<path fill="#CBC3BA" d="M805.313,1392.112c5.547,4.085,11.736,7.523,13.414,15.478
		C815.117,1401.571,809.571,1397.53,805.313,1392.112z"/>
	<path fill="#CBC3BA" d="M853.807,389.253c4.127,0,8.254,0,12.381,0C864.425,390.973,855.568,390.973,853.807,389.253z"/>
	<path fill="#231F20" d="M625.791,1016.556c-0.645,3.827,1.333,10.275-1.033,12.381c0-4.127,0-8.254,0-12.381
		C625.104,1016.556,625.446,1016.556,625.791,1016.556z"/>
	<path fill="#010101" d="M1452.219,962.906c8.729,22.225,11.954,63.624,5.16,92.857c-3.354,14.443-12.553,30.521-18.57,45.397
		c-6.146,15.174-12.554,30.866-19.603,43.332c-10.619,18.746-28.546,33.833-42.304,49.523c-15.306,17.5-29.104,33.533-41.271,49.523
		c5.546,15.091,10.062,31.212,10.318,51.588c0,3.44,0,6.879,0,10.317c-2.537,46.644-18.832,79.53-41.271,106.271
		c-0.345,0-0.688,0-1.033,0c-4.514,6.834-11.262,11.438-16.508,17.54c-17.711,13.585-36.327,26.267-63.968,29.921
		c-2.493-0.431-2.235,1.892-5.159,1.03c0.216,7.696,1.678,14.144,1.032,22.7c-4.901,9.887-5.936,20.334-8.253,36.109
		c-3.654,24.85-12.211,50.342-16.51,73.256c-5.674,1.201-9.674,4.084-15.478,5.158c6.534-31.297,14.188-61.476,19.604-93.891
		c-1.203-3.266-6.662-2.277-6.19-7.221c0-10.661,0-21.322,0-31.983c0-1.032,0-2.063,0-3.096
		c-24.847-5.073-45.181-14.66-62.938-26.827c0-0.341,0-0.686,0-1.03c-6.704-6.362-14.743-11.392-20.634-18.57
		c-2.104-15.778-12.122-23.645-12.38-41.271c0-1.377,0-2.752,0-4.127c-0.689-8.254,1.374-19.26-1.035-25.793
		c0.776-4.171,1.035-6.449,0-10.318c1.68-46.129,17.242-78.371,40.241-103.174c5.589-4.729,10.747-9.889,15.476-15.477
		c17.195-16.166,40.194-26.524,71.188-28.891c5.851,0,11.694,0,17.542,0c0.688,0,1.374,0,2.063,0c1.118,1.72,9.2,1.72,10.317,0
		c2.364-0.729,3.096-3.095,4.127-5.157c25.149-34.222,47.503-72.354,66.032-113.494c15.089-33.489,27.469-69.814,31.983-115.556
		c1.72-6.534,1.72-20.291,0-26.824c-2.579-24.59-27.686-26.612-50.557-30.953c-5.158-2.408-14.788-0.344-21.667-1.033
		c-4.813,0.689-12.337-1.331-15.475,1.033c-22.958,4.9-38.006,17.712-53.651,29.92c-3.783,3.438-7.866,6.535-11.349,10.316
		c-8.04,5.375-18.015,8.814-30.954,9.287c-9.5,8.727-17.024,19.432-26.824,27.857c-2.794,2.363-5.289,5.029-7.223,8.254
		c-23.087,25.666-48.536,61.001-62.938,98.018c-5.501,14.186-4.299,28.243-9.285,43.332c-2.752,8.342-14.485,16.338-15.476,25.793
		c-1.375,13.241,10.274,25.063,8.253,38.178c0,10.315,0,20.634,0,30.951c0,5.503,0,11.005,0,16.509
		c-4.987,31.812-17.54,56.057-30.953,79.444c-0.342,0-0.687,0-1.03,0c-4.127,8.255-11.907,12.854-17.54,19.603
		c-14.828,16.681-34.821,33.016-65,30.953c-0.343,0-0.688,0-1.031,0c-2.666,1.805-2.107,6.835-2.063,11.35
		c-1.72,11.351-9.028,17.109-7.224,31.983c-2.363,1.419-0.387,7.179-1.03,10.316c0.687,13.069-1.377,28.891,1.03,40.238
		c24.764,78.07,84.604,121.06,122.779,185.717c-3.439,2.063-7.609,3.396-12.382,4.127
		c-42.816-62.423-102.144-108.334-124.842-190.875c-0.645-3.139,1.333-8.896-1.033-10.316c0.087-5.332,1.161-14.575,0-20.636
		c2.366-2.794,0.39-9.932,1.033-14.444c0-1.719,0-3.438,0-5.16c3.783-11.22,0.517-19.56-3.096-27.857
		c-0.688-7.221,1.377-17.195-1.031-22.697c-13.328-6.234-28.287-10.919-39.207-19.604c-0.472-0.902-0.901-1.849-2.063-2.063
		c-3.353-4.213-7.138-7.996-11.351-11.351c-0.558-1.461-1.589-2.536-3.094-3.094c-12.125-18.142-22.011-38.518-23.73-67.063
		c0-7.567,0-15.133,0-22.699c3.869-37.399,16.594-65.946,35.078-88.729c0.345,0,0.688,0,1.033,0
		c4.686-8.384,12.208-13.93,18.57-20.636c16.896-13.025,36.5-23.342,62.938-26.825c4.814,0,9.631,0,14.444,0
		c4.514,1.679,10.963,1.421,15.476,3.096c10.793-35.681,23.518-69.125,38.176-100.079c14.787-31.211,38.132-54.555,58.811-79.444
		c7.952-7.179,15.045-15.218,22.697-22.7c35.424-34.047,78.027-60.916,146.508-61.904c13.07,0,26.139,0,39.207,0
		c39.207,4.127,67.45,19.218,90.795,39.207c0,0.344,0,0.688,0,1.033c6.921,5.459,12.896,11.863,19.604,17.537
		c4.04,2.494,6.274,6.793,10.316,9.287c0,0.344,0,0.689,0,1.033c7.007,5.03,12.938,11.134,18.57,17.539
		C1437.648,930.447,1444.783,943.991,1452.219,962.906z"/>
	<path fill="#CBC3BA" d="M1181.902,423.302c4.213,3.353,7.996,7.137,11.35,11.35
		C1188.179,432.157,1184.396,428.375,1181.902,423.302z"/>
	<path fill="#010101" d="M830.077,1440.606c0,5.845,0,11.691,0,17.538c-2.408,14.102-6.362,26.654-13.413,36.112
		c-4.6,3.996-8.212,8.984-12.381,13.411c-19.906,23.472-81.208,22.958-100.08-1.031c0-0.344,0-0.688,0-1.033
		c-5.632-3.311-7.868-10.015-13.414-13.411c-5.158-10.661-10.403-21.238-11.348-36.112c0-4.472,0-8.94,0-13.412
		c0.988-16.854,7.737-28.029,14.443-39.207c5.588-6.104,10.961-12.424,17.541-17.54c10.231-5.932,21.708-10.62,36.11-12.38
		c5.159,0,10.317,0,15.477,0c17.972,2.321,31.124,9.456,42.302,18.569c4.257,5.418,9.804,9.459,13.414,15.479
		c1.029,1.375,0.988,3.827,3.096,4.126c1.761,4.427,2.578,9.801,5.156,13.414C827.669,1430.631,829.518,1434.974,830.077,1440.606z"
		/>
	<path fill="#716F70" d="M715.553,329.413c7.522,1.848-17.712,1.161-7.224,0C710.736,329.413,713.145,329.413,715.553,329.413z"/>
	<path fill="#CBC3BA" d="M1627.619,3003.703c0,7.563,0,15.135,0,22.698C1625.896,3021.243,1625.896,3008.904,1627.619,3003.703z"/>
	<path fill="#716F70" d="M79.996,2873.701c0,4.471,0,8.94,0,13.414C78.275,2885.012,78.275,2875.81,79.996,2873.701z"/>
	<path fill="#231F20" d="M1718.411,3043.943c0,5.159,0,10.313,0,15.474c-30.606,0-61.216,0-91.826,0
		c1.678,30.094,3.099,59.069,20.638,73.255c20.248,16.382,54.594,3.698,66.029-14.44c-1.545,14.27,3.439,35.076-3.095,44.361
		c-24.462,22.656-68.653,25.235-93.888,0c-43.722-43.721-44.582-186.66,0-229.045c13.971-13.24,39.551-19.091,59.84-9.285
		C1710.717,2940.981,1716.348,2995.318,1718.411,3043.943z M1675.08,3026.402c1.719-1.763,1.719-10.574,0-12.382
		c-0.303-25.965-4.301-61.432-28.891-56.746c-15.521,2.97-16.553,27.386-18.57,46.429c-1.723,5.2-1.723,17.54,0,22.698
		C1643.438,3026.402,1659.258,3026.402,1675.08,3026.402z"/>
	<path fill="#CBC3BA" d="M731.029,1060.921c1.719,1.463,1.719,9.889,0,11.35C731.029,1068.488,731.029,1064.703,731.029,1060.921z"
		/>
	<path fill="#CBC3BA" d="M625.791,1016.556c1.461-9.931,0.988,11.909,1.03,16.509c-2.105,0.302-0.988,3.827-3.095,4.127
		c-0.729-3.825,1.762-4.428,1.031-8.253C627.124,1026.832,625.146,1020.383,625.791,1016.556z"/>
	<path fill="#231F20" d="M955.949,460.444c-4.471-4.815-7.781-10.792-13.413-14.445c0-0.345,0-0.688,0-1.031
		C947.824,449.309,952.855,453.91,955.949,460.444z"/>
	<path fill="#716F70" d="M837.298,150.92c0,0.342,0,0.687,0,1.03c-7.565,0-15.132,0-22.698,0
		C820.102,149.543,830.077,151.606,837.298,150.92z"/>
	<path fill="#010101" d="M757.854,490.365c0,8.253,0,16.507,0,24.762c-2.75,51.931-26.868,82.496-78.412,85.634
		c-2.365-2.406-9.717,0.086-12.381-2.063c-33.231-8.082-59.326-31.467-60.873-70.158c-1.42-35.167,14.013-68.611,28.887-91.825
		c2.667-3.526,10.792-1.591,16.51-2.063c8.253-0.688,14.23,0.901,21.667,1.029c27.169,3.441,57.347,3.869,78.412,13.414
		C754.199,462.378,756.048,476.35,757.854,490.365z"/>
	<path fill="#716F70" d="M1385.156,2970.688c0,5.504,0,11.002,0,16.507c-2.364-3.439-0.342-11.306-1.03-16.507
		C1384.47,2970.688,1384.814,2970.688,1385.156,2970.688z"/>
	<path fill="#010101" d="M805.313,1058.858c24.42-3.268,33.877,32.758,8.255,40.237c-3.095,0-6.19,0-9.284,0
		C783.217,1095.397,785.755,1061.479,805.313,1058.858z"/>
	<path fill="#716F70" d="M763.013,1373.542c-5.159,0-10.316,0-15.477,0C746.419,1372.037,760.732,1371.692,763.013,1373.542z"/>
	<path fill="#FFFFFF" d="M1193.252,434.651c29.749,28.285,29.749,99.648,0,127.936c-5.073,2.494-8.855,6.276-11.35,11.35
		c-28.287,29.748-99.649,29.748-127.937,0c-2.493-5.073-6.278-8.855-11.35-11.35c-29.749-28.287-29.749-99.65,0-127.936
		c5.071-2.494,8.855-6.276,11.35-11.35c28.286-29.749,99.648-29.749,127.937,0C1184.396,428.375,1188.179,432.157,1193.252,434.651z
		 M1191.188,473.854c0.302,2.408,2.192,4.43-1.031,5.16c-3.996,0.903-1.678-4.513-6.19-3.096c-0.042,3.138,2.194,3.999,3.098,6.192
		c11.219,2.363,9.068-11.479,3.094-13.413c2.794-2.194,0.086-7.609-1.031-9.287c-7.479-2.363-11.993,4.599-7.223,8.254
		c3.31-1.075-0.987-5.632,4.127-6.19c0.258,1.46,1.72,1.764,2.063,3.097c1.419,4.168-2.235,3.266-2.063,6.188
		C1186.461,473.083,1191.704,470.59,1191.188,473.854z M1140.632,584.253c11.952,2.021,7.782-11.264,4.127-15.477
		c-3.654-0.559-4.513,1.677-6.189,3.096c-0.603-2.279-2.579-7.695,1.032-8.254c2.663,0.087,1.463,4.813,4.127,2.063
		C1133.28,549.99,1131.948,578.021,1140.632,584.253z M1119.998,506.873c8.082-5.029,18.614-12.939,18.57-22.697
		c-2.363-0.303-3.868,0.256-4.126,2.063c-6.75,1.59-8.686,12.079-15.479,10.317c-6.834-15.862-11.219-34.178-21.666-46.43
		c-2.322,8.942,4.171,19.389,8.256,28.889C1109.723,488.729,1113.592,500.08,1119.998,506.873z M1104.521,434.651
		c-2.021-3.183-6.362,2.321-8.254-1.033c3.826-6.148,5.674-23.344-6.19-18.57c-0.901,1.03-2.88,8.942,1.03,8.254
		c2.494-0.603-0.472-6.666,3.098-6.191c6.275,6.621-3.869,14.1,0,21.667C1098.202,437.961,1102.673,437.573,1104.521,434.651z
		 M1086.98,441.872c3.097-5.674-2.275-19.345-7.221-23.73c1.118,3.869-2.581,2.924-2.064,6.19
		C1085.004,425.967,1082.596,437.315,1086.98,441.872z M1041.584,525.443c12.252,13.284,10.62-12.38,4.128-18.57
		c-12.382-2.536-8.94,8.726-6.19,14.444c3.441,0.344,6.361,0.172,7.224-2.063c0.815,1.937,1.719,3.782,2.063,6.19
		C1045.797,528.884,1043.691,522.908,1041.584,525.443z"/>
	<path fill="#716F70" d="M1376.902,1460.207c3.697,1.635-11.95,1.635-8.254,0C1371.4,1460.207,1374.152,1460.207,1376.902,1460.207z
		"/>
	<path fill="#716F70" d="M1058.094,1215.684c0,2.751,0,5.503,0,8.253c-0.646,2.452,1.288,7.481-1.033,8.256
		c0-5.504,0-11.006,0-16.51C1057.406,1215.684,1057.749,1215.684,1058.094,1215.684z"/>
	<path fill="#CBC3BA" d="M460.711,1127.985c-3.01,3.867-6.448,7.309-10.318,10.316
		C453.403,1134.434,456.841,1130.995,460.711,1127.985z"/>
	<path fill="#716F70" d="M598.965,1338.462c0,0.344,0,0.688,0,1.033c-0.345,0-0.687,0-1.031,0
		c-18.013-0.688-38.734,1.333-55.155-0.989c2.838,0,4.513-2.322,6.663-0.044c12.725,0,25.448,0,38.175,0
		C591.398,1338.462,595.182,1338.462,598.965,1338.462z"/>
	<path fill="#231F20" d="M466.902,1212.589c0,0.345,0,0.688,0,1.031c-6.535-3.094-11.137-8.126-15.478-13.414
		C456.799,1204.119,460.237,1209.966,466.902,1212.589z"/>
	<path fill="#716F70" d="M489.6,2926.322c2.407,19.948,0.345,44.366,1.032,66.032C488.225,2972.406,490.288,2947.988,489.6,2926.322
		z"/>
	<path fill="#716F70" d="M1489.364,2902.594c1.332,1.849,1.978,9.626,0,11.349c-0.989-3.138,2.189-10.445-2.063-10.319
		C1487.516,2902.81,1488.161,2902.421,1489.364,2902.594z"/>
	<path fill="#CBC3BA" d="M883.729,333.54c0,0.342,0,0.686,0,1.03c-4.127,0-8.254,0-12.383,0
		C873.453,332.207,879.901,334.184,883.729,333.54z"/>
	<path fill="#CBC3BA" d="M893.012,844.254c-3.008,3.869-6.449,7.31-10.316,10.317C885.705,850.703,889.145,847.265,893.012,844.254z
		"/>
	<path fill="#010101" d="M1050.871,138.538c21.752-7.738,46.9,3.526,43.334,30.954c0,1.031,0,2.063,0,3.096
		c-0.131,4.341-4,4.943-4.128,9.285c-0.345,0-0.688,0-1.032,0c-2.752,5.503-8.254,8.253-13.414,11.35
		c-28.329,10.231-51.329-20.464-36.109-44.365C1042.963,145.072,1047.13,142.02,1050.871,138.538z"/>
	<path fill="#010101" d="M765.077,623.46c38.218,9.028,22.139,71.619-17.541,57.777c-5.073-3.183-10.317-6.189-14.444-10.316
		c-14.016-18.185-0.988-46.258,19.604-48.494C757.595,622.041,761.294,622.772,765.077,623.46z"/>
	<path fill="#CBC3BA" d="M721.743,1037.191c-4.341-5.632-9.115-10.833-15.478-14.444
		C705.148,1018.534,721.098,1030.872,721.743,1037.191z"/>
	<path fill="#CBC3BA" d="M872.378,1332.271c1.161,0.215,1.592,1.161,2.063,2.063c-6.879-4.127-12.166-9.845-16.508-16.507
		c1.506,0.558,2.536,1.632,3.095,3.094C864.383,1325.135,868.165,1328.919,872.378,1332.271z"/>
	<path fill="#CBC3BA" d="M585.551,2926.322c0,126.905,0,253.811,0,380.717C583.832,3182.541,583.832,3050.82,585.551,2926.322z"/>
	<path fill="#CBC3BA" d="M1086.98,750.366c6.752,3.224,12.382,7.564,14.444,15.477c-4.514-5.117-8.426-10.833-14.444-14.445
		C1086.98,751.052,1086.98,750.71,1086.98,750.366z"/>
	<path fill="#CBC3BA" d="M1395.476,1446.796c1.632,4.082-5.286,8.467-8.256,11.348c-1.504-0.473,0.129-0.902,0-2.063
		c1.419-3.053,4.773-4.169,6.191-7.221C1394.313,1448.385,1395.26,1447.956,1395.476,1446.796z"/>
	<path fill="#CBC3BA" d="M966.268,1091.874c-4.813,0-9.63,0-14.443,0C954.271,1090.155,963.817,1090.155,966.268,1091.874z"/>
	<path fill="#716F70" d="M1400.633,1340.524c0,4.127,0,8.254,0,12.381C1398.913,1351.146,1398.913,1342.289,1400.633,1340.524z"/>
	<path fill="#FFFFFF" d="M1142.695,571.873c0.774,2.58,5.333,7.91,1.032,9.285c-3.653-0.472-3.396-4.857-4.127-8.254
		C1140.419,572.345,1141.276,571.829,1142.695,571.873z"/>
	<path fill="#716F70" d="M874.441,308.776c0,0.345,0,0.689,0,1.033c-7.224,0-14.444,0-21.668,0
		C857.934,307.402,867.563,309.465,874.441,308.776z"/>
	<path fill="#231F20" d="M728.966,325.284c5.459-4.513,10.273-9.674,14.444-15.475C740.271,316.644,735.242,321.587,728.966,325.284
		z"/>
	<path fill="#716F70" d="M490.632,3071.798c-0.688,33.708,1.375,70.16-1.032,102.146
		C490.288,3140.237,488.225,3103.784,490.632,3071.798z"/>
	<path fill="#231F20" d="M1465.634,1422.033c7.564,0,15.134,0,22.698,0c-0.301,1.42-2.579,0.86-4.128,1.032
		c-4.813,0-9.628,0-14.443,0C1468.127,1422.979,1465.848,1423.582,1465.634,1422.033z"/>
	<path fill="#231F20" d="M1532.697,2800.447c0,124.501,0,249,0,373.497c-15.133,0-30.264,0-45.396,0c0-9.286,0-18.573,0-27.858
		c0-15.476,0-30.955,0-46.429c2.407-3.782,0.344-11.995,1.031-17.54c0-9.631,0-19.262,0-28.889c0-15.479,0-30.951,0-46.433
		c2.407-3.782,0.344-12.035,1.032-17.534c0-9.632,0-19.263,0-28.893c0-15.476,0-30.955,0-46.429c1.978-1.722,1.332-9.5,0-11.348
		c-1.203-0.174-1.851,0.215-2.063,1.027c-11.049,30.182-23.688,61.651-36.111,93.894c-2.793,7.264-6.619,27.897-14.444,27.854
		c-7.824-0.043-11.394-21.148-14.444-28.888c-11.949-30.479-25.32-63.366-36.109-93.889c-4.687,9.114-0.775,26.738-2.063,39.207
		c0,9.627,0,19.257,0,28.888c0.688,5.201-1.334,13.067,1.03,16.508c0,15.817,0,31.643,0,47.461c0,9.631,0,19.262,0,28.889
		c0.688,5.504-1.33,13.757,1.033,17.539c0,15.479,0,30.953,0,46.428c0,9.631,0,19.262,0,28.893c0,5.844,0,11.691,0,17.541
		c-15.133,0-30.267,0-45.397,0c0-124.498,0-248.996,0-373.498c13.413,0,26.826,0,40.238,0
		c18.056,45.57,36.929,90.367,54.685,136.193c7.436-9.542,10.918-21.796,15.476-33.02c13.756-33.785,27.728-68.866,41.271-103.175
		C1505.871,2800.447,1519.283,2800.447,1532.697,2800.447z"/>
	<path fill="#CBC3BA" d="M527.773,1287.907c1.377-4.385,11.865-14.145,11.35-10.319c-2.622,2.882-7.479,3.527-8.254,8.256
		C529.537,1286.229,529.237,1287.649,527.773,1287.907z"/>
	<path fill="#CBC3BA" d="M757.854,490.365c1.72,5.846,1.72,18.915,0,24.762C757.854,506.873,757.854,498.619,757.854,490.365z"/>
	<path fill="#010101" d="M488.568,1441.636c-0.085-0.688-0.172-1.374-0.217-2.063
		C488.439,1440.218,488.483,1440.906,488.568,1441.636z"/>
	<path fill="#231F20" d="M1364.521,1411.716c-6.879,3.483-11.994,8.598-15.478,15.478
		C1350.851,1418.681,1356.01,1413.521,1364.521,1411.716z"/>
	<path fill="#716F70" d="M628.885,3158.465c0.646,0.089,1.205,0.173,1.033,1.033c-3.097,46.772,1.03,100.771-2.064,147.541
		C628.541,3257.856,626.479,3205.926,628.885,3158.465z"/>
	<path fill="#231F20" d="M442.138,1163.065c0,4.125,0,8.253,0,12.38c-0.344,0-0.688,0-1.03,0c0-4.127,0-8.255,0-12.38
		C441.45,1163.065,441.794,1163.065,442.138,1163.065z"/>
	<path fill="#231F20" d="M388.488,2926.322c0,82.541,0,165.08,0,247.622c-14.101,0-28.201,0-42.301,0c0-8.943,0-17.887,0-26.826
		c-1.764-0.043-2.666,0.771-3.097,2.063c-6.621,9.284-11.649,17.586-20.634,22.698c-37.574,21.452-78.714-14.743-77.381-55.714
		c0-63.28,0-126.563,0-189.843c14.1,0,28.201,0,42.301,0c0.688,60.873-1.375,124.498,1.033,183.648
		c-3.785,43.293,51.501,30.828,56.745,2.065c2.407-59.842,0.344-124.152,1.032-185.715
		C360.287,2926.322,374.388,2926.322,388.488,2926.322z"/>
	<path fill="#CBC3BA" d="M1553.331,1340.524c1.72-7.137,0.86,12.125,1.033,16.508c-2.107,0.302-0.946,3.826-3.097,4.128
		c-0.213-3.31,1.852-4.343,1.032-8.256C1554.665,1350.8,1552.688,1344.353,1553.331,1340.524z"/>
	<path fill="#231F20" d="M862.061,479.015c0,4.472,0,8.943,0,13.414c-0.344,0-0.688,0-1.032,0
		C861.672,488.258,859.696,481.465,862.061,479.015z"/>
	<path fill="#CBC3BA" d="M1074.602,746.239c-1.032,0-2.063,0-3.097,0c-1.762-2.366-7.865-0.389-11.348-1.033
		C1055.17,744.304,1074.557,742.24,1074.602,746.239z"/>
	<path fill="#010101" d="M870.314,24.015c49.738-3.354,91.354,29.276,88.73,84.603c0,5.849,0,11.694,0,17.54
		c1.375,81.078-72.695,96.857-59.84,182.62c-4.128,0-8.256,0-12.382,0c-4.127,0-8.253,0-12.382,0
		c-6.879,0.689-16.507-1.375-21.666,1.033c-1.03,0-2.063,0-3.095,0c-1.291-5.246-3.354-9.717-3.096-16.51c0-6.19,0-12.381,0-18.57
		c4.299-61.733,51.287-80.778,55.714-142.382c1.719-7.565,1.719-22.354,0-29.92c0.73-41.871-69.386-33.404-55.714,16.507
		c0,3.785,0,7.568,0,11.35c0,6.878,0,13.757,0,20.636c-3.096,0-6.19,0-9.287,0c-7.221,0.687-17.196-1.377-22.698,1.03
		c-1.719,0-3.439,0-5.158,0c-5.158,0-10.317,0-15.478,0c0-3.782,0-7.564,0-11.349c0-4.127,0-8.253,0-12.38
		c-0.645-3.139,1.333-8.897-1.031-10.317C789.582,62.103,820.232,27.367,870.314,24.015z"/>
	<path fill="#CBC3BA" d="M846.584,118.934c2.364,1.763,0.386,7.868,1.033,11.35c-0.346,0-0.689,0-1.033,0
		C846.584,126.502,846.584,122.719,846.584,118.934z"/>
	<path fill="#716F70" d="M1386.189,3156.404c0.344,0,0.688,0,1.029,0c-0.687,5.547,1.377,13.754-1.029,17.54
		C1386.189,3168.096,1386.189,3162.247,1386.189,3156.404z"/>
	<path fill="#716F70" d="M746.506,291.236c0.772-8.382,2.794,11.564-1.033,11.35C745.346,298.332,747.278,296.138,746.506,291.236z"
		/>
	<path fill="#716F70" d="M875.475,806.08c-5.073,5.932-10.576,11.434-16.51,16.507C864.039,816.655,869.54,811.151,875.475,806.08z"
		/>
	<path fill="#231F20" d="M1244.84,1024.81c-7.352,4.344-13.843,9.545-12.382,22.698
		C1228.72,1036.16,1234.479,1025.454,1244.84,1024.81z"/>
	<path fill="#CBC3BA" d="M1053.967,573.937c-4.215-3.354-7.998-7.138-11.35-11.35
		C1047.688,565.081,1051.474,568.863,1053.967,573.937z"/>
	<path fill="#CBC3BA" d="M888.885,1118.699c-6.361,6.707-13.885,12.252-18.57,20.636c-0.345,0-0.688,0-1.032,0
		C874.097,1130.737,880.89,1124.116,888.885,1118.699z"/>
	<path fill="#CBC3BA" d="M902.299,102.427c1.719,7.567,1.719,22.354,0,29.92C902.299,122.375,902.299,112.401,902.299,102.427z"/>
	<path fill="#CBC3BA" d="M880.631,443.935c-3.008,3.869-6.448,7.311-10.316,10.318C873.325,450.384,876.763,446.945,880.631,443.935
		z"/>
	<path fill="#CBC3BA" d="M1042.617,434.651c3.352-4.213,7.135-7.998,11.35-11.35
		C1051.474,428.375,1047.688,432.157,1042.617,434.651z"/>
	<path fill="#716F70" d="M1244.84,3014.021c1.719,1.809,1.719,10.621,0,12.383C1244.84,3022.277,1244.84,3018.149,1244.84,3014.021z
		"/>
	<path fill="#CBC3BA" d="M704.203,1505.604c0,0.344,0,0.688,0,1.032c-5.547-3.741-10.92-7.653-13.414-14.443
		C696.335,1495.59,698.571,1502.294,704.203,1505.604z"/>
	<path fill="#FFFFFF" d="M1045.712,518.222c-6.19,1.161-7.18-7.179-4.128-9.287C1044.722,510.269,1045.669,513.793,1045.712,518.222
		z"/>
	<path fill="#CBC3BA" d="M477.219,1096.001c0,0.345,0,0.689,0,1.031c-8.813-4.256-14.832-11.308-19.604-19.603
		C463.936,1083.835,468.921,1091.572,477.219,1096.001z"/>
	<path fill="#CBC3BA" d="M447.298,2926.322c0,82.541,0,165.08,0,247.622C445.579,3093.81,445.579,3006.456,447.298,2926.322z"/>
	<path fill="#716F70" d="M1487.301,3082.117c0.344,0,0.688,0,1.031,0c-0.688,5.545,1.376,13.758-1.031,17.54
		C1487.301,3093.81,1487.301,3087.964,1487.301,3082.117z"/>
	<path fill="#716F70" d="M393.646,999.017c0,3.097,0,6.19,0,9.286C392.142,1018.964,392.142,988.354,393.646,999.017z"/>
	<path fill="#231F20" d="M679.441,600.761c-3.225-1.16-2.493,1.637-4.127,2.063c0.858-4.3-6.362-0.516-7.223-3.095
		c-0.861,0.173-0.988-0.388-1.031-1.032C669.725,600.847,677.076,598.354,679.441,600.761z"/>
	<path fill="#CBC3BA" d="M346.188,3147.118c0,8.939,0,17.883,0,26.826c-2.408-6.192-0.345-16.853-1.033-24.766
		c-0.473-1.504-0.903,0.131-2.063,0C343.521,3147.89,344.424,3147.075,346.188,3147.118z"/>
	<path fill="#CBC3BA" d="M760.949,1527.271c-3.827-0.644-10.275,1.334-12.38-1.029
		C752.395,1526.885,758.842,1524.907,760.949,1527.271z"/>
	<path fill="#231F20" d="M1420.236,1397.272c-3.438-1.334-4.299-5.332-7.224-7.224c-2.02-5.547-5.716-9.415-7.221-15.478
		C1410.564,1382.182,1414.088,1391.038,1420.236,1397.272z"/>
	<path fill="#716F70" d="M828.014,3071.798c-0.688,33.708,1.375,70.16-1.033,102.146
		C827.669,3140.237,825.605,3103.784,828.014,3071.798z"/>
	<path fill="#716F70" d="M1010.633,3115.131c0,15.479,0,30.955,0,46.429C1008.87,3149.137,1008.956,3124.116,1010.633,3115.131z"/>
	<path fill="#CBC3BA" d="M1340.792,2800.447c0,124.501,0,249,0,373.497C1339.072,3051.853,1339.072,2922.54,1340.792,2800.447z"/>
	<path fill="#CBC3BA" d="M1058.094,1184.732c1.674,6.577,1.762,29.189,0,39.204c0-2.75,0-5.502,0-8.253
		C1058.094,1205.366,1058.094,1195.049,1058.094,1184.732z"/>
	<path fill="#231F20" d="M559.757,2929.415c-1.719,13.461-2.664,27.604-3.094,42.306c-52.19-23.905-62.938,57.521-66.032,100.077
		c-2.407,31.986-0.344,68.439-1.032,102.146c-14.1,0-28.202,0-42.301,0c0-82.543,0-165.082,0-247.623c14.101,0,28.201,0,42.301,0
		c0.688,21.666-1.375,46.084,1.032,66.033C502.668,2967.12,511.395,2900.356,559.757,2929.415z"/>
	<path fill="#231F20" d="M677.379,289.173c0,3.785,0,7.567,0,11.35C675.66,299.062,675.66,290.636,677.379,289.173z"/>
	<path fill="#716F70" d="M871.346,389.253c5.503-2.407,15.478-0.344,22.7-1.032C888.541,390.629,878.569,388.565,871.346,389.253z"
		/>
	<path fill="#231F20" d="M932.219,1405.525c0,3.438,0,6.879,0,10.316c-0.344,0-0.688,0-1.029,0
		C931.833,1412.704,929.855,1406.945,932.219,1405.525z"/>
</g>
<rect x="1719.271" y="2789.616" fill="none" width="223.545" height="412.699"/>
<path fill-rule="evenodd" clip-rule="evenodd" fill="#1A1A1A" d="M1790.596,2797.088c56.333,26.667,16.21,201.807,0,274.459
	C1775.597,2999.53,1731.652,2823.754,1790.596,2797.088z"/>
<path fill-rule="evenodd" clip-rule="evenodd" fill="#1A1A1A" d="M1819.543,3128.817c19.742,54.771-46.143,71.563-62.278,29.284
	C1748.88,3114.633,1796.615,3100.158,1819.543,3128.817z"/>
</svg>
