<?xml version="1.0" encoding="utf-8"?>
<!-- Generator: Adobe Illustrator 15.1.0, SVG Export Plug-In . SVG Version: 6.00 Build 0)  -->
<!DOCTYPE svg PUBLIC "-//W3C//DTD SVG 1.1//EN" "http://www.w3.org/Graphics/SVG/1.1/DTD/svg11.dtd">
<svg version="1.1" id="Layer_1" xmlns="http://www.w3.org/2000/svg" xmlns:xlink="http://www.w3.org/1999/xlink" x="0px" y="0px"
	 width="695px" height="210px" viewBox="0 0 695 210" enable-background="new 0 0 695 210" xml:space="preserve">
<path fill="#1A1A1A" d="M682.762,15.931c20.788,9.841,5.982,74.47,0,101.281C677.229,90.636,661.012,25.771,682.762,15.931z"/>
<path fill="#1A1A1A" d="M693.444,138.345c7.285,20.211-17.027,26.407-22.98,10.807C667.368,133.11,684.983,127.771,693.444,138.345z
	"/>
<g id="XMLID_2_">
	<g>
		<path fill="#CFC6BE" d="M655.406,105.899c-0.054,0-0.108,0-0.163,0c0-0.327,0-0.655,0-0.982c0-0.655,0-1.309,0-1.964
			C655.625,103.608,655.298,104.972,655.406,105.899z"/>
		<path fill="#817E7E" d="M655.243,105.899c0.055,0,0.109,0,0.163,0c-0.108,2.127,0.219,4.691-0.163,6.546c0-0.055,0-0.109,0-0.164
			C655.243,110.154,655.243,108.026,655.243,105.899z"/>
		<path fill="#2B2929" d="M655.243,112.281c0,0.055,0,0.109,0,0.164c-11.237,0-22.475,0-33.712,0
			c-0.375,0.443-0.055,1.575-0.164,2.291c-0.375-0.498-0.054-1.691-0.163-2.455C632.551,112.281,643.896,112.281,655.243,112.281z"
			/>
		<path d="M655.243,105.899c0,2.127,0,4.255,0,6.382c-11.347,0-22.692,0-34.039,0c0.109,0.764-0.212,1.957,0.163,2.455
			c0.109,1.2-0.218,2.837,0.164,3.764c0.348,7.842,2.135,14.23,5.564,18.983c0.586,0.723,1.24,1.378,1.964,1.964
			c1.875,1.344,3.988,2.448,6.873,2.782c0.825,0.272,2.782,0.272,3.6,0c4.234-0.512,7.133-2.359,9.819-4.419
			c0.995-0.858,1.923-1.786,2.782-2.781c0.13-0.525,0.593-0.717,0.818-1.146c0.511-0.204,0.32-0.538,0.49,0
			c0.096,0.308,0.164,0.642,0.205,1.003c0,0.007,0,0.007,0,0.007c0,0.709-0.041,1.5-0.041,1.937c0,0.443,0,0.906,0,1.384
			c-0.075,1.064-0.164,2.162-0.164,3.198c0,2.721,0,5.332,0,7.527c-0.225,0.484-0.757,0.662-0.981,1.146
			c-4.337,3.518-9.028,6.682-16.528,7.036c-0.928,0-1.854,0-2.782,0c-20.184-1.315-26.238-20.92-27.656-40.912
			c0-0.545,0-1.091,0-1.637c-0.103-0.552,0.211-1.521-0.164-1.8c0-0.382,0-0.764,0-1.146c0-2.019,0-4.036,0-6.055
			c0-0.437,0-0.873,0-1.31c0.375-0.279,0.062-1.248,0.164-1.8c0.225-9.73,1.875-19.181,5.4-26.838
			c3.334-7.242,8.209-14.408,18.165-15.056c1.091,0,2.182,0,3.272,0c17.845,1.657,21.138,21.104,22.584,39.112
			c-0.048,1.193,0.293,2.005,0.163,3.273c0.103,0.607-0.211,1.63,0.164,1.964C655.243,105.245,655.243,105.572,655.243,105.899z
			 M639.205,100.335c0.273-0.498,0.273-2.121,0-2.619c-0.108-1.309,0.219-3.055-0.163-4.091c-0.58-7.93-1.507-15.512-6.71-18.819
			c-9.9-1.555-10.017,9.362-10.965,17.837c-0.375,0.655-0.054,2.019-0.163,2.946c-0.375,0.709-0.055,2.127-0.164,3.109
			c0,0.545,0,1.091,0,1.637C627.096,100.335,633.15,100.335,639.205,100.335z"/>
		<path fill="#2B2929" d="M655.243,102.954c0,0.655,0,1.309,0,1.964c-0.375-0.334-0.062-1.357-0.164-1.964
			C655.134,102.954,655.188,102.954,655.243,102.954z"/>
		<path fill="#817E7E" d="M655.243,102.954c-0.055,0-0.109,0-0.164,0c0.13-1.268-0.211-2.08-0.163-3.273
			C655.611,100.185,655.072,101.924,655.243,102.954z"/>
		<path d="M653.647,134.893c0.109,0.968,0.041,2.12-0.041,3.32c0-0.478,0-0.94,0-1.384
			C653.606,136.393,653.647,135.602,653.647,134.893z"/>
		<path fill="#817E7E" d="M652.952,133.883c0.593-1.186,0.702-0.197,0.695,1.003c-0.041-0.361-0.109-0.695-0.205-1.003
			C653.272,133.345,653.463,133.679,652.952,133.883z"/>
		<path fill="#817E7E" d="M653.606,138.213c0,3.717,0,8.34,0,11.054c-0.423,0.177-0.784,0.416-0.981,0.818c-0.055,0-0.109,0-0.164,0
			c0.225-0.484,0.757-0.662,0.981-1.146c0-2.195,0-4.807,0-7.527C653.442,140.375,653.531,139.277,653.606,138.213z"/>
		<path fill="#2B2929" d="M651.643,135.356c0.219-0.055,0.259-0.287,0.491-0.327c-0.859,0.995-1.787,1.923-2.782,2.781
			c0.034-0.129,0.164-0.163,0.164-0.327C650.293,136.843,651.002,136.134,651.643,135.356z"/>
		<path fill="#CFC6BE" d="M651.643,135.356c-0.641,0.777-1.35,1.486-2.127,2.127C650.156,136.706,650.865,135.997,651.643,135.356z"
			/>
		<path fill="#2B2929" d="M635.933,142.229c1.2,0,2.4,0,3.6,0C638.715,142.502,636.758,142.502,635.933,142.229z"/>
		<path fill="#2B2929" d="M639.205,97.717c0.273,0.498,0.273,2.121,0,2.619c0-0.055,0-0.109,0-0.164
			C639.205,99.354,639.205,98.535,639.205,97.717z"/>
		<path fill="#817E7E" d="M639.205,100.171c0,0.055,0,0.109,0,0.164c-6.055,0-12.109,0-18.165,0c0-0.546,0-1.091,0-1.637
			c0.055,0,0.109,0,0.164,0c0,0.491,0,0.982,0,1.473c5.946,0,11.892,0,17.838,0C639.097,100.171,639.15,100.171,639.205,100.171z"/>
		<path fill="#CFC6BE" d="M639.205,97.717c0,0.818,0,1.637,0,2.455c-0.055,0-0.108,0-0.163,0c0-2.182,0-4.364,0-6.546
			C639.424,94.662,639.097,96.408,639.205,97.717z"/>
		<path fill="#FFFFFF" d="M639.042,93.625c0,2.182,0,4.364,0,6.546c-5.946,0-11.892,0-17.838,0c0-0.491,0-0.981,0-1.473
			c0-0.055,0-0.109,0-0.164c0.382-1.637,0.055-3.982,0.163-5.892c0.948-8.476,1.064-19.392,10.965-17.837
			C637.535,78.113,638.462,85.695,639.042,93.625z"/>
		<path fill="#2B2929" d="M633.15,157.121c0.928,0,1.854,0,2.782,0C635.38,157.395,633.703,157.395,633.15,157.121z"/>
		<path fill="#2B2929" d="M632.332,60.569c-1.091,0-2.182,0-3.272,0C629.775,60.296,631.623,60.296,632.332,60.569z"/>
		<path fill="#2B2929" d="M629.06,139.283c0,0.055,0,0.109,0,0.164c-0.724-0.586-1.378-1.241-1.964-1.964
			c0.136,0.034,0.163,0.164,0.327,0.164C627.9,138.261,628.445,138.807,629.06,139.283z"/>
		<path fill="#CFC6BE" d="M627.423,137.647c0.613,0.477,1.159,1.022,1.637,1.636C628.445,138.807,627.9,138.261,627.423,137.647z"/>
		<path fill="#CFC6BE" d="M621.531,112.445c0,2.019,0,4.037,0,6.055c-0.382-0.927-0.055-2.563-0.164-3.764
			C621.477,114.021,621.156,112.889,621.531,112.445z"/>
		<path fill="#CFC6BE" d="M621.367,92.644c-0.108,1.91,0.219,4.255-0.163,5.892c0-0.982,0-1.964,0-2.946
			C621.313,94.662,620.992,93.298,621.367,92.644z"/>
		<path fill="#2B2929" d="M621.204,98.535c0,0.055,0,0.109,0,0.164c-0.055,0-0.109,0-0.164,0c0.109-0.982-0.211-2.4,0.164-3.109
			C621.204,96.571,621.204,97.553,621.204,98.535z"/>
		<path fill="#817E7E" d="M605.494,114.572c0,0.546,0,1.092,0,1.637c-0.375-0.225-0.062-1.139-0.164-1.637
			C605.385,114.572,605.439,114.572,605.494,114.572z"/>
		<path fill="#2B2929" d="M605.494,102.463c-0.103,0.552,0.211,1.521-0.164,1.8c0-0.6,0-1.2,0-1.8
			C605.385,102.463,605.439,102.463,605.494,102.463z"/>
		<path fill="#2B2929" d="M605.33,112.772c0.375,0.279,0.062,1.248,0.164,1.8c-0.055,0-0.109,0-0.164,0
			C605.33,113.973,605.33,113.373,605.33,112.772z"/>
		<path fill="#CFC6BE" d="M605.33,112.772c0,0.601,0,1.2,0,1.8c-0.375-0.654-0.055-2.018-0.164-2.945c0.055,0,0.109,0,0.164,0
			C605.33,112.009,605.33,112.391,605.33,112.772z"/>
		<path fill="#817E7E" d="M605.33,105.572c0,2.019,0,4.036,0,6.055c-0.055,0-0.109,0-0.164,0c0-2.019,0-4.036,0-6.055
			C605.221,105.572,605.275,105.572,605.33,105.572z"/>
		<path fill="#CFC6BE" d="M605.33,104.263c0,0.437,0,0.873,0,1.31c-0.055,0-0.109,0-0.164,0c0.109-0.982-0.211-2.4,0.164-3.109
			C605.33,103.063,605.33,103.663,605.33,104.263z"/>
		<path fill="#2B2929" d="M586.511,16.383c0,46.095,0,92.189,0,138.284c-0.055,0-0.109,0-0.164,0c0-42.617,0-89.864,0-133.865
			c0-1.534,0.15-4.077,0-4.254c-0.068-0.082-0.204-0.144-0.409-0.191C586.136,16.363,586.319,16.37,586.511,16.383z"/>
		<path fill="#CFC6BE" d="M586.347,154.667c0.055,0,0.109,0,0.164,0c-5.455,0.272-12.056,0.272-17.511,0c0.055,0,0.109,0,0.164,0
			C574.892,154.667,580.619,154.667,586.347,154.667z"/>
		<path d="M586.347,16.547c0.15,0.177,0,2.72,0,4.254c0,44.001,0,91.248,0,133.865c-5.728,0-11.455,0-17.183,0
			c0-1.855,0-3.71,0-5.564c0-1.036,0-2.073,0-3.109c0.382-1.582,0.055-3.873,0.163-5.728c0-2.128,0-4.255,0-6.383
			c0-0.545,0-1.091,0-1.636c0.382-1.854,0.055-4.419,0.164-6.546c0-2.346,0-4.691,0-7.037c0.382-2.4,0.055-5.51,0.163-8.183
			c0-1.854,0-3.709,0-5.564c0.382-3.109,0.055-6.928,0.164-10.31c0-1.309,0-2.618,0-3.927c0.382-3.164,0.055-7.037,0.164-10.474
			c0-1.855,0-3.709,0-5.564c0-0.273,0-0.545,0-0.818c0.382-2.346,0.054-5.4,0.163-8.019c0-1.636,0-3.273,0-4.909
			c0-1.255,0-2.509,0-3.764c0.219-0.552,0.409-2.482-0.163-2.782c-1.323,1.575-1.78,3.696-2.455,5.564
			c-4.712,13.126-10.446,26.477-15.22,39.767c-1.111-0.198-3.075,0.464-3.437-0.484V99.19c-5.68-14.885-11.455-29.675-17.02-44.676
			c0-0.164-0.129-0.198-0.163-0.327c-1.098,0.457-0.655,2.318-0.655,3.764c0,1.562-0.122,3.328,0.164,4.418c0,2.127,0,4.255,0,6.382
			c0.109,2.346-0.218,5.128,0.164,7.201c0,0.272,0,0.545,0,0.818c0,2.182,0,4.364,0,6.546c0.108,2.073-0.219,4.582,0.163,6.382
			c0,1.036,0,2.073,0,3.109c0,1.636,0,3.273,0,4.909c0.109,1.8-0.218,4.037,0.164,5.564c-0.103,0.935,0.062,2.537,0,3.928
			c0,1.636,0,3.272,0,4.909c0.108,2.618-0.219,5.673,0.163,8.019c0,0.272,0,0.546,0,0.818c0,1.854,0,3.709,0,5.564
			c0.109,3.382-0.218,7.2,0.164,10.31c0,1.363,0,2.728,0,4.091c0.109,3.382-0.219,7.201,0.163,10.311c0,1.146,0,2.291,0,3.437
			c-5.728,0-11.455,0-17.183,0c0.109-46.04-0.219-92.517,0.163-138.284c4.965,0.109,10.365-0.218,15.056,0.164
			c6.751,16.814,13.638,33.493,20.293,50.404c2.087-3.996,3.587-8.326,5.236-12.601c4.01-10.378,8.688-21.022,12.929-31.584
			c0.866-2.155,1.65-4.589,2.618-6.382c1.739,0,4.835,0,7.691,0c0.723,0,2.284-0.102,3.777-0.15c0.014-0.007,0.034-0.007,0.055,0
			c1.064,0.027,2.107,0.068,3.103,0.116c0.007,0,0.014,0,0.021,0.006C586.143,16.404,586.278,16.465,586.347,16.547z"/>
		<path d="M582.814,16.233c1.255-0.034,2.469-0.027,3.103,0.116C584.922,16.302,583.879,16.261,582.814,16.233z"/>
		<path fill="#2B2929" d="M571.291,16.383c3.505-0.205,7.644-0.252,11.469-0.15c-1.493,0.048-3.055,0.15-3.777,0.15
			C576.126,16.383,573.03,16.383,571.291,16.383z"/>
		<path fill="#2B2929" d="M569.982,54.35c0.572,0.3,0.382,2.229,0.163,2.782c0-0.764,0-1.527,0-2.291
			C570.193,54.575,569.989,54.562,569.982,54.35z"/>
		<path fill="#817E7E" d="M570.146,60.896c0,1.636,0,3.273,0,4.909c-0.055,0-0.109,0-0.163,0c0-1.636,0-3.273,0-4.909
			C570.036,60.896,570.091,60.896,570.146,60.896z"/>
		<path fill="#CFC6BE" d="M570.146,57.132c0,1.255,0,2.509,0,3.764c-0.055,0-0.109,0-0.163,0c0.108-1.964-0.219-4.364,0.163-6.055
			C570.146,55.604,570.146,56.368,570.146,57.132z"/>
		<path fill="#2B2929" d="M569.982,65.805c0.054,0,0.108,0,0.163,0c-0.109,2.619,0.219,5.673-0.163,8.019c0-0.818,0-1.637,0-2.455
			C569.982,69.515,569.982,67.66,569.982,65.805z"/>
		<path fill="#817E7E" d="M569.982,74.643c0,1.854,0,3.709,0,5.564c-0.055,0-0.109,0-0.164,0c0-1.855,0-3.709,0-5.564
			C569.873,74.643,569.928,74.643,569.982,74.643z"/>
		<path fill="#CFC6BE" d="M569.982,73.824c0,0.273,0,0.545,0,0.818c-0.055,0-0.109,0-0.164,0c0.109-1.037-0.218-2.509,0.164-3.273
			C569.982,72.188,569.982,73.006,569.982,73.824z"/>
		<path fill="#2B2929" d="M569.818,80.207c0.055,0,0.109,0,0.164,0c-0.109,3.437,0.218,7.31-0.164,10.474c0-0.546,0-1.091,0-1.637
			c0-1.309,0-2.618,0-3.928C569.818,83.479,569.818,81.843,569.818,80.207z"/>
		<path fill="#817E7E" d="M569.818,90.68c0,1.309,0,2.618,0,3.927c-0.055,0-0.109,0-0.164,0c0-1.854,0-3.709,0-5.564
			c0.055,0,0.109,0,0.164,0C569.818,89.589,569.818,90.134,569.818,90.68z"/>
		<path fill="#CFC6BE" d="M569.818,85.116c0,1.31,0,2.619,0,3.928c-0.055,0-0.109,0-0.164,0
			C569.764,87.789,569.437,86.098,569.818,85.116z"/>
		<path fill="#2B2929" d="M569.654,94.607c0.055,0,0.109,0,0.164,0c-0.109,3.382,0.218,7.201-0.164,10.31c0-0.491,0-0.982,0-1.473
			c0-1.364,0-2.728,0-4.091C569.654,97.771,569.654,96.189,569.654,94.607z"/>
		<path fill="#817E7E" d="M569.654,104.917c0,1.855,0,3.709,0,5.564c-0.054,0-0.108,0-0.163,0c0-2.346,0-4.691,0-7.037
			c0.055,0,0.109,0,0.163,0C569.654,103.936,569.654,104.426,569.654,104.917z"/>
		<path fill="#CFC6BE" d="M569.654,99.354c0,1.364,0,2.728,0,4.091c-0.054,0-0.108,0-0.163,0
			C569.601,102.135,569.272,100.39,569.654,99.354z"/>
		<path fill="#2B2929" d="M569.491,110.481c0.055,0,0.109,0,0.163,0c-0.108,2.673,0.219,5.782-0.163,8.183c0-0.272,0-0.546,0-0.818
			c0-1.637,0-3.273,0-4.909C569.491,112.118,569.491,111.3,569.491,110.481z"/>
		<path fill="#817E7E" d="M569.491,118.664c0,2.346,0,4.691,0,7.037c-0.055,0-0.109,0-0.164,0c0-2.619,0-5.237,0-7.855
			c0.055,0,0.109,0,0.164,0C569.491,118.118,569.491,118.392,569.491,118.664z"/>
		<path fill="#CFC6BE" d="M569.491,112.937c0,1.636,0,3.272,0,4.909c-0.055,0-0.109,0-0.164,0
			C569.437,116.264,569.109,114.245,569.491,112.937z"/>
		<path fill="#2B2929" d="M569.327,125.701c0.055,0,0.109,0,0.164,0c-0.109,2.127,0.218,4.691-0.164,6.546c0-1.909,0-3.818,0-5.728
			C569.327,126.246,569.327,125.974,569.327,125.701z"/>
		<path fill="#817E7E" d="M569.327,133.883c0,2.128,0,4.255,0,6.383c-0.055,0-0.108,0-0.163,0c0-2.128,0-4.255,0-6.383
			C569.219,133.883,569.272,133.883,569.327,133.883z"/>
		<path fill="#CFC6BE" d="M569.327,132.247c0,0.545,0,1.091,0,1.636c-0.055,0-0.108,0-0.163,0c0.108-2.399-0.219-5.236,0.163-7.363
			C569.327,128.429,569.327,130.338,569.327,132.247z"/>
		<path fill="#2B2929" d="M569.164,140.266c0.055,0,0.108,0,0.163,0c-0.108,1.854,0.219,4.146-0.163,5.728c0-1.691,0-3.382,0-5.073
			C569.164,140.702,569.164,140.483,569.164,140.266z"/>
		<path fill="#817E7E" d="M569.164,149.103c0,1.854,0,3.709,0,5.564c-0.055,0-0.109,0-0.164,0c0-1.855,0-3.71,0-5.564
			C569.055,149.103,569.109,149.103,569.164,149.103z"/>
		<path fill="#CFC6BE" d="M569.164,145.993c0,1.036,0,2.073,0,3.109c-0.055,0-0.109,0-0.164,0c0.109-2.673-0.218-5.782,0.164-8.183
			C569.164,142.611,569.164,144.302,569.164,145.993z"/>
		<path fill="#817E7E" d="M548.871,99.197c0.361,0.948,2.325,0.286,3.437,0.484C551.558,99.77,548.871,100.403,548.871,99.197z"/>
		<path fill="#817E7E" d="M532.343,149.594c0,1.69,0,3.382,0,5.073c-0.055,0-0.109,0-0.164,0c0-1.146,0-2.291,0-3.437
			c0-0.546,0-1.092,0-1.637C532.233,149.594,532.288,149.594,532.343,149.594z"/>
		<path fill="#CFC6BE" d="M532.343,149.594c-0.055,0-0.109,0-0.164,0c0-1.364,0-2.728,0-4.092
			C532.561,146.539,532.233,148.284,532.343,149.594z"/>
		<path fill="#CFC6BE" d="M532.179,154.667c0.055,0,0.109,0,0.164,0c-5.51,0.272-12.165,0.272-17.674,0
			c0.218-45.931-0.437-92.81,0.327-138.447c-0.272,45.767-0.272,92.68,0,138.447C520.724,154.667,526.451,154.667,532.179,154.667z"
			/>
		<path fill="#2B2929" d="M532.179,149.594c0,0.545,0,1.091,0,1.637c-0.382-3.109-0.054-6.929-0.163-10.311c0.055,0,0.109,0,0.163,0
			c0,1.527,0,3.055,0,4.582C532.179,146.866,532.179,148.229,532.179,149.594z"/>
		<path fill="#817E7E" d="M532.179,135.192c0,1.909,0,3.818,0,5.728c-0.054,0-0.108,0-0.163,0c0-1.363,0-2.728,0-4.091
			c0-0.546,0-1.091,0-1.637C532.07,135.192,532.125,135.192,532.179,135.192z"/>
		<path fill="#CFC6BE" d="M532.179,135.192c-0.054,0-0.108,0-0.163,0c0-1.255,0-2.509,0-3.764
			C532.397,132.355,532.07,133.992,532.179,135.192z"/>
		<path fill="#2B2929" d="M532.016,135.192c0,0.546,0,1.091,0,1.637c-0.382-3.109-0.055-6.928-0.164-10.31c0.055,0,0.109,0,0.164,0
			c0,1.636,0,3.272,0,4.909C532.016,132.684,532.016,133.938,532.016,135.192z"/>
		<path fill="#817E7E" d="M532.016,120.955c0,1.854,0,3.709,0,5.564c-0.055,0-0.109,0-0.164,0c0-1.855,0-3.71,0-5.564
			C531.906,120.955,531.961,120.955,532.016,120.955z"/>
		<path fill="#CFC6BE" d="M532.016,120.955c-0.055,0-0.109,0-0.164,0c0-0.272,0-0.546,0-0.818c0-0.818,0-1.637,0-2.455
			C532.233,118.445,531.906,119.919,532.016,120.955z"/>
		<path fill="#2B2929" d="M531.852,117.682c0,0.818,0,1.637,0,2.455c-0.382-2.346-0.055-5.4-0.163-8.019c0.055,0,0.108,0,0.163,0
			C531.852,113.973,531.852,115.827,531.852,117.682z"/>
		<path fill="#817E7E" d="M531.852,107.209c0,1.636,0,3.272,0,4.909c-0.055,0-0.108,0-0.163,0c0-1.637,0-3.273,0-4.909
			C531.743,107.209,531.797,107.209,531.852,107.209z"/>
		<path fill="#2B2929" d="M531.852,54.514c-0.136,0.027-0.156-0.062-0.163-0.164c-0.839-0.075-0.368,1.159-0.491,1.8
			c0,1.582,0,3.164,0,4.746c0,0.491,0,0.982,0,1.473c-0.286-1.091-0.164-2.857-0.164-4.418c0-1.445-0.442-3.307,0.655-3.764
			C531.723,54.316,531.852,54.35,531.852,54.514z"/>
		<path fill="#CFC6BE" d="M531.852,107.209c-0.055,0-0.108,0-0.163,0c0.062-1.392-0.103-2.994,0-3.928c0-1.091,0-2.182,0-3.273
			C532.07,102.081,531.743,104.863,531.852,107.209z"/>
		<path fill="#2B2929" d="M531.688,100.008c0,1.091,0,2.182,0,3.273c-0.382-1.527-0.055-3.764-0.164-5.564c0.055,0,0.109,0,0.164,0
			C531.688,98.48,531.688,99.244,531.688,100.008z"/>
		<path fill="#817E7E" d="M531.688,92.808c0,1.636,0,3.273,0,4.909c-0.055,0-0.109,0-0.164,0c0-1.636,0-3.273,0-4.909
			C531.579,92.808,531.634,92.808,531.688,92.808z"/>
		<path fill="#CFC6BE" d="M531.688,92.808c-0.055,0-0.109,0-0.164,0c0-1.037,0-2.073,0-3.109c0-1.909,0-3.819,0-5.728
			C531.906,86.589,531.579,89.917,531.688,92.808z"/>
		<path fill="#2B2929" d="M531.524,83.97c0,1.909,0,3.819,0,5.728c-0.382-1.8-0.055-4.31-0.163-6.382c0.054,0,0.108,0,0.163,0
			C531.524,83.534,531.524,83.752,531.524,83.97z"/>
		<path fill="#817E7E" d="M531.524,76.77c0,2.182,0,4.364,0,6.546c-0.055,0-0.109,0-0.163,0c0-2.182,0-4.364,0-6.546
			C531.415,76.77,531.47,76.77,531.524,76.77z"/>
		<path fill="#CFC6BE" d="M531.524,76.77c-0.055,0-0.109,0-0.163,0c0-0.273,0-0.546,0-0.818c0-2.073,0-4.146,0-6.219
			C531.743,71.751,531.415,74.479,531.524,76.77z"/>
		<path fill="#2B2929" d="M531.361,69.733c0,2.073,0,4.146,0,6.219c-0.382-2.073-0.055-4.855-0.164-7.201c0.055,0,0.109,0,0.164,0
			C531.361,69.078,531.361,69.406,531.361,69.733z"/>
		<path fill="#817E7E" d="M531.361,60.896c0,2.618,0,5.237,0,7.855c-0.055,0-0.109,0-0.164,0c0-2.127,0-4.255,0-6.382
			c0-0.491,0-0.982,0-1.473C531.252,60.896,531.307,60.896,531.361,60.896z"/>
		<path fill="#CFC6BE" d="M531.361,60.896c-0.055,0-0.109,0-0.164,0c0-1.582,0-3.164,0-4.746
			C531.579,57.405,531.252,59.369,531.361,60.896z"/>
		<path fill="#2B2929" d="M530.215,16.547c-4.69-0.382-10.091-0.055-15.056-0.164c-0.382,45.767-0.054,92.244-0.163,138.284
			c-0.272-45.768-0.272-92.68,0-138.447C519.967,16.438,525.79,15.79,530.215,16.547z"/>
		<path fill="#CFC6BE" d="M495.686,106.063c-0.055,0-0.109,0-0.164,0c0-0.381,0-0.763,0-1.145c0-0.6,0-1.2,0-1.8
			C495.903,103.772,495.576,105.136,495.686,106.063z"/>
		<path fill="#817E7E" d="M495.521,106.063c0.055,0,0.109,0,0.164,0c-0.109,2.073,0.218,4.583-0.164,6.383c0-0.055,0-0.109,0-0.164
			C495.521,110.209,495.521,108.136,495.521,106.063z"/>
		<path fill="#2B2929" d="M495.521,112.281c0,0.055,0,0.109,0,0.164c-11.237,0-22.475,0-33.711,0
			c-0.375,0.443-0.055,1.575-0.164,2.291c-0.375-0.498-0.055-1.691-0.164-2.455C472.829,112.281,484.176,112.281,495.521,112.281z"
			/>
		<path d="M495.521,106.063c0,2.073,0,4.146,0,6.219c-11.346,0-22.692,0-34.039,0c0.109,0.764-0.211,1.957,0.164,2.455
			c0.109,1.31-0.218,3.055,0.164,4.091c0.416,7.658,2.188,13.965,5.563,18.656c0.642,0.777,1.351,1.486,2.128,2.128
			c1.868,1.24,3.914,2.305,6.709,2.618c0.825,0.272,2.782,0.272,3.601,0c4.234-0.512,7.133-2.359,9.819-4.419
			c0.94-0.805,1.813-1.677,2.618-2.618c0.259-0.505,0.668-0.859,0.981-1.31c0.055,0,0.32-0.238,0.437-0.313
			c0.313,1.084,0.293,2.51,0.238,3.962c0,0.034-0.006,0.068-0.006,0.103c-0.075,1.234-0.178,2.557-0.178,3.777
			c0,2.993,0,5.837,0,7.691c-4.419,4.091-9.444,7.575-17.511,8.019c-0.927,0-1.854,0-2.781,0c-6.185-0.143-10.352-2.305-13.91-5.073
			c0-0.054,0-0.108,0-0.163c-1.494-0.955-2.489-2.421-3.765-3.601c-6.402-8.107-9.498-19.521-9.982-33.548
			c-0.103-0.553,0.212-1.521-0.163-1.8c0-0.382,0-0.764,0-1.146c0-2.128,0-4.255,0-6.383c0-0.382,0-0.764,0-1.146
			c0.375-0.279,0.061-1.248,0.163-1.8c0-0.546,0-1.091,0-1.637c0.818-13.637,3.655-25.256,10.146-33.221c0.055,0,0.109,0,0.163,0
			c0.757-1.043,1.814-1.787,2.619-2.782c2.755-2.209,5.918-4.01,10.637-4.255c1.091,0,2.182,0,3.273,0
			c4.752,0.157,7.896,1.93,10.637,4.091c0.805,0.941,1.678,1.814,2.618,2.619c6.226,7.746,8.585,19.345,9.328,32.566
			c-0.021,1.111,0.286,1.896,0.164,3.109c0.102,0.607-0.212,1.63,0.163,1.964C495.521,105.299,495.521,105.681,495.521,106.063z
			 M479.484,100.335c0.272-0.498,0.272-2.121,0-2.619c0-0.437,0-0.873,0-1.309c-0.109-0.873,0.218-2.175-0.164-2.782
			c-0.586-7.923-1.5-15.519-6.709-18.819c-4.65-1.173-6.758,1.077-8.183,3.927c-1.767,3.539-2.598,9.342-2.782,13.747
			c-0.382,0.709-0.055,2.127-0.164,3.109c-0.375,0.709-0.054,2.127-0.163,3.109c0,0.545,0,1.091,0,1.637
			C467.374,100.335,473.43,100.335,479.484,100.335z"/>
		<path fill="#2B2929" d="M495.521,103.117c0,0.6,0,1.2,0,1.8c-0.375-0.334-0.062-1.357-0.163-1.964c0.055,0,0.108,0,0.163,0
			C495.521,103.008,495.521,103.063,495.521,103.117z"/>
		<path fill="#817E7E" d="M495.521,102.954c-0.055,0-0.108,0-0.163,0c0.122-1.214-0.185-1.998-0.164-3.109
			C495.931,100.26,495.324,102.006,495.521,102.954z"/>
		<path d="M493.722,133.556c0.334,0.798,0.286,2.291,0.184,3.976c0.055-1.452,0.075-2.878-0.238-3.962
			C493.694,133.556,493.715,133.549,493.722,133.556z"/>
		<path fill="#817E7E" d="M493.886,141.084c-0.109,2.618,0.218,5.673-0.164,8.019c0-1.854,0-4.698,0-7.691
			c0-1.221,0.103-2.543,0.178-3.777C493.858,138.82,493.797,140.027,493.886,141.084z"/>
		<path fill="#817E7E" d="M493.558,133.229c0.041,0.109,0.082,0.219,0.109,0.341c-0.116,0.075-0.382,0.313-0.437,0.313
			C493.23,133.556,493.681,133.672,493.558,133.229z"/>
		<path fill="#2B2929" d="M491.922,135.356c0.136-0.034,0.163-0.164,0.327-0.164c-0.805,0.941-1.678,1.813-2.618,2.618
			c0.061-0.218,0.286-0.259,0.327-0.49C490.681,136.733,491.335,136.079,491.922,135.356z"/>
		<path fill="#CFC6BE" d="M491.922,135.356c-0.587,0.723-1.241,1.377-1.964,1.964C490.544,136.597,491.198,135.942,491.922,135.356z
			"/>
		<path fill="#2B2929" d="M483.248,64.66c0.941,0.805,1.813,1.678,2.618,2.619C484.926,66.474,484.053,65.601,483.248,64.66z"/>
		<path fill="#2B2929" d="M476.211,142.229c1.2,0,2.4,0,3.601,0C478.993,142.502,477.036,142.502,476.211,142.229z"/>
		<path fill="#2B2929" d="M479.484,97.717c0.272,0.498,0.272,2.121,0,2.619c0-0.055,0-0.109,0-0.164
			C479.484,99.354,479.484,98.535,479.484,97.717z"/>
		<path fill="#817E7E" d="M479.484,100.171c0,0.055,0,0.109,0,0.164c-6.055,0-12.11,0-18.165,0c0-0.546,0-1.091,0-1.637
			c0.055,0,0.109,0,0.163,0c0,0.491,0,0.982,0,1.473c5.946,0,11.893,0,17.838,0C479.375,100.171,479.43,100.171,479.484,100.171z"/>
		<path fill="#CFC6BE" d="M479.484,97.717c0,0.818,0,1.637,0,2.455c-0.055,0-0.109,0-0.164,0c0-1.254,0-2.509,0-3.764
			c0.055,0,0.109,0,0.164,0C479.484,96.844,479.484,97.28,479.484,97.717z"/>
		<path fill="#817E7E" d="M479.484,96.408c-0.055,0-0.109,0-0.164,0c0-0.927,0-1.854,0-2.782
			C479.702,94.232,479.375,95.535,479.484,96.408z"/>
		<path fill="#FFFFFF" d="M479.32,96.408c0,1.254,0,2.509,0,3.764c-5.945,0-11.892,0-17.838,0c0-0.491,0-0.981,0-1.473
			c0-0.164,0-0.327,0-0.491c0.382-1.582,0.055-3.873,0.164-5.728c0.185-4.405,1.016-10.208,2.782-13.747
			c1.425-2.85,3.532-5.1,8.183-3.927c5.209,3.3,6.123,10.896,6.709,18.819C479.32,94.553,479.32,95.48,479.32,96.408z"/>
		<path fill="#2B2929" d="M473.43,157.121c0.927,0,1.854,0,2.781,0C475.659,157.395,473.981,157.395,473.43,157.121z"/>
		<path fill="#2B2929" d="M472.611,60.569c-1.092,0-2.183,0-3.273,0C470.054,60.296,471.901,60.296,472.611,60.569z"/>
		<path fill="#2B2929" d="M469.338,139.283c0.034,0.13,0.164,0.164,0.164,0.328c-0.777-0.642-1.486-1.351-2.128-2.128
			c0.137,0.034,0.164,0.164,0.327,0.164C468.179,138.261,468.725,138.807,469.338,139.283z"/>
		<path fill="#CFC6BE" d="M467.701,137.647c0.614,0.477,1.159,1.022,1.637,1.636C468.725,138.807,468.179,138.261,467.701,137.647z"
			/>
		<path fill="#CFC6BE" d="M461.811,112.445c0,2.127,0,4.255,0,6.382c-0.382-1.036-0.055-2.781-0.164-4.091
			C461.756,114.021,461.436,112.889,461.811,112.445z"/>
		<path fill="#CFC6BE" d="M461.646,92.48c-0.109,1.855,0.218,4.146-0.164,5.728c0-0.873,0-1.746,0-2.619
			C461.592,94.607,461.265,93.189,461.646,92.48z"/>
		<path fill="#2B2929" d="M461.482,98.208c0,0.164,0,0.327,0,0.491c-0.054,0-0.108,0-0.163,0c0.109-0.982-0.212-2.4,0.163-3.109
			C461.482,96.462,461.482,97.335,461.482,98.208z"/>
		<path fill="#CFC6BE" d="M459.52,151.885c0,0.055,0,0.109,0,0.163c-1.568-0.934-2.741-2.277-3.765-3.764
			C457.03,149.464,458.025,150.93,459.52,151.885z"/>
		<path fill="#817E7E" d="M458.701,64.824c-0.805,0.995-1.862,1.739-2.619,2.782c-0.054,0-0.108,0-0.163,0
			C456.669,66.501,457.596,65.574,458.701,64.824z"/>
		<path fill="#817E7E" d="M445.772,100.826c0,0.545,0,1.091,0,1.637c-0.055,0-0.109,0-0.163,0
			C445.711,101.965,445.397,101.051,445.772,100.826z"/>
		<path fill="#2B2929" d="M445.772,102.463c-0.103,0.552,0.212,1.521-0.163,1.8c0-0.6,0-1.2,0-1.8
			C445.663,102.463,445.718,102.463,445.772,102.463z"/>
		<path fill="#2B2929" d="M445.609,112.937c0.375,0.279,0.061,1.247,0.163,1.8c-0.137,0.027-0.156-0.062-0.163-0.164
			C445.609,114.027,445.609,113.481,445.609,112.937z"/>
		<path fill="#CFC6BE" d="M445.609,112.937c0,0.545,0,1.091,0,1.636c-0.375-0.6-0.055-1.909-0.164-2.781c0.055,0,0.109,0,0.164,0
			C445.609,112.173,445.609,112.555,445.609,112.937z"/>
		<path fill="#817E7E" d="M445.609,105.408c0,2.128,0,4.255,0,6.383c-0.055,0-0.109,0-0.164,0c0-2.128,0-4.255,0-6.383
			C445.5,105.408,445.555,105.408,445.609,105.408z"/>
		<path fill="#CFC6BE" d="M445.609,104.263c0,0.382,0,0.764,0,1.146c-0.055,0-0.109,0-0.164,0c0.109-0.927-0.218-2.291,0.164-2.945
			C445.609,103.063,445.609,103.663,445.609,104.263z"/>
		<path fill="#817E7E" d="M432.354,134.047c0.402,0.729,0.041,2.114-0.164,2.782C432.088,135.745,432.477,135.151,432.354,134.047z"
			/>
		<path d="M432.354,134.047c0.123,1.104-0.266,1.698-0.164,2.782c-0.437,5.455-2.447,9.335-5.073,12.601c-0.054,0-0.108,0-0.163,0
			c-0.777,1.241-1.984,2.053-2.946,3.109c-3.068,2.496-6.764,4.364-12.109,4.582c-0.873,0-1.746,0-2.618,0
			c-7.229-0.463-11.776-3.606-16.201-6.873c-0.825-1.166-0.491-6.328-0.491-9.001c0-3.471,0-6.498,0-9
			c0.136-0.027,0.156,0.062,0.163,0.163c1.078,1.214,2.224,2.359,3.437,3.437c3.096,2.414,5.933,5.087,10.638,5.892
			c0.661,0.272,2.448,0.272,3.109,0c1.425-0.156,2.339-0.825,3.437-1.309c0.613-0.478,1.159-1.023,1.637-1.637
			c3.566-4.943-0.484-12.915-2.946-17.347c-2.216-3.996-4.93-7.563-7.036-10.965c-4.849-7.828-10.392-15.546-11.292-25.856
			c-0.103-0.552,0.211-1.521-0.164-1.8c0-0.6,0-1.2,0-1.8c0.375-0.28,0.062-1.248,0.164-1.8c1.459-10.76,7.037-17.401,18.001-18.656
			c1.037,0,2.073,0,3.109,0c5.844,0.32,9.614,2.714,13.256,5.236c0.791,0.668,0.491,4.624,0.491,7.528c0,3.348,0.348,6.144,0,7.692
			c-0.055,0.238-0.157-0.021-0.328,0c-3.518-2.428-6.777-5.107-11.946-5.892c-0.552-0.272-2.229-0.272-2.781,0
			c-2.98,0.402-4.59,2.175-5.073,5.073c-0.273,0.661-0.273,2.448,0,3.109c2.339,8.68,7.644,15.13,12.273,21.929
			c1.971,2.891,3.894,5.817,5.728,9C429.558,119.632,432.34,125.489,432.354,134.047z"/>
		<path fill="#CFC6BE" d="M428.753,66.296c0.382,2.236,0.055,5.182,0.164,7.691c-0.103,2.298,0.211,5.885-0.164,7.364
			C428.753,76.333,428.753,71.315,428.753,66.296z"/>
		<path fill="#2B2929" d="M428.753,66.296c0,5.019,0,10.037,0,15.056c-0.279,0.007-0.423-0.123-0.491-0.327
			c0.171-0.021,0.273,0.238,0.328,0c0.348-1.548,0-4.344,0-7.692c0-2.904,0.3-6.859-0.491-7.528
			C428.433,65.853,428.419,66.249,428.753,66.296z"/>
		<path fill="#817E7E" d="M426.953,149.43c0.055,0,0.109,0,0.163,0c-0.845,1.228-1.882,2.264-3.109,3.109
			C424.969,151.482,426.176,150.671,426.953,149.43z"/>
		<path fill="#2B2929" d="M416.315,75.133c-0.927,0-1.854,0-2.781,0C414.086,74.861,415.764,74.861,416.315,75.133z"/>
		<path fill="#2B2929" d="M414.843,60.569c-1.036,0-2.072,0-3.109,0C412.396,60.296,414.182,60.296,414.843,60.569z"/>
		<path fill="#2B2929" d="M415.007,138.793c-0.478,0.613-1.023,1.159-1.637,1.637C413.848,139.815,414.393,139.271,415.007,138.793z
			"/>
		<path fill="#2B2929" d="M409.279,157.121c0.872,0,1.745,0,2.618,0C411.399,157.395,409.776,157.395,409.279,157.121z"/>
		<path fill="#817E7E" d="M406.824,141.738c1.036,0,2.073,0,3.109,0C409.272,142.011,407.485,142.011,406.824,141.738z"/>
		<path fill="#2B2929" d="M408.461,80.207c0,1.037,0,2.073,0,3.109C408.188,82.654,408.188,80.868,408.461,80.207z"/>
		<path fill="#2B2929" d="M395.859,135.356c0.062,0.218,0.287,0.259,0.327,0.49c-1.213-1.077-2.358-2.223-3.437-3.437
			c0.335,0.048,0.321,0.443,0.655,0.491C394.155,133.788,394.974,134.606,395.859,135.356z"/>
		<path fill="#CFC6BE" d="M393.405,132.901c0.886,0.75,1.704,1.568,2.454,2.455C394.974,134.606,394.155,133.788,393.405,132.901z"
			/>
		<path fill="#2B2929" d="M393.732,79.225c-0.103,0.552,0.211,1.521-0.164,1.8c0-0.164,0-0.328,0-0.491
			C393.671,80.145,393.364,79.347,393.732,79.225z"/>
		<path fill="#2B2929" d="M393.568,82.825c0.375,0.28,0.062,1.248,0.164,1.8c-0.368-0.123-0.062-0.92-0.164-1.309
			C393.568,83.152,393.568,82.988,393.568,82.825z"/>
		<path fill="#817E7E" d="M393.568,82.825c0,0.164,0,0.328,0,0.491c-0.272-0.552-0.272-2.23,0-2.782c0,0.164,0,0.327,0,0.491
			C393.568,81.625,393.568,82.225,393.568,82.825z"/>
		<path fill="#817E7E" d="M393.405,132.901c-0.334-0.048-0.32-0.443-0.655-0.491c-0.007-0.102-0.027-0.19-0.163-0.163
			c0.027-0.137-0.062-0.157-0.164-0.164c0,5.837,0,11.674,0,17.511c-0.382-5.51-0.055-11.729-0.163-17.511
			C392.709,131.749,393.091,132.581,393.405,132.901z"/>
		<path fill="#2B2929" d="M392.423,132.083c0.103,0.007,0.191,0.027,0.164,0.164c0,2.502,0,5.529,0,9
			c0,2.673-0.334,7.835,0.491,9.001c-0.287-0.15-0.505-0.368-0.655-0.654C392.423,143.757,392.423,137.92,392.423,132.083z"/>
		<path fill="#817E7E" d="M377.694,22.929c0.314-0.054,0.232,2.148-0.163,2.455C377.545,24.525,377.804,23.911,377.694,22.929z"/>
		<path d="M377.694,22.929c0.109,0.982-0.149,1.596-0.163,2.455c-0.594,5.728-7.732,9.853-13.747,6.546
			c-7.404-4.071-5.318-16.72,3.765-17.51C372.929,13.949,376.938,17.291,377.694,22.929z"/>
		<path fill="#CFC6BE" d="M376.386,63.023c0.654,29.811,0.327,61.573,0.163,91.807c-5.4,0-10.801,0-16.201,0
			c-0.163-30.029-0.49-61.777,0.164-91.807c-0.272,30.166-0.272,61.478,0,91.644c5.291,0,10.582,0,15.874,0
			C376.658,124.501,376.658,93.189,376.386,63.023z"/>
		<path fill="#2B2929" d="M376.386,63.023c0.272,30.166,0.272,61.478,0,91.644C376.386,124.119,376.386,93.571,376.386,63.023z"/>
		<path fill="#817E7E" d="M376.386,62.86c0,0.054,0,0.109,0,0.164c-5.292,0-10.583,0-15.874,0c0-0.055,0-0.109,0-0.164
			C365.803,62.86,371.094,62.86,376.386,62.86z"/>
		<path d="M376.386,63.023c0,30.548,0,61.096,0,91.644c-5.292,0-10.583,0-15.874,0c0-30.548,0-61.096,0-91.644
			C365.803,63.023,371.094,63.023,376.386,63.023z"/>
		<path fill="#2B2929" d="M360.512,63.023c0,30.548,0,61.096,0,91.644C360.239,124.501,360.239,93.189,360.512,63.023z"/>
		<path d="M350.529,64.005c0,0.272,0,0.545,0,0.818c-0.375,0.225-0.062,1.139-0.164,1.636c-0.238,4.671-0.627,9.191-0.981,13.747
			c-0.628,0.375-1.528-0.607-2.455-0.982c-1.009-0.402-2.093-0.573-3.109-0.818c-0.498-0.272-2.121-0.272-2.618,0
			c-1.78,0.239-2.939,1.098-4.255,1.8c-0.777,0.641-1.487,1.35-2.127,2.127c-5.735,8.612-8.967,19.727-9.819,33.221
			c-0.382,12.71-0.055,26.129-0.164,39.112c-5.346,0-10.691,0-16.038,0c0-30.548,0-61.096,0-91.644c5.346,0,10.692,0,16.038,0
			c0.027,7.105-0.041,14.872,0,22.256c0.007,0.797-0.396,2.127,0.491,2.618c0.034-0.129,0.164-0.164,0.164-0.327
			c2.312-6.519,4.398-17.204,8.673-22.42c1.555-1.896,3.839-3.307,7.037-3.601c0.764,0,1.527,0,2.291,0
			C346.567,61.639,348.483,62.887,350.529,64.005z"/>
		<path fill="#2B2929" d="M350.529,64.824c-0.103,0.498,0.211,1.411-0.164,1.636C350.468,65.962,350.154,65.048,350.529,64.824z"/>
		<path fill="#2B2929" d="M343.819,78.406c-0.873,0-1.746,0-2.618,0C341.699,78.134,343.322,78.134,343.819,78.406z"/>
		<path fill="#2B2929" d="M343.492,61.55c-0.764,0-1.527,0-2.291,0C341.59,61.278,343.104,61.278,343.492,61.55z"/>
		<path fill="#2B2929" d="M336.946,80.207c-0.027,0.129-0.164,0.164-0.164,0.327c-0.668,0.532-1.269,1.132-1.8,1.8
			c-0.055,0-0.109,0-0.164,0C335.459,81.557,336.169,80.848,336.946,80.207z"/>
		<path fill="#CFC6BE" d="M336.783,80.534c-0.532,0.668-1.132,1.269-1.8,1.8C335.514,81.666,336.114,81.065,336.783,80.534z"/>
		<path fill="#2B2929" d="M325.491,87.571c0,0.164-0.129,0.198-0.164,0.327c-0.887-0.491-0.484-1.821-0.491-2.618
			c-0.041-7.385,0.027-15.151,0-22.256c0.491,7.855-0.164,16.856,0.328,24.711C325.3,87.707,325.327,87.571,325.491,87.571z"/>
		<path fill="#2B2929" d="M325,115.555c0,13.037,0,26.074,0,39.112c-0.055,0-0.109,0-0.164,0
			C324.945,141.684,324.618,128.265,325,115.555z"/>
		<path fill="#CFC6BE" d="M324.836,154.667c0.055,0,0.109,0,0.164,0c-5.019,0.272-11.183,0.272-16.202,0
			C314.145,154.667,319.49,154.667,324.836,154.667z"/>
		<path fill="#817E7E" d="M324.836,63.023c-5.346,0-10.691,0-16.038,0c0,30.548,0,61.096,0,91.644
			c-0.3-26.981-0.164-57.564-0.164-85.916c0-1.302-0.307-5.359,0-5.728c0.559-0.668,7.092-0.164,8.183-0.164
			C320.138,62.86,322.62,62.73,324.836,63.023z"/>
		<path fill="#817E7E" d="M291.943,106.554c0,2.4,0,4.801,0,7.201c-0.055,0-0.109,0-0.164,0c0-2.4,0-4.801,0-7.201
			C291.833,106.554,291.888,106.554,291.943,106.554z"/>
		<path fill="#CFC6BE" d="M291.779,104.59c0.375,0.334,0.061,1.357,0.164,1.963c-0.055,0-0.109,0-0.164,0c0-0.163,0-0.327,0-0.491
			C291.779,105.572,291.779,105.081,291.779,104.59z"/>
		<path fill="#CFC6BE" d="M291.943,113.755c-0.103,0.606,0.211,1.629-0.164,1.963c0-0.49,0-0.981,0-1.473c0-0.163,0-0.327,0-0.49
			C291.833,113.755,291.888,113.755,291.943,113.755z"/>
		<path fill="#2B2929" d="M291.779,115.718c0.027,0.137-0.062,0.157-0.164,0.164c0.103-0.498-0.211-1.411,0.164-1.637
			C291.779,114.736,291.779,115.228,291.779,115.718z"/>
		<path d="M291.779,113.755c0,0.163,0,0.327,0,0.49c-0.375,0.226-0.062,1.139-0.164,1.637c-0.62,14.162-4.221,25.345-10.801,33.548
			c-0.054,0-0.109,0-0.164,0c-0.92,1.426-2.284,2.407-3.437,3.601c-2.769,2.141-5.953,3.866-10.637,4.091c-0.709,0-1.418,0-2.127,0
			c-3.634-0.129-5.98-1.548-8.183-3.109c0-0.055,0-0.108,0-0.163c-0.361-0.185-0.545-0.546-0.981-0.655
			c-0.586-0.723-1.241-1.377-1.964-1.963c-0.3-0.409-0.498-0.921-0.982-1.146c-0.048-0.335-0.443-0.321-0.491-0.655
			c0.068-0.266-0.607-0.552-0.654-0.163c-0.273,17.783-0.273,36.712,0,54.495c0,0.054,0,0.108,0,0.163s0,0.109,0,0.164
			c-5.346,0-10.692,0-16.038,0c0-47.022,0-94.044,0-141.065c5.291,0,10.583,0,15.874,0c0.054,0,0.109,0,0.164,0
			c0,0.055,0,0.109,0,0.164c-0.273,1.691-0.273,4.528,0,6.219c0,0.055,0,0.109,0,0.164c1.016-0.498,1.739-1.998,2.618-2.946
			c2.421-2.618,5.312-4.685,10.31-5.073c0.873,0,1.746,0,2.618,0c4.603,0.198,7.474,2.127,10.146,4.255
			c0.859,0.996,1.786,1.923,2.782,2.782c7.18,8.749,11.224,20.633,11.946,35.839c0.103,0.498-0.211,1.412,0.164,1.636
			c0,0.164,0,0.328,0,0.491C291.779,108.954,291.779,111.354,291.779,113.755z M275.25,114.245c0.273-2.454,0.273-6.055,0-8.509
			c0-0.6,0-1.2,0-1.8c-0.102-0.498,0.211-1.412-0.164-1.637c-0.593-8.571-1.95-16.378-5.891-21.602
			c-0.532-0.668-1.132-1.268-1.8-1.8c-2.468-2.428-9.117-2.925-11.783-0.328c-0.614,0.478-1.159,1.023-1.637,1.637
			c-0.784,1.445-2.045,2.427-2.618,4.091c-0.239,0.027-0.15,0.396-0.164,0.654c-0.273,15.765-0.273,32.676,0,48.44
			c0.675,1.397,1.698,2.447,2.618,3.6c0.484,0.935,1.269,1.568,2.127,2.128c1.398,1.166,2.925,2.202,5.073,2.618
			c0.607,0.272,2.339,0.272,2.946,0c2.073-0.3,3.58-1.18,4.746-2.291c4.562-4.337,5.755-13.808,6.382-21.766
			c0.375-0.225,0.062-1.139,0.164-1.636C275.25,115.445,275.25,114.846,275.25,114.245z"/>
		<path fill="#2B2929" d="M291.779,104.59c0,0.491,0,0.982,0,1.472c-0.375-0.225-0.062-1.138-0.164-1.636
			C291.752,104.399,291.772,104.488,291.779,104.59z"/>
		<path fill="#CFC6BE" d="M280.651,149.43c0.055,0,0.109,0,0.164,0c-0.92,1.479-2.121,2.68-3.6,3.601
			C278.367,151.837,279.73,150.855,280.651,149.43z"/>
		<path fill="#2B2929" d="M276.887,65.805c0.996,0.859,1.923,1.787,2.782,2.782C278.673,67.728,277.746,66.801,276.887,65.805z"/>
		<path fill="#2B2929" d="M275.25,105.736c0.273,2.455,0.273,6.055,0,8.509c0-0.108,0-0.218,0-0.327c0-2.618,0-5.236,0-7.855
			C275.25,105.954,275.25,105.845,275.25,105.736z"/>
		<path fill="#817E7E" d="M275.25,114.245c0,0.601,0,1.2,0,1.801c-0.055,0-0.109,0-0.164,0c0-0.71,0-1.419,0-2.128
			c0.055,0,0.109,0,0.164,0C275.25,114.027,275.25,114.137,275.25,114.245z"/>
		<path fill="#CFC6BE" d="M275.25,106.063c0,2.619,0,5.237,0,7.855c-0.055,0-0.109,0-0.164,0c0-2.618,0-5.236,0-7.855
			C275.142,106.063,275.196,106.063,275.25,106.063z"/>
		<path fill="#817E7E" d="M275.25,105.736c0,0.109,0,0.218,0,0.327c-0.055,0-0.109,0-0.164,0c0-0.708,0-1.418,0-2.127
			c0.055,0,0.109,0,0.164,0C275.25,104.536,275.25,105.136,275.25,105.736z"/>
		<path fill="#2B2929" d="M275.25,103.936c-0.055,0-0.109,0-0.164,0c0-0.545,0-1.091,0-1.637
			C275.462,102.524,275.148,103.438,275.25,103.936z"/>
		<path fill="#2B2929" d="M275.087,116.046c0.055,0,0.109,0,0.164,0c-0.102,0.497,0.211,1.411-0.164,1.636
			C275.087,117.137,275.087,116.591,275.087,116.046z"/>
		<path fill="#FFFFFF" d="M275.087,116.046c0,0.545,0,1.091,0,1.636c-0.627,7.958-1.821,17.429-6.382,21.766
			c-1.166,1.111-2.673,1.991-4.746,2.291c-0.982,0-1.964,0-2.946,0c-2.148-0.416-3.675-1.452-5.073-2.618
			c-0.641-0.777-1.35-1.486-2.127-2.128c-0.92-1.152-1.943-2.202-2.618-3.6c0.382-16.038,0.054-32.785,0.164-49.095
			c0.573-1.664,1.834-2.646,2.618-4.091c0.614-0.478,1.159-1.023,1.637-1.637c2.666-2.598,9.314-2.1,11.783,0.328
			c0.532,0.668,1.132,1.268,1.8,1.8c3.941,5.223,5.298,13.031,5.891,21.602c0,0.546,0,1.091,0,1.637c0,0.709,0,1.418,0,2.127
			c0,2.619,0,5.237,0,7.855C275.087,114.627,275.087,115.336,275.087,116.046z"/>
		<path fill="#2B2929" d="M267.396,78.897c0.668,0.532,1.268,1.132,1.8,1.8C268.527,80.166,267.927,79.565,267.396,78.897z"/>
		<path fill="#2B2929" d="M266.741,61.55c-0.873,0-1.746,0-2.618,0C264.62,61.278,266.243,61.278,266.741,61.55z"/>
		<path fill="#2B2929" d="M264.45,157.121c0.709,0,1.418,0,2.127,0C266.243,157.395,264.784,157.395,264.45,157.121z"/>
		<path fill="#817E7E" d="M261.013,141.738c0.982,0,1.964,0,2.946,0C263.352,142.011,261.62,142.011,261.013,141.738z"/>
		<path fill="#CFC6BE" d="M256.267,153.849c0,0.055,0,0.108,0,0.163c-1.609-1.009-2.918-2.318-3.927-3.927
			c0.484,0.225,0.682,0.736,0.982,1.146c0.586,0.723,1.241,1.377,1.964,1.963C255.722,153.303,255.906,153.664,256.267,153.849z"/>
		<path fill="#2B2929" d="M255.613,78.57c-0.478,0.614-1.023,1.159-1.637,1.637C254.454,79.593,254.999,79.047,255.613,78.57z"/>
		<path fill="#817E7E" d="M253.813,136.992c0.777,0.642,1.486,1.351,2.127,2.128C255.081,138.561,254.297,137.927,253.813,136.992z"
			/>
		<path fill="#2B2929" d="M253.322,151.23c0.723,0.586,1.377,1.24,1.964,1.963C254.563,152.607,253.908,151.953,253.322,151.23z"/>
		<path fill="#817E7E" d="M251.194,149.267c0.047-0.389,0.723-0.103,0.654,0.163c-0.586-0.565-0.518,0.443-0.491,0.982
			c0,0.6,0,1.2,0,1.8c0,1.146,0,2.291,0,3.437c0,2.291,0,4.582,0,6.873c0,4.637,0,9.273,0,13.91
			c-0.109,9.11,0.218,18.656-0.164,27.493c0-0.055,0-0.109,0-0.163C251.194,185.597,251.194,167.432,251.194,149.267z"/>
		<path fill="#817E7E" d="M251.358,84.298c-0.109,16.31,0.218,33.057-0.164,49.095c0-16.146,0-32.293,0-48.44
			C251.208,84.693,251.119,84.325,251.358,84.298z"/>
		<path fill="#817E7E" d="M251.194,63.023c0.272,1.636,0.272,4.418,0,6.055c0-1.963,0-3.927,0-5.891
			C251.194,63.132,251.194,63.078,251.194,63.023z"/>
		<path fill="#2B2929" d="M251.194,149.267c0,18.165,0,36.33,0,54.495C250.921,185.979,250.921,167.05,251.194,149.267z"/>
		<path fill="#2B2929" d="M251.194,84.952c0,16.147,0,32.294,0,48.44C250.921,117.628,250.921,100.717,251.194,84.952z"/>
		<path fill="#2B2929" d="M251.194,69.078c0,0.109,0,0.218,0,0.328c-0.273-1.691-0.273-4.528,0-6.219
			C251.194,65.151,251.194,67.115,251.194,69.078z"/>
		<path fill="#817E7E" d="M251.031,63.023c-5.292,0-10.583,0-15.874,0C240.066,62.75,246.121,62.75,251.031,63.023z"/>
		<path fill="#2B2929" d="M235.157,63.023c0,47.021,0,94.043,0,141.065C234.884,157.448,234.884,109.663,235.157,63.023z"/>
		<path d="M225.501,64.169c-0.259,4.269-0.825,8.23-0.982,12.601c-0.375,0.225-0.062,1.139-0.164,1.636
			c0.129,0.839-0.232,1.187-0.164,1.964c-1.862-0.648-3.198-1.821-5.564-1.964c-0.498-0.272-2.121-0.272-2.618,0
			c-7.344,1.678-9.921,9.594-12.274,16.692c-1.923,5.81-3.396,12.11-3.764,18.328c-0.382,0.655-0.055,2.019-0.164,2.946
			c0,0.055,0,0.109,0,0.163c-0.382,12.383-0.055,25.475-0.164,38.131c-5.292,0-10.583,0-15.874,0c0-30.548,0-61.096,0-91.644
			c5.291,0,10.583,0,15.874,0c0.027,7.105-0.041,14.872,0,22.256c0.007,0.797-0.396,2.127,0.491,2.618
			c0.034-0.129,0.164-0.164,0.164-0.327c0.034-0.13,0.164-0.164,0.164-0.328c0.887-3.675,2.516-8.407,4.091-12.601
			c2.312-6.15,4.146-12.41,11.619-13.092c0.764,0,1.527,0,2.291,0C221.512,61.721,223.626,62.826,225.501,64.169z"/>
		<path fill="#2B2929" d="M224.52,76.77c-0.103,0.498,0.211,1.411-0.164,1.636C224.458,77.909,224.145,76.995,224.52,76.77z"/>
		<path fill="#2B2929" d="M218.628,78.406c-0.873,0-1.746,0-2.618,0C216.507,78.134,218.13,78.134,218.628,78.406z"/>
		<path fill="#2B2929" d="M218.464,61.55c-0.764,0-1.527,0-2.291,0C216.562,61.278,218.076,61.278,218.464,61.55z"/>
		<path fill="#CFC6BE" d="M200.129,87.414c0.034-0.137,0.184-0.15,0.334-0.171c0,0.164-0.129,0.198-0.164,0.328
			c-0.818,0.45-0.491-4.392-0.491-5.892c0-6.123,0.129-13.467-0.164-18.656c0-0.055,0-0.109,0-0.164
			C200.511,70.34,199.549,79.647,200.129,87.414z M200.129,87.434c-0.007,0.034-0.007,0.082,0.007,0.137
			C200.129,87.523,200.129,87.482,200.129,87.434z"/>
		<path fill="#2B2929" d="M199.809,81.679c0,1.5-0.327,6.341,0.491,5.892c0,0.164-0.129,0.198-0.164,0.327
			c-0.886-0.491-0.484-1.821-0.491-2.618c-0.041-7.385,0.027-15.151,0-22.256C199.938,68.212,199.809,75.556,199.809,81.679z"/>
		<path fill="#FFFFFF" d="M200.129,87.434c0,0.048,0,0.089,0.007,0.137C200.122,87.516,200.122,87.468,200.129,87.434z"/>
		<path fill="#CFC6BE" d="M199.972,116.373c0,12.765,0,25.529,0,38.294c-5.127,0.272-11.401,0.272-16.528,0
			c0.218-30.385-0.437-61.716,0.327-91.807c0,0.054,0,0.109,0,0.164c-0.273,30.166-0.273,61.478,0,91.644c5.291,0,10.583,0,15.874,0
			c0.382-12.383,0.054-25.475,0.164-38.131c0-0.054,0-0.108,0-0.163C199.863,116.373,199.917,116.373,199.972,116.373z"/>
		<path fill="#817E7E" d="M199.972,113.427c0,0.982,0,1.964,0,2.946c-0.055,0-0.109,0-0.164,0
			C199.917,115.445,199.59,114.082,199.972,113.427z"/>
		<path fill="#2B2929" d="M199.809,116.536c-0.109,12.656,0.218,25.748-0.164,38.131
			C199.754,142.011,199.427,128.919,199.809,116.536z"/>
		<path fill="#817E7E" d="M199.645,62.86c0,0.054,0,0.109,0,0.164c-5.292,0-10.583,0-15.874,0c0-0.055,0-0.109,0-0.164
			C189.062,62.86,194.354,62.86,199.645,62.86z"/>
		<path fill="#2B2929" d="M183.771,63.023c0,30.548,0,61.096,0,91.644C183.498,124.501,183.498,93.189,183.771,63.023z"/>
		<path fill="#817E7E" d="M172.97,62.86c0.3,19.856,0.164,41.485,0.164,62.35c0,3.007,0.259,7.03-0.327,8.837
			c0.382-23.293,0.054-47.294,0.164-70.86c-4.037-0.382-8.783-0.055-13.092-0.164c0-0.055,0-0.109,0-0.164
			C164.242,62.86,168.606,62.86,172.97,62.86z"/>
		<path fill="#2B2929" d="M172.97,63.187c-4.364,0-8.728,0-13.092,0c0-0.055,0-0.109,0-0.164
			C164.188,63.132,168.934,62.805,172.97,63.187z"/>
		<path d="M159.878,63.187c4.364,0,8.728,0,13.092,0c-0.109,23.565,0.218,47.567-0.164,70.86
			c-16.256,5.639-32.321,11.953-49.095,17.674c-2.141,0.729-5.298,2.51-7.037,2.455c-1.868-0.055-4.964-1.848-7.2-2.618
			C92.7,145.803,75.933,139.55,59.398,133.72c0-19.427,0-41.649,0-61.859c0-0.559-0.109-2.489-0.15-4.384
			c0-0.143,0-0.293-0.007-0.437c0.007-0.525,0.007-1.05,0-1.575c0-0.034,0-0.068,0-0.102c0.027-1.132,0.116-2.005,0.32-2.175
			c0.266-0.218,2.229,0,3.109,0c3.471,0,7.078,0,9.655,0c0.218,20.463-0.437,41.703,0.327,61.532
			c12.703,4.616,25.686,8.939,38.785,13.747c1.746,0.641,4.064,1.943,5.4,1.964c1.275,0.02,3.866-1.207,5.564-1.801
			c12.499-4.364,24.608-9.28,37.148-13.583c0.28,0.062,0.307-0.129,0.328-0.327c0.272-12.873,0.272-26.893,0-39.767
			c0-0.054,0-0.109,0-0.164c0.272-6.709,0.272-14.564,0-21.274C159.878,63.405,159.878,63.296,159.878,63.187z"/>
		<path fill="#2B2929" d="M159.878,63.514c0.272,6.71,0.272,14.565,0,21.274C159.878,77.697,159.878,70.606,159.878,63.514z"/>
		<path fill="#2B2929" d="M159.878,84.952c0.272,12.874,0.272,26.894,0,39.767C159.878,111.464,159.878,98.208,159.878,84.952z"/>
		<path fill="#CFC6BE" d="M159.878,84.952c0,13.256,0,26.512,0,39.767c-0.021,0.198-0.048,0.389-0.328,0.327
			c0.491-20.292-0.157-41.723,0.328-62.022c0,0.055,0,0.109,0,0.164c0,0.109,0,0.218,0,0.327c0,7.092,0,14.183,0,21.274
			C159.878,84.843,159.878,84.898,159.878,84.952z"/>
		<path fill="#817E7E" d="M156.441,72.679c0.273,16.201,0.273,33.548,0,49.749C156.441,105.845,156.441,89.262,156.441,72.679z"/>
		<path fill="#2B2929" d="M156.441,122.428c0,0.219,0,0.437,0,0.654c-12.928,5.237-26.695,9.635-39.93,14.565
			c-11.258-4.051-23.409-8.489-35.348-12.765c-1.623-0.58-4.262-1.241-4.909-2.128c0-16.474,0-32.948,0-49.422
			c0-0.109,0-0.218,0-0.327c3.129-1.418,7.043-2.769,10.801-4.091c1.132-0.396,3.116-1.316,3.437-0.164
			c0.437,1.575-4.814,2.789-5.728,3.109c-2.496,0.88-4.378,1.405-6.382,2.291c-0.055,0-0.109,0-0.164,0
			c0.109,15.819-0.218,32.075,0.164,47.622c10.691,3.941,22.154,8.135,33.384,12.109c1.588,0.566,3.586,1.637,4.746,1.637
			c1.746,0.007,4.568-1.63,6.382-2.291c5.455-1.984,10.474-3.553,16.038-5.563c0.907-0.328,2.148-0.628,2.782-1.474
			c0.191,0.308,0.47,0.443,0.491-0.163c4.125-0.682,8.278-2.741,12.274-4.092c-0.109-16.092,0.218-32.62-0.164-48.439
			c0-0.055,0-0.109,0-0.164c-3.955-1.295-7.978-2.577-12.273-4.091c-0.907-0.321-3.464-0.805-3.273-2.127
			c0.205-1.432,2.979-0.123,4.255,0.327c4.377,1.541,9.444,3.157,13.419,4.91c0,0.109,0,0.218,0,0.327
			C156.441,89.262,156.441,105.845,156.441,122.428z"/>
		<path fill="#CFC6BE" d="M154.314,73.497c0.382,15.819,0.055,32.348,0.164,48.439C154.096,106.117,154.423,89.589,154.314,73.497z"
			/>
		<path fill="#CFC6BE" d="M151.369,78.897c0.272,12.765,0.272,26.675,0,39.439C151.369,105.19,151.369,92.044,151.369,78.897z"/>
		<path fill="#F89623" d="M151.369,78.897c0,13.146,0,26.293,0,39.439c-0.737,1.848-5.066,3.777-6.546,1.8
			c-0.109-7.582,0.218-15.601-0.164-22.911c0.021-1.084-1.984-1.084-1.963,0c-0.382,7.91-0.055,16.529-0.164,24.71
			c-0.218,0.982-1.391,1.01-2.127,1.474c-0.231-0.014-0.463-0.027-0.491,0.163c-3.334,1.098-5.537,1.916-8.837,3.109
			c-0.743,0.266-2.223,1.022-3.109,0.491c-0.968-0.58-0.655-3.955-0.655-5.892c0-4.767,0-7.883,0-13.092
			c0-2.441,0.648-6.478-1.636-5.4c-0.894,1.589-0.491,3.771-0.491,5.728c0,6.376,0,13.044,0,19.147
			c-0.416,1.772-6.798,4.697-7.691,1.8c0-13.201,0-26.402,0-39.603c0.511-1.398,2.353-1.466,3.6-2.127c0.055,0,0.109,0,0.164,0
			c1.568-0.471,3.504-1.295,5.891-2.127c1.916-0.668,5.694-2.734,6.546-0.655c0.109,8.837-0.218,18.111,0.164,26.675
			c-0.021,1.084,1.984,1.084,1.964,0c0.382-9.164,0.055-19.038,0.164-28.475c0.975-1.534,5.278-2.455,7.528-3.273
			C146.623,78.747,150.461,76.333,151.369,78.897z"/>
		<path fill="#CFC6BE" d="M144.659,97.226c0.382,7.31,0.055,15.329,0.164,22.911C144.441,112.827,144.768,104.808,144.659,97.226z"
			/>
		<path d="M137.622,72.024c2.884-2.1,6.484,0.218,5.728,3.601c-0.866,3.886-7.18,2.557-6.709-1.473
			C136.742,73.258,137.22,73.129,137.622,72.024z"/>
		<path fill="#CFC6BE" d="M142.695,97.226c-0.109,8.182,0.218,16.801-0.164,24.71C142.641,113.755,142.313,105.136,142.695,97.226z"
			/>
		<path d="M142.204,126.028c-0.021,0.606-0.3,0.471-0.491,0.163c-0.089-0.129-0.17-0.266-0.164-0.49
			c-0.177-0.859-0.702-1.371-1.309-1.801c-0.143-0.074-0.293-0.143-0.327-0.327c1.03-0.211,1.063,0.573,1.636,0.818
			C141.74,124.965,142.19,125.278,142.204,126.028z"/>
		<path fill="#2B2929" d="M140.404,123.41c0.6,0.108,0.818,0.606,1.146,0.981c-0.573-0.245-0.606-1.029-1.636-0.818
			C139.94,123.383,140.172,123.396,140.404,123.41z"/>
		<path fill="#2B2929" d="M141.549,125.701c-0.395-0.642-0.797-1.275-1.309-1.801C140.847,124.33,141.372,124.842,141.549,125.701z"
			/>
		<path d="M137.949,55.659c3.525,5.332-1.152,11.435-4.255,14.237c0.068,0.586,0.437,0.873,0.327,1.637c0,0.654,0,1.309,0,1.964
			c-0.375,3.552-2.509,5.346-5.564,6.218c-0.375,2.134-0.225,4.794-1.636,5.892c0.034-1.548,0.716-2.448,0.654-4.091
			c-0.313-0.396-0.102-1.316-0.164-1.964c-0.164,0-0.327,0-0.491,0c-1.916-0.539-3.417-1.493-3.764-3.6c0-0.927,0-1.854,0-2.782
			c0.164-1.254,0.586-2.25,1.146-3.109c0.668-0.532,1.269-1.132,1.8-1.8c0.6-0.491,1.582-0.607,2.455-0.818
			c0.894-0.15,1.568,0.484,1.8-0.327c1.793-2.844,3.641-5.632,4.255-9.655c0.273-0.28,0.273-1.685,0-1.964
			c-0.007-0.812-0.893-0.743-1.473-0.982c-0.941-0.375-2.482-0.409-3.273,0.164c-1.234,0.784-2.359,1.677-3.764,2.291
			c-0.668,0.532-1.268,1.132-1.8,1.8c-1.384,2.257-3.471,5.237-2.945,8.346c0,0.818,0,1.636,0,2.455
			c-0.887,2.714-1.616,5.578-5.237,5.564c0,0.109,0,0.218,0,0.327c-0.259,0.45-0.334,1.084-0.328,1.8
			c-0.272,0.334-0.272,1.793,0,2.127c0.014,0.259-0.082,0.627,0.164,0.655c1.309,3.062,3.662,5.066,5.4,7.691
			c-0.055,0-0.109,0-0.164,0c-1.452-0.416-2.264-2.134-3.273-3.437c-1.213-1.568-2.455-2.884-2.782-5.237c0-0.382,0-0.764,0-1.146
			c0.272-0.177,0.272-1.459,0-1.637c-0.252-0.239-0.144-0.838-0.164-1.309c-5.721-1.541-4.112-12.724,2.945-11.619
			c1.159-2.496,1.848-5.462,3.764-7.201c0.798-0.838,1.616-1.657,2.455-2.455c1.262-1.03,2.693-1.889,4.91-1.964
			c1.091,0,2.182,0,3.273,0c1.793,0.334,3.041,1.214,4.091,2.291C136.79,54.636,137.335,55.182,137.949,55.659z"/>
		<path fill="#2B2929" d="M136.313,54.022c0.613,0.478,1.159,1.023,1.636,1.637C137.335,55.182,136.79,54.636,136.313,54.022z"/>
		<path d="M135.985,77.588c1.909,0.846-1.937,3.689-1.8,0.982C134.219,77.929,135.044,77.172,135.985,77.588z"/>
		<path fill="#CFC6BE" d="M135.985,83.152c-0.109,9.437,0.218,19.311-0.164,28.475C135.931,102.19,135.604,92.316,135.985,83.152z"
			/>
		<path fill="#2B2929" d="M134.513,55.496c0.273,0.279,0.273,1.684,0,1.964C134.513,56.805,134.513,56.15,134.513,55.496z"/>
		<path fill="#CFC6BE" d="M134.186,71.697c0.272,0.177,0.272,1.459,0,1.636C134.186,72.788,134.186,72.242,134.186,71.697z"/>
		<path fill="#2B2929" d="M134.186,73.333c0.027,0.137-0.062,0.157-0.164,0.164c0-0.655,0-1.31,0-1.964
			c0.137-0.027,0.157,0.061,0.164,0.164C134.186,72.242,134.186,72.788,134.186,73.333z"/>
		<path fill="#CFC6BE" d="M133.694,84.952c0.382,8.564,0.055,17.838,0.164,26.675C133.476,103.063,133.804,93.79,133.694,84.952z"/>
		<path fill="#817E7E" d="M133.04,54.514c-1.091,0.055-2.435-0.143-3.273,0.164C130.558,54.104,132.099,54.139,133.04,54.514z"/>
		<path fill="#2B2929" d="M132.222,51.731c-1.091,0-2.182,0-3.273,0c-0.027-0.136,0.061-0.157,0.164-0.164c0.982,0,1.964,0,2.946,0
			C132.194,51.541,132.215,51.629,132.222,51.731z"/>
		<path fill="#CFC6BE" d="M132.058,51.568c-0.982,0-1.964,0-2.946,0C129.719,51.295,131.451,51.295,132.058,51.568z"/>
		<path d="M130.749,60.569c0.15,0.968-0.245,1.391-0.982,1.473C128.301,61.591,129.603,59.273,130.749,60.569z"/>
		<path fill="#817E7E" d="M130.258,67.115c-0.232,0.811-0.907,0.177-1.8,0.327C128.124,67.04,130.053,67.517,130.258,67.115z"/>
		<path d="M129.603,41.258c-0.982,0.777,0.252,1.807,0.164,3.109c-1.711,0.634-3.3,1.391-5.236,1.8
			c-0.73-0.695-0.641-2.687-1.8-2.455c-0.593-3.314-4.528-2.918-3.928-7.691c0.048-0.402,0.17-0.839,0.491-1.473
			c-0.307-0.784-0.519-1.664-0.982-2.291c0.934-0.532-0.007-2.025-0.327-2.782c1.575-0.989,3.566-1.562,5.564-2.127
			c0.198,0.948,0.805,1.486,0.818,2.618c0.464,0.136,0.423-0.232,0.818-0.164c0.402,2.986,3.737,3.027,3.928,6.219
			c0,0.545,0,1.091,0,1.636C128.451,39.042,128.874,40.119,129.603,41.258z M128.785,40.931c0.116-0.498-0.171-0.593-0.164-0.982
			c-0.647,0.007-0.975,0.334-0.981,0.982C127.994,41.299,128.199,40.794,128.785,40.931z M125.185,31.603
			c0.082-0.519-0.504-0.369-0.327-0.982c-0.409,0.191-1.125,0.075-1.146,0.654C123.767,31.821,124.653,31.535,125.185,31.603z
			 M121.093,40.276c6.451,5.012,11.005-8.278,2.619-7.855C119.682,32.625,118.264,38.081,121.093,40.276z M124.203,42.731
			c0.055-0.382-0.027-0.627-0.164-0.818c-0.437,0.109-1.023,0.068-1.309,0.327c0.361,0.13,0.211,0.771,0.655,0.818
			C123.521,42.813,123.793,42.704,124.203,42.731z M119.457,33.73c0.682-0.185,1.214-0.737,0.654-1.31
			c-0.477-0.041-0.504,0.368-0.981,0.328C119.055,33.267,119.361,33.389,119.457,33.73z"/>
		<path fill="#817E7E" d="M129.112,36.021c0.272,0.177,0.272,1.459,0,1.636C129.112,37.112,129.112,36.567,129.112,36.021z"/>
		<path fill="#FFFFFF" d="M128.621,39.949c-0.007,0.389,0.28,0.484,0.164,0.982c-0.586-0.136-0.791,0.368-1.146,0
			C127.646,40.283,127.974,39.956,128.621,39.949z"/>
		<path fill="#817E7E" d="M127.476,36.021c-0.702,0.102-0.491-0.709-0.818-0.982c0.191,0.027,0.293-0.034,0.327-0.164
			C127.38,35.026,127.421,35.53,127.476,36.021z"/>
		<path fill="#817E7E" d="M127.312,79.552c0.062,0.648-0.15,1.568,0.164,1.964c-0.743-0.129,0.082-1.827-0.654-1.964
			C126.985,79.552,127.148,79.552,127.312,79.552z"/>
		<path fill="#CFC6BE" d="M125.676,102.79c-0.866,7.589,0.109,17.02-0.491,24.875c0-6.104,0-12.771,0-19.147
			C125.185,106.561,124.782,104.379,125.676,102.79z"/>
		<path fill="#FFFFFF" d="M124.857,30.621c-0.177,0.613,0.409,0.463,0.327,0.982c-0.532-0.068-1.418,0.218-1.473-0.328
			C123.732,30.696,124.448,30.812,124.857,30.621z"/>
		<path fill="#2B2929" d="M126.003,56.968c-0.532,0.668-1.132,1.269-1.8,1.8C124.735,58.1,125.334,57.5,126.003,56.968z"/>
		<path fill="#2B2929" d="M126.003,68.26c-0.532,0.668-1.132,1.268-1.8,1.8C124.735,69.392,125.334,68.792,126.003,68.26z"/>
		<path fill="#FFFFFF" d="M123.712,32.421c8.387-0.423,3.832,12.867-2.619,7.855C118.264,38.081,119.682,32.625,123.712,32.421z
			 M126.658,35.04c0.327,0.272,0.116,1.084,0.818,0.982c-0.054-0.491-0.095-0.996-0.491-1.146
			C126.951,35.005,126.849,35.067,126.658,35.04z M124.203,37.167c0.17-0.43,0.648-0.552,0.818-0.982
			c-0.552,0.286-0.859,0.45-1.309,0.491C124.019,36.696,123.828,37.214,124.203,37.167z M123.057,33.73
			c0.055-0.218,0.232-0.314,0.164-0.655c-0.293-0.423-1.336,0.293-0.818,0.655c0.429-1.119,0.457,0.934,0.982,0.164
			C123.255,33.86,123.064,33.887,123.057,33.73z"/>
		<path fill="#2B2929" d="M125.021,36.185c-0.17,0.43-0.648,0.552-0.818,0.982c-0.375,0.047-0.184-0.471-0.491-0.491
			C124.162,36.635,124.469,36.471,125.021,36.185z"/>
		<path fill="#FFFFFF" d="M124.039,41.913c0.136,0.191,0.218,0.437,0.164,0.818c-0.409-0.027-0.682,0.082-0.818,0.327
			c-0.443-0.048-0.293-0.688-0.655-0.818C123.016,41.981,123.603,42.022,124.039,41.913z"/>
		<path fill="#2B2929" d="M123.221,33.076c0.068,0.341-0.109,0.437-0.164,0.655c0.007,0.157,0.198,0.129,0.328,0.164
			c-0.525,0.771-0.553-1.282-0.982-0.164C121.884,33.369,122.928,32.653,123.221,33.076z"/>
		<path fill="#817E7E" d="M123.057,73.169c0,0.928,0,1.855,0,2.782C122.785,75.399,122.785,73.722,123.057,73.169z"/>
		<path d="M122.894,21.457c0.239,0.791-0.293,0.955-0.491,1.637C117.875,24.211,121.932,18.225,122.894,21.457z"/>
		<path fill="#817E7E" d="M124.039,53.695c-0.839,0.798-1.657,1.616-2.455,2.455C122.246,55.175,122.996,54.289,124.039,53.695z"/>
		<path d="M121.421,47.804c2.68-0.273,2.475,3.32,0.654,3.6C120.071,51.718,118.809,48.07,121.421,47.804z"/>
		<path fill="#817E7E" d="M121.257,67.115c0.272,0.443,0.272,2.011,0,2.455C121.257,68.751,121.257,67.933,121.257,67.115z"/>
		<path fill="#FFFFFF" d="M120.111,32.421c0.56,0.573,0.027,1.125-0.654,1.31c-0.096-0.341-0.402-0.464-0.327-0.982
			C119.607,32.789,119.634,32.38,120.111,32.421z"/>
		<path d="M120.111,77.588c0.021,0.402,0.027,0.791-0.164,0.982c-0.382,0.055-0.627-0.027-0.818-0.164c0-0.218,0-0.437,0-0.654
			C119.321,77.561,119.709,77.568,120.111,77.588z"/>
		<path fill="#CFC6BE" d="M117.493,89.862c0,13.201,0,26.402,0,39.603C117.22,116.646,117.22,102.681,117.493,89.862z"/>
		<path d="M109.638,18.838c0.873-5.039,7.432-3.696,7.364,0.982c-0.041,2.891-2.148,4.541-2.782,6.709
			c-0.478,0.177,0.15,1.459-0.327,1.636c-0.498,0.103-1.412-0.211-1.637,0.164c-0.109,0-0.218,0-0.327,0
			c-0.518-3.9,2.114-4.65,2.455-7.691c0.273-0.231,0.273-1.568,0-1.8c-0.211-0.818-1.07-1.132-1.964-0.818c-0.054,0-0.109,0-0.164,0
			c0,0.327-0.443,0.211-0.327,0.654c-0.055,0-0.109,0-0.164,0c0,0.818,0,1.637,0,2.455c-0.443,0.102-1.296-0.205-1.473,0.164
			c-0.218,0-0.436,0-0.654,0C109.638,20.475,109.638,19.656,109.638,18.838z"/>
		<path d="M114.22,34.058c2.482-0.614,3.88,2.836,1.964,4.091C113.307,40.031,110.893,34.883,114.22,34.058z"/>
		<path fill="#CFC6BE" d="M116.021,75.46c-0.218,1.364-0.164,3-0.164,4.583c-0.246-0.027-0.15-0.396-0.164-0.655
			c0-0.709,0-1.418,0-2.127C115.686,76.545,115.761,75.911,116.021,75.46z"/>
		<path d="M115.202,45.186c1.555,0.9,1.35,3.464,0.491,5.073c-0.205,0.068-0.334,0.211-0.327,0.491
			c-0.614,0.478-1.159,1.023-1.636,1.637c-0.287,0.15-0.505,0.368-0.655,0.655c-0.15,0.613-0.471,1.057-0.491,1.8
			c-0.539-0.116-1.043-0.266-1.636-0.327c-0.096-0.968,0.184-1.562,0.491-2.127c0.634-0.621,1.214-1.295,1.8-1.964
			c1.173-0.784,2.114-4.084,0-3.764c-0.996,0.15-0.853,1.146-1.146,2.291c-0.764,0.054-1.091-0.328-1.8-0.328
			C110.286,45.765,112.741,43.761,115.202,45.186z"/>
		<path fill="#2B2929" d="M115.693,77.261c0,0.709,0,1.418,0,2.127C115.42,79.054,115.42,77.595,115.693,77.261z"/>
		<path fill="#CFC6BE" d="M115.366,50.75c-0.007-0.279,0.123-0.422,0.327-0.491c-0.559,1.234-1.527,2.073-2.618,2.782
			c0.15-0.287,0.368-0.505,0.655-0.655C114.343,51.909,114.889,51.363,115.366,50.75z"/>
		<path fill="#CFC6BE" d="M115.202,90.189c0.272,2.455,0.272,6.055,0,8.51C115.202,95.862,115.202,93.025,115.202,90.189z"/>
		<path fill="#CFC6BE" d="M115.202,104.754c0.272,7.855,0.272,16.855,0,24.711C115.202,121.228,115.202,112.991,115.202,104.754z"/>
		<path fill="#F89623" d="M115.202,104.754c0,8.237,0,16.474,0,24.711c-0.989,2.693-6.757-0.198-9.328-1.146
			c-5.564-2.053-10.746-4.01-16.528-6.055c-2.652-0.941-7.323-1.991-8.019-3.928c0-2.728,0-5.455,0-8.183
			c0.539-2.796,5.005-0.512,7.201,0.327c3.928,1.493,7.514,2.81,11.783,4.419c1.255,0.47,4.943,2.577,5.728,1.309
			c0.777-1.255-1.289-1.807-2.127-2.127c-5.325-2.032-10.855-4.187-16.201-6.219c-2.148-0.818-6.096-1.364-6.382-3.437
			c0-8.4,0-16.801,0-25.202c0.648-2.564,3.321-1.193,5.728-0.327c6.805,2.455,13.058,4.807,20.128,7.364
			c2.769,1.002,7.528,1.766,8.019,3.927c0,2.836,0,5.673,0,8.51c-0.368,3.43-4.882,0.791-7.037,0
			c-3.982-1.459-7.535-2.687-11.783-4.255c-1.425-0.525-4.964-2.557-5.728-1.309c-0.784,1.282,1.896,2.1,1.964,2.127
			c5.339,2.086,10.671,4.05,16.038,6.055C110.988,102.19,114.643,102.694,115.202,104.754z"/>
		<path fill="#2B2929" d="M115.039,76.279c0.272,0.177,0.272,1.459,0,1.637c0-0.109,0-0.218,0-0.328
			C115.039,77.152,115.039,76.715,115.039,76.279z"/>
		<path fill="#817E7E" d="M115.039,77.916c0,0.382,0,0.764,0,1.146c-0.144,0.955-0.361-1.405,0-1.473
			C115.039,77.697,115.039,77.806,115.039,77.916z"/>
		<path fill="#2B2929" d="M114.384,18.838c0.273,0.231,0.273,1.568,0,1.8C114.384,20.038,114.384,19.438,114.384,18.838z"/>
		<path d="M114.384,30.621c0,0.382,0,0.764,0,1.146c-0.764,0-1.527,0-2.291,0c0-0.709,0-1.418,0-2.127
			c0.443-0.103,1.295,0.205,1.473-0.164c0.218,0,0.437,0,0.655,0C114.315,29.816,114.016,30.553,114.384,30.621z"/>
		<path fill="#CFC6BE" d="M114.384,29.312c0,0.437,0,0.873,0,1.31c-0.368-0.068-0.068-0.805-0.164-1.146c-0.218,0-0.437,0-0.655,0
			c-0.491,0-0.982,0-1.473,0c-0.375,0.279-0.062,1.248-0.164,1.8c-0.307-0.32-0.218-1.629,0-1.964
			C112.748,29.312,113.565,29.312,114.384,29.312z"/>
		<path fill="#2B2929" d="M112.093,31.767c0.764,0,1.527,0,2.291,0c-0.027,0.191-0.3,0.136-0.491,0.164
			c-0.648-0.062-1.568,0.15-1.964-0.164c0-0.164,0-0.328,0-0.491c0.102-0.552-0.211-1.521,0.164-1.8c0.491,0,0.982,0,1.473,0
			c-0.177,0.368-1.029,0.061-1.473,0.164C112.093,30.348,112.093,31.057,112.093,31.767z"/>
		<path fill="#2B2929" d="M114.22,26.53c0,0.6,0,1.2,0,1.8c-0.655,0-1.309,0-1.964,0c0.225-0.375,1.139-0.061,1.637-0.164
			C114.37,27.989,113.743,26.707,114.22,26.53z"/>
		<path fill="#2B2929" d="M115.366,50.75c-0.477,0.614-1.023,1.159-1.636,1.637C114.207,51.772,114.752,51.227,115.366,50.75z"/>
		<path fill="#CFC6BE" d="M111.929,31.767c0.396,0.313,1.316,0.102,1.964,0.164C113.627,32.128,111.936,32.367,111.929,31.767z"/>
		<path d="M112.42,55.659c0.089,0.853-0.313,1.214-0.327,1.964c-0.702-0.062-1.146-0.382-1.8-0.491
			C110.272,55.4,110.845,55.216,112.42,55.659z"/>
		<path fill="#CFC6BE" d="M112.256,18.02c0.055,0,0.109,0,0.164,0c-0.647,0.43-0.061,2.564-0.491,3.252c0-0.866,0-1.732,0-2.598
			C111.813,18.231,112.256,18.347,112.256,18.02z"/>
		<path fill="#FFFFFF" d="M111.929,21.272c0,0.007,0,0.014,0,0.021c-0.007,0-0.007,0-0.014,0
			C111.922,21.286,111.929,21.279,111.929,21.272z"/>
		<path fill="#2B2929" d="M111.929,18.674c0,0.866,0,1.732,0,2.598c0,0.007-0.007,0.014-0.014,0.021c-0.32,0-0.648,0-0.968,0
			c-0.218,0-0.437,0-0.655,0c0.177-0.368,1.03-0.062,1.473-0.164c0-0.818,0-1.637,0-2.455
			C111.82,18.674,111.875,18.674,111.929,18.674z"/>
		<path fill="#CFC6BE" d="M110.947,21.293c0.32,0,0.648,0,0.968,0C111.752,21.525,111.465,21.572,110.947,21.293z"/>
		<path fill="#817E7E" d="M113.238,50.422c-0.586,0.668-1.166,1.343-1.8,1.964C111.847,51.541,112.57,51.009,113.238,50.422z"/>
		<path d="M111.111,62.369c0.498,2.305-3.198,0.545-1.309-0.491C110.286,61.612,110.968,61.687,111.111,62.369z"/>
		<path d="M109.475,76.115c3.15,1.453,1.93,7.48-2.782,6.382c-0.859-0.504-1.623-1.104-2.127-1.964c0-0.164,0-0.327,0-0.491
			c0-0.545,0-1.091,0-1.637C104.885,76.027,107.64,75.263,109.475,76.115z"/>
		<path fill="#2B2929" d="M109.638,18.838c0,0.818,0,1.636,0,2.455C109.365,20.85,109.365,19.281,109.638,18.838z"/>
		<path d="M109.147,42.895c0.887,2.291-2.379,2.796-2.618,0.982C106.365,42.628,107.92,41.797,109.147,42.895z"/>
		<path d="M108.329,66.787c1.882,1.616-1.438,7.494-3.764,4.91c-0.334,0.157-0.648,0.334-0.982,0.491
			c-0.055,0.6,0.143,1.453-0.164,1.8c-0.191,0.191-0.58,0.184-0.982,0.164c-0.6,0-1.2,0-1.8,0c-0.818,0-1.636,0-2.455,0
			c-0.641-0.232-0.716-1.029-0.655-1.964c0.252-0.402,0.621-0.688,1.146-0.818c-0.402-0.907-1.289-1.33-1.309-2.619
			c-4.173,1.466-4.582-4.548-0.982-4.582c-0.866-0.771-2.004-1.269-2.291-2.619c-3.859,0.252-2.475-6.068,0.818-4.254
			c0.791-0.3,1.323-0.859,2.291-0.982c0.287-3.607,6.382-2.012,4.255,1.636c0.457,0.798,0.586,1.923,0.491,3.273
			c0.995-0.17,0.818-1.016,1.636-1.309c2.905-1.043,4.446,3.662,1.473,4.255c0.116,1.302,1.166,1.67,1.146,3.109
			C106.815,67.019,107.286,66.617,108.329,66.787z"/>
		<path d="M107.674,34.548c0.504,3.164,0.354,6.819-3.273,6.71c-0.089,0.129-0.17,0.266-0.164,0.491
			c-0.375,0.498-0.055,1.691-0.164,2.455c0,0.491,0,0.982,0,1.473c-0.375,0.498-0.055,1.691-0.164,2.455
			c0.566,0.688,1.398,1.111,2.292,1.473c-1.991,0.354-4.105-0.586-6.382-0.491c0.525-0.621,1.698-0.593,2.618-0.818
			c0.586-2.25,1.009-4.664,1.473-7.037c-3.021-0.048-3.266-4.999-1.636-6.874c0.129-0.034,0.191-0.136,0.164-0.327
			c0.6,0,1.2,0,1.8,0C105.383,34.221,106.617,34.296,107.674,34.548z"/>
		<path d="M105.383,26.203c3.123-0.962,2.202,4.275-0.328,2.945C104.469,28.841,103.638,26.741,105.383,26.203z"/>
		<path fill="#2B2929" d="M104.565,78.406c0,0.545,0,1.091,0,1.637C104.292,79.866,104.292,78.583,104.565,78.406z"/>
		<path fill="#2B2929" d="M104.238,41.749c0,0.818,0,1.637,0,2.455c-0.055,0-0.109,0-0.164,0
			C104.183,43.44,103.863,42.247,104.238,41.749z"/>
		<path fill="#817E7E" d="M104.238,44.204c-0.103,0.552,0.211,1.521-0.164,1.8c0-0.109,0-0.218,0-0.327c0-0.491,0-0.982,0-1.473
			C104.128,44.204,104.183,44.204,104.238,44.204z"/>
		<path fill="#2B2929" d="M104.238,34.058c-0.6,0-1.2,0-1.8,0c0.225-0.375,1.139-0.062,1.637-0.164
			C104.21,33.867,104.231,33.955,104.238,34.058z"/>
		<path fill="#2B2929" d="M104.074,45.677c0,0.109,0,0.218,0,0.327c-0.103,0.662,0.211,1.739-0.164,2.127
			C104.02,47.368,103.699,46.174,104.074,45.677z"/>
		<path fill="#CFC6BE" d="M104.074,33.894c-0.498,0.102-1.412-0.211-1.637,0.164c0.027,0.191-0.034,0.293-0.164,0.327
			C101.967,33.417,103.712,33.655,104.074,33.894z"/>
		<path fill="#2B2929" d="M100.637,74.151c0.6,0,1.2,0,1.8,0c-0.28,0.375-1.248,0.062-1.8,0.164
			C100.637,74.261,100.637,74.206,100.637,74.151z"/>
		<path fill="#817E7E" d="M100.637,74.151c0,0.055,0,0.109,0,0.164c-0.764-0.109-1.957,0.211-2.455-0.164
			C99.001,74.151,99.819,74.151,100.637,74.151z"/>
		<path d="M96.546,79.879c-2.632-2.244,3.129-3.996,1.8-0.328C97.964,79.879,97.303,79.927,96.546,79.879z"/>
		<path d="M92.946,72.024c0.055,0.655,0.007,1.207-0.327,1.473c-0.532,0.095-0.764-0.109-1.146-0.164
			C90.798,72.215,92.107,71.165,92.946,72.024z"/>
		<path d="M89.346,75.788c0.055,0,0.109,0,0.164,0c-0.089,0.239,0.191,0.845-0.164,0.818C88.479,76.865,88.479,75.529,89.346,75.788
			z"/>
		<path fill="#2B2929" d="M89.346,75.788c-0.866-0.259-0.866,1.077,0,0.818C88.364,77.39,88.364,75.004,89.346,75.788z"/>
		<path fill="#CFC6BE" d="M81.327,110.154c0,2.728,0,5.455,0,8.183C81.054,115.991,81.054,112.5,81.327,110.154z"/>
		<path fill="#CFC6BE" d="M81.327,79.225c0,8.4,0,16.801,0,25.202C81.054,96.408,81.054,87.243,81.327,79.225z"/>
		<path fill="#CFC6BE" d="M78.381,74.151c0,15.874,0,31.748,0,47.622C78,106.227,78.327,89.971,78.217,74.151
			C78.272,74.151,78.327,74.151,78.381,74.151z"/>
		<path fill="#817E7E" d="M76.254,73.333c0,16.474,0,32.948,0,49.422C75.981,106.663,75.981,89.425,76.254,73.333z"/>
		<path fill="#2B2929" d="M72.653,124.556c0,0.054,0,0.108,0,0.163c-0.764-19.829-0.109-41.069-0.327-61.532
			c-2.578,0-6.185,0-9.655,0c-0.88,0-2.843-0.218-3.109,0c-0.205,0.17-0.293,1.043-0.32,2.175c0-0.784,0-1.562-0.007-2.339
			c4.418,0,8.837,0,13.255,0C72.599,83.479,72.271,104.372,72.653,124.556z"/>
		<path fill="#CFC6BE" d="M72.49,63.023c0.382,20.183,0.055,41.076,0.164,61.532C72.271,104.372,72.599,83.479,72.49,63.023z"/>
		<path fill="#817E7E" d="M72.49,63.023c-4.418,0-8.837,0-13.255,0C63.271,62.75,68.453,62.75,72.49,63.023z"/>
		<path fill="#2B2929" d="M59.398,71.86c0,20.21,0,42.433,0,61.859c-0.354-21.772-0.096-44.165-0.15-66.244
			C59.289,69.372,59.398,71.301,59.398,71.86z"/>
		<path d="M59.241,65.464c0.007,0.525,0.007,1.05,0,1.575C59.234,66.494,59.234,65.956,59.241,65.464z"/>
		<path fill="#2B2929" d="M47.615,122.919c0.272,0.818,0.272,2.782,0,3.601C47.615,125.319,47.615,124.119,47.615,122.919z"/>
		<path d="M47.615,122.919c0,1.2,0,2.4,0,3.601c-0.184,9.034-3.055,15.383-7.201,20.456c-1.159,1.132-2.264,2.318-3.437,3.437
			c-3.962,3.402-9.144,5.591-16.038,6.055c-1.091,0-2.182,0-3.273,0c-6.417-0.348-11.101-2.421-15.383-4.909
			c-0.034-0.191-0.252-0.191-0.402-0.26c-0.027-0.041-0.062-0.081-0.089-0.122c0-6.035,0-12.076,0-18.11c0.055,0,0.109,0,0.164,0
			c3.689,3.293,7.603,6.361,13.747,7.2c0.552,0.272,2.23,0.272,2.782,0c2.986-0.286,5.08-1.466,7.037-2.782
			c0.832-0.695,1.596-1.459,2.291-2.291c1.173-1.827,2.353-3.647,2.619-6.382c0.272-0.982,0.272-3.109,0-4.092
			c-1.104-8.775-4.412-15.751-8.019-22.583c-2.945-5.571-5.891-11.121-8.673-16.528C8.019,74.485,2.25,63.276,0.812,48.131
			c0-1.418,0-2.836,0-4.255c0.354-8.537,3.068-14.715,7.037-19.638c0.539-0.28,0.757-0.88,1.146-1.31
			c0.614-0.477,1.159-1.022,1.636-1.636c0.409-0.3,0.921-0.498,1.146-0.982c6.253-6.812,23.511-7.583,31.912-2.127
			c-0.109,4.644,0.143,10.357,0,14.892c0,0.041,0,0.088,0.014,0.15c-0.041,0.437-0.082,0.866-0.136,1.282
			c-0.055,0.041-0.123,0.047-0.205,0.041c-4.896-3.232-14.081-5.659-20.129-2.127c-3.211,1.875-4.787,4.882-5.237,9.328
			c-0.272,0.927-0.272,3,0,3.928c2.175,14.749,9.396,25.488,15.547,36.984c2.945,5.503,6,11.435,8.51,17.838
			C44.731,107.338,47.342,114.204,47.615,122.919z"/>
		<path fill="#2B2929" d="M43.688,18.184c0.143,4.453,0.416,10.303,0.014,15.042c-0.014-0.062-0.014-0.109-0.014-0.15
			C43.831,28.541,43.579,22.827,43.688,18.184z"/>
		<path d="M43.701,33.226c0.027,0.389,0.17,1.125-0.136,1.282C43.62,34.092,43.66,33.662,43.701,33.226z"/>
		<path fill="#2B2929" d="M43.565,34.508c-0.007,0.123-0.027,0.245-0.041,0.368c-0.034-0.13-0.164-0.164-0.164-0.328
			C43.442,34.555,43.51,34.548,43.565,34.508z"/>
		<path fill="#817E7E" d="M36.978,150.412c1.173-1.118,2.277-2.305,3.437-3.437C39.453,148.305,38.308,149.45,36.978,150.412z"/>
		<path fill="#817E7E" d="M30.432,124.719c0.272,0.982,0.272,3.109,0,4.092C30.432,127.446,30.432,126.083,30.432,124.719z"/>
		<path fill="#2B2929" d="M27.486,135.356c0.129-0.034,0.164-0.164,0.327-0.164c-0.695,0.832-1.459,1.596-2.291,2.291
			c0.034-0.13,0.164-0.163,0.164-0.327C26.354,136.624,26.955,136.024,27.486,135.356z"/>
		<path fill="#CFC6BE" d="M27.486,135.356c-0.532,0.668-1.132,1.268-1.8,1.8C26.218,136.488,26.818,135.888,27.486,135.356z"/>
		<path fill="#817E7E" d="M17.667,156.467c1.091,0,2.182,0,3.273,0C20.225,156.739,18.383,156.739,17.667,156.467z"/>
		<path fill="#2B2929" d="M15.704,140.266c0.927,0,1.855,0,2.782,0C17.934,140.538,16.256,140.538,15.704,140.266z"/>
		<path fill="#817E7E" d="M17.995,41.749c0,1.309,0,2.618,0,3.928C17.722,44.749,17.722,42.676,17.995,41.749z"/>
		<path fill="#CFC6BE" d="M11.776,20.311c-0.225,0.484-0.736,0.682-1.146,0.982c-0.613,0.477-1.159,1.023-1.636,1.636
			c-0.389,0.43-0.607,1.03-1.146,1.31C8.878,22.65,10.16,21.313,11.776,20.311z"/>
		<path fill="#2B2929" d="M10.63,21.293c-0.477,0.614-1.022,1.159-1.636,1.636C9.471,22.316,10.017,21.77,10.63,21.293z"/>
		<path fill="#CFC6BE" d="M2.285,151.558c-0.191,0.027-0.293-0.034-0.328-0.164c-0.027-0.027-0.047-0.062-0.075-0.096
			C2.032,151.366,2.25,151.366,2.285,151.558z"/>
		<path fill="#CFC6BE" d="M1.957,133.065c-0.054,0-0.109,0-0.164,0c-0.375,2.024-0.055,6.164-0.164,9
			c0.109,2.974-0.211,6.383,0.157,9.097c-0.675-1.091-0.32-2.775-0.32-4.187c0-4.453-0.266-10.181,0.327-14.238
			C1.828,132.867,1.957,132.901,1.957,133.065z"/>
		<path d="M1.793,151.176c0.027,0.041,0.062,0.081,0.089,0.122c-0.034-0.021-0.062-0.041-0.089-0.067
			C1.793,151.21,1.793,151.196,1.793,151.176z"/>
		<path fill="#FFFFFF" d="M1.793,151.176c0,0.021,0,0.034,0,0.055c0-0.021-0.007-0.041-0.007-0.068
			C1.793,151.169,1.793,151.169,1.793,151.176z"/>
		<path fill="#2B2929" d="M1.793,133.065c0,6.034,0,12.075,0,18.11c0-0.007,0-0.007-0.007-0.014
			c-0.368-2.714-0.048-6.123-0.157-9.097C1.739,139.229,1.418,135.09,1.793,133.065z"/>
		<path fill="#817E7E" d="M0.812,43.876c0,1.418,0,2.836,0,4.255C0.539,47.095,0.539,44.913,0.812,43.876z"/>
	</g>
	<g>
	</g>
</g>
</svg>
